<svg width="183" height="243" viewBox="0 0 183 243" fill="none" xmlns="http://www.w3.org/2000/svg">
<rect width="183" height="243" rx="2" fill="#9AD4E2" fill-opacity="0.5"/>
<g filter="url(#filter0_d_42_17)">
<rect x="39" y="49" width="105" height="146" fill="white"/>
</g>
<path d="M90.7046 118C90.4779 117.4 90.2646 116.813 90.0646 116.24C89.8646 115.653 89.6579 115.06 89.4446 114.46H83.1646L81.9046 118H79.8846C80.4179 116.533 80.9179 115.18 81.3846 113.94C81.8513 112.687 82.3046 111.5 82.7446 110.38C83.1979 109.26 83.6446 108.193 84.0846 107.18C84.5246 106.153 84.9846 105.14 85.4646 104.14H87.2446C87.7246 105.14 88.1846 106.153 88.6246 107.18C89.0646 108.193 89.5046 109.26 89.9446 110.38C90.3979 111.5 90.8579 112.687 91.3246 113.94C91.7913 115.18 92.2913 116.533 92.8246 118H90.7046ZM88.8846 112.86C88.4579 111.7 88.0313 110.58 87.6046 109.5C87.1913 108.407 86.7579 107.36 86.3046 106.36C85.8379 107.36 85.3913 108.407 84.9646 109.5C84.5513 110.58 84.1379 111.7 83.7246 112.86H88.8846ZM93.7863 113.2C94.0397 112.613 94.3863 111.933 94.8263 111.16C95.2663 110.373 95.7597 109.567 96.3063 108.74C96.8663 107.913 97.4597 107.1 98.0863 106.3C98.7263 105.5 99.3663 104.78 100.006 104.14H101.786V112.94H103.426V114.46H101.786V118H99.9863V114.46H93.7863V113.2ZM99.9863 106.34C99.5863 106.767 99.1797 107.247 98.7663 107.78C98.3663 108.3 97.973 108.847 97.5863 109.42C97.1997 109.993 96.833 110.58 96.4863 111.18C96.153 111.78 95.853 112.367 95.5863 112.94H99.9863V106.34ZM78.981 139.62C81.0077 139.62 82.021 138.927 82.021 137.54C82.021 137.113 81.9277 136.753 81.741 136.46C81.5677 136.153 81.3277 135.893 81.021 135.68C80.7143 135.453 80.361 135.26 79.961 135.1C79.5743 134.94 79.161 134.78 78.721 134.62C78.2143 134.447 77.7343 134.253 77.281 134.04C76.8277 133.813 76.4343 133.553 76.101 133.26C75.7677 132.953 75.501 132.593 75.301 132.18C75.1143 131.767 75.021 131.267 75.021 130.68C75.021 129.467 75.4343 128.52 76.261 127.84C77.0877 127.16 78.2277 126.82 79.681 126.82C80.521 126.82 81.281 126.913 81.961 127.1C82.6543 127.273 83.161 127.467 83.481 127.68L82.861 129.26C82.581 129.087 82.161 128.92 81.601 128.76C81.0543 128.587 80.4143 128.5 79.681 128.5C79.3077 128.5 78.961 128.54 78.641 128.62C78.321 128.7 78.041 128.82 77.801 128.98C77.561 129.14 77.3677 129.347 77.221 129.6C77.0877 129.84 77.021 130.127 77.021 130.46C77.021 130.833 77.0943 131.147 77.241 131.4C77.3877 131.653 77.5943 131.88 77.861 132.08C78.1277 132.267 78.4343 132.44 78.781 132.6C79.141 132.76 79.5343 132.92 79.961 133.08C80.561 133.32 81.1077 133.56 81.601 133.8C82.1077 134.04 82.541 134.327 82.901 134.66C83.2743 134.993 83.561 135.393 83.761 135.86C83.961 136.313 84.061 136.867 84.061 137.52C84.061 138.733 83.6143 139.667 82.721 140.32C81.841 140.973 80.5943 141.3 78.981 141.3C78.4343 141.3 77.9277 141.26 77.461 141.18C77.0077 141.113 76.601 141.033 76.241 140.94C75.881 140.833 75.5677 140.727 75.301 140.62C75.0477 140.5 74.8477 140.4 74.701 140.32L75.281 138.72C75.5877 138.893 76.0543 139.087 76.681 139.3C77.3077 139.513 78.0743 139.62 78.981 139.62ZM88.1455 141H86.2855V130.6H88.1455V141ZM87.2055 128.72C86.8722 128.72 86.5855 128.613 86.3455 128.4C86.1189 128.173 86.0055 127.873 86.0055 127.5C86.0055 127.127 86.1189 126.833 86.3455 126.62C86.5855 126.393 86.8722 126.28 87.2055 126.28C87.5389 126.28 87.8189 126.393 88.0455 126.62C88.2855 126.833 88.4055 127.127 88.4055 127.5C88.4055 127.873 88.2855 128.173 88.0455 128.4C87.8189 128.613 87.5389 128.72 87.2055 128.72ZM98.2441 132C97.9641 132.307 97.5908 132.74 97.1241 133.3C96.6708 133.86 96.1775 134.48 95.6441 135.16C95.1241 135.84 94.5975 136.553 94.0641 137.3C93.5441 138.047 93.0841 138.76 92.6841 139.44H98.4041V141H90.4641V139.76C90.7841 139.173 91.1775 138.527 91.6441 137.82C92.1108 137.113 92.5975 136.413 93.1041 135.72C93.6241 135.013 94.1241 134.353 94.6041 133.74C95.0975 133.113 95.5241 132.587 95.8841 132.16H90.7441V130.6H98.2441V132ZM99.8071 135.82C99.8071 134.9 99.9404 134.1 100.207 133.42C100.474 132.727 100.827 132.153 101.267 131.7C101.707 131.247 102.214 130.907 102.787 130.68C103.36 130.453 103.947 130.34 104.547 130.34C105.947 130.34 107.02 130.78 107.767 131.66C108.514 132.527 108.887 133.853 108.887 135.64C108.887 135.72 108.887 135.827 108.887 135.96C108.887 136.08 108.88 136.193 108.867 136.3H101.747C101.827 137.38 102.14 138.2 102.687 138.76C103.234 139.32 104.087 139.6 105.247 139.6C105.9 139.6 106.447 139.547 106.887 139.44C107.34 139.32 107.68 139.207 107.907 139.1L108.167 140.66C107.94 140.78 107.54 140.907 106.967 141.04C106.407 141.173 105.767 141.24 105.047 141.24C104.14 141.24 103.354 141.107 102.687 140.84C102.034 140.56 101.494 140.18 101.067 139.7C100.64 139.22 100.32 138.653 100.107 138C99.9071 137.333 99.8071 136.607 99.8071 135.82ZM106.947 134.8C106.96 133.96 106.747 133.273 106.307 132.74C105.88 132.193 105.287 131.92 104.527 131.92C104.1 131.92 103.72 132.007 103.387 132.18C103.067 132.34 102.794 132.553 102.567 132.82C102.34 133.087 102.16 133.393 102.027 133.74C101.907 134.087 101.827 134.44 101.787 134.8H106.947Z" fill="black"/>
<defs>
<filter id="filter0_d_42_17" x="39" y="49" width="113" height="154" filterUnits="userSpaceOnUse" color-interpolation-filters="sRGB">
<feFlood flood-opacity="0" result="BackgroundImageFix"/>
<feColorMatrix in="SourceAlpha" type="matrix" values="0 0 0 0 0 0 0 0 0 0 0 0 0 0 0 0 0 0 127 0" result="hardAlpha"/>
<feOffset dx="4" dy="4"/>
<feGaussianBlur stdDeviation="2"/>
<feComposite in2="hardAlpha" operator="out"/>
<feColorMatrix type="matrix" values="0 0 0 0 0 0 0 0 0 0 0 0 0 0 0 0 0 0 0.25 0"/>
<feBlend mode="normal" in2="BackgroundImageFix" result="effect1_dropShadow_42_17"/>
<feBlend mode="normal" in="SourceGraphic" in2="effect1_dropShadow_42_17" result="shape"/>
</filter>
</defs>
</svg>
