<svg width="27" height="50" viewBox="0 0 27 50" fill="none" xmlns="http://www.w3.org/2000/svg">
<path d="M25.4226 13.089C25.4226 13.872 25.2409 15.0338 24.8874 16.5189C24.5378 17.9875 24.035 19.7129 23.4259 21.5987C22.208 25.3695 20.5803 29.7356 18.9475 33.8895C17.3155 38.0409 15.683 41.9685 14.4581 44.859C14.0266 45.8772 13.6458 46.7664 13.3336 47.491C13.0215 46.7664 12.6407 45.8772 12.2092 44.859C10.9843 41.9685 9.35173 38.0409 7.7198 33.8895C6.08692 29.7356 4.45929 25.3695 3.24138 21.5987C2.6323 19.7129 2.12948 17.9875 1.77986 16.5189C1.42633 15.0338 1.24463 13.872 1.24463 13.089C1.24463 6.41243 6.65706 1 13.3336 1C20.0102 1 25.4226 6.41243 25.4226 13.089Z" stroke="white" stroke-width="2"/>
<circle cx="13.2446" cy="15" r="5" fill="white"/>
</svg>
