<svg width="27" height="51" viewBox="0 0 27 51" fill="none" xmlns="http://www.w3.org/2000/svg">
<path d="M25.2447 13.589C25.2447 14.372 25.063 15.5338 24.7094 17.0189C24.3598 18.4875 23.857 20.2129 23.2479 22.0987C22.03 25.8695 20.4024 30.2356 18.7695 34.3895C17.1376 38.5409 15.505 42.4685 14.2801 45.359C13.8486 46.3772 13.4678 47.2664 13.1557 47.991C12.8435 47.2664 12.4627 46.3772 12.0312 45.359C10.8063 42.4685 9.17375 38.5409 7.54183 34.3895C5.90894 30.2356 4.28131 25.8695 3.0634 22.0987C2.45433 20.2129 1.9515 18.4875 1.60188 17.0189C1.24836 15.5338 1.06665 14.372 1.06665 13.589C1.06665 6.91243 6.47908 1.5 13.1557 1.5C19.8322 1.5 25.2447 6.91243 25.2447 13.589Z" stroke="#613AD3" stroke-width="2"/>
<circle cx="13.0667" cy="15.5" r="5" fill="#613AD3"/>
</svg>
