<svg width="63" height="61" viewBox="0 0 63 61" fill="none" xmlns="http://www.w3.org/2000/svg">
<circle cx="23.424" cy="34.5136" r="23.424" fill="#2E46CE" fill-opacity="0.16"/>
<circle cx="33.9648" cy="25.144" r="23.424" fill="#2E46CE" fill-opacity="0.16"/>
<path d="M46.99 34.5491L48.4687 30.1127H54.0881V23.606H48.4687L45.2154 15.6206L49.0603 11.48L44.3281 6.74785L40.1875 10.5927L32.4978 7.04361V1.71997H25.3997V7.04361L17.71 10.5927L13.5694 6.74785L8.83723 11.48L12.9778 15.6206L9.42875 23.606H3.5136V30.1127H8.83723L12.9778 38.0982L8.83723 41.943L13.5694 46.3794L17.71 43.126L25.3997 46.3794V51.703H32.4978V46.3794L36.0469 45.1963" stroke="black" stroke-width="1.5"/>
<path d="M23.8881 28.1935C24.2786 28.584 24.9118 28.584 25.3023 28.1935C25.6928 27.803 25.6928 27.1698 25.3023 26.7793L23.8881 28.1935ZM25.3023 26.7793L19.4463 20.9233L18.0321 22.3375L23.8881 28.1935L25.3023 26.7793Z" fill="#2E46CE"/>
<path d="M28.7719 23.9573C29.1464 24.3633 29.779 24.3888 30.185 24.0144C30.591 23.6399 30.6165 23.0073 30.2421 22.6013L28.7719 23.9573ZM30.2421 22.6013L24.287 16.1448L22.8168 17.5007L28.7719 23.9573L30.2421 22.6013Z" fill="#2E46CE"/>
<path d="M23.0336 17.9867C24.2166 16.8037 26.5514 15.9164 28.9487 15.9164C34.8291 15.9164 39.596 20.6833 39.596 26.5637C39.596 27.8823 39.3563 29.1449 38.9181 30.3104C38.5934 31.1738 38.7345 32.1762 39.4115 32.8027L60.5133 52.3295C61.3592 53.1123 61.3702 54.4461 60.5374 55.2428L56.76 58.8559C55.945 59.6355 54.6469 59.5874 53.8919 58.7496L34.7474 37.5071C34.1233 36.8146 33.1107 36.6838 32.2107 36.9271C31.2192 37.1952 30.2085 37.2109 28.9487 37.2109C23.0684 37.2109 18.3015 32.444 18.3015 26.5637C18.3015 24.3015 18.3015 22.1273 19.7803 20.9443" stroke="#2E46CE" stroke-width="2"/>
<path d="M49.9475 48.1539L52.7572 50.9636L55.5669 53.7733" stroke="#2E46CE" stroke-linecap="round"/>
</svg>
