<svg width="16" height="15" viewBox="0 0 16 15" fill="none" xmlns="http://www.w3.org/2000/svg">
<circle cx="8.00008" cy="7.50008" r="7.50008" fill="#FB2E86"/>
<path d="M11.2797 5.72215C11.2756 5.4192 11.2189 5.11925 11.1121 4.83574C11.0194 4.5966 10.8779 4.37942 10.6965 4.19807C10.5152 4.01672 10.298 3.87519 10.0589 3.78253C9.779 3.67747 9.48333 3.62067 9.18446 3.61453C8.79965 3.59733 8.67765 3.59253 7.70084 3.59253C6.72404 3.59253 6.59883 3.59253 6.21683 3.61453C5.91809 3.62071 5.62256 3.67752 5.34282 3.78253C5.10364 3.87513 4.88643 4.01663 4.70507 4.19799C4.52371 4.37935 4.38221 4.59656 4.28961 4.83574C4.18434 5.1154 4.12766 5.41099 4.12201 5.70975C4.10481 6.09495 4.09961 6.21696 4.09961 7.19377C4.09961 8.17057 4.09961 8.29538 4.12201 8.67778C4.12801 8.97698 4.18441 9.27219 4.28961 9.55259C4.38236 9.7917 4.52397 10.0088 4.70539 10.1901C4.88681 10.3714 5.10404 10.5128 5.34322 10.6054C5.6222 10.7147 5.91778 10.7756 6.21723 10.7854C6.60243 10.8026 6.72444 10.8078 7.70124 10.8078C8.67805 10.8078 8.80326 10.8078 9.18526 10.7854C9.48412 10.7795 9.77981 10.7228 10.0597 10.6178C10.2987 10.525 10.5159 10.3835 10.6972 10.2021C10.8785 10.0208 11.0201 9.80367 11.1129 9.56459C11.2181 9.28459 11.2745 8.98938 11.2805 8.68978C11.2977 8.30498 11.3029 8.18297 11.3029 7.20577C11.3021 6.22896 11.3021 6.10495 11.2797 5.72215ZM7.69844 9.04098C6.67683 9.04098 5.84923 8.21338 5.84923 7.19177C5.84923 6.17016 6.67683 5.34255 7.69844 5.34255C8.18889 5.34255 8.65924 5.53737 9.00604 5.88417C9.35283 6.23097 9.54766 6.70132 9.54766 7.19177C9.54766 7.68221 9.35283 8.15256 9.00604 8.49936C8.65924 8.84616 8.18889 9.04098 7.69844 9.04098ZM9.62126 5.70535C9.38246 5.70535 9.19006 5.51255 9.19006 5.27415C9.19006 5.21755 9.20121 5.1615 9.22287 5.10921C9.24453 5.05692 9.27628 5.0094 9.3163 4.96938C9.35632 4.92936 9.40383 4.89761 9.45612 4.87595C9.50842 4.85429 9.56446 4.84314 9.62106 4.84314C9.67766 4.84314 9.73371 4.85429 9.786 4.87595C9.83829 4.89761 9.88581 4.92936 9.92583 4.96938C9.96585 5.0094 9.9976 5.05692 10.0193 5.10921C10.0409 5.1615 10.0521 5.21755 10.0521 5.27415C10.0521 5.51255 9.85927 5.70535 9.62126 5.70535Z" fill="white"/>
<path d="M7.69731 8.39278C8.36072 8.39278 8.89852 7.85498 8.89852 7.19157C8.89852 6.52816 8.36072 5.99036 7.69731 5.99036C7.03389 5.99036 6.49609 6.52816 6.49609 7.19157C6.49609 7.85498 7.03389 8.39278 7.69731 8.39278Z" fill="white"/>
</svg>
