<svg width="586" height="528" viewBox="0 0 586 528" fill="none" xmlns="http://www.w3.org/2000/svg">
<path opacity="0.3" d="M406.267 55.927C406.543 55.9678 406.824 55.9426 407.088 55.8536C407.353 55.7646 407.592 55.6142 407.789 55.4145C407.985 55.2148 408.132 54.9714 408.218 54.7038C408.305 54.4361 408.328 54.1518 408.285 53.8736C408.243 53.5954 408.137 53.3312 407.975 53.102C407.814 52.8728 407.601 52.6852 407.354 52.5541C407.108 52.423 406.835 52.3522 406.556 52.3474C406.278 52.3425 406.002 52.4037 405.751 52.5261L399.002 53.5878L398.807 52.2922L405.555 51.2305C405.898 51.0631 406.179 50.7888 406.357 50.448C406.534 50.1072 406.599 49.7178 406.541 49.3371C406.483 48.9565 406.306 48.6046 406.036 48.3332C405.765 48.0618 405.416 47.8853 405.039 47.8296L398.272 48.9092L396.83 39.4982L376.567 21L111.128 514.045L131.463 527.937L463.978 475.573L460.274 451.461L467.023 450.399C467.3 450.444 467.584 450.423 467.852 450.336C468.119 450.25 468.362 450.1 468.562 449.9C468.761 449.7 468.911 449.455 468.999 449.186C469.087 448.916 469.11 448.629 469.068 448.348C469.025 448.068 468.917 447.801 468.753 447.571C468.588 447.341 468.373 447.153 468.123 447.023C467.873 446.893 467.596 446.824 467.315 446.823C467.034 446.822 466.757 446.888 466.506 447.016L459.74 448.078L459.544 446.764L466.31 445.702C466.53 445.67 466.74 445.593 466.93 445.477C467.12 445.361 467.285 445.209 467.416 445.028C467.547 444.847 467.641 444.642 467.692 444.424C467.744 444.206 467.752 443.98 467.717 443.759C467.63 443.317 467.383 442.924 467.024 442.658C466.664 442.391 466.219 442.27 465.776 442.32L459.027 443.381L457.069 430.695L463.835 429.633C464.164 429.464 464.432 429.196 464.604 428.866C464.775 428.537 464.841 428.161 464.792 427.792C464.743 427.422 464.582 427.078 464.331 426.805C464.08 426.532 463.751 426.345 463.39 426.269L456.641 427.33L456.446 426.035L463.194 424.973C463.537 424.806 463.818 424.531 463.996 424.19C464.173 423.85 464.238 423.46 464.18 423.08C464.122 422.699 463.945 422.347 463.675 422.076C463.404 421.804 463.055 421.628 462.678 421.572L455.911 422.634L453.97 410.038L460.719 408.958C460.939 408.927 461.151 408.852 461.342 408.737C461.533 408.622 461.699 408.469 461.831 408.288C461.962 408.107 462.056 407.9 462.106 407.682C462.157 407.463 462.164 407.236 462.126 407.015C462.04 406.576 461.795 406.186 461.439 405.92C461.084 405.654 460.643 405.531 460.203 405.575L453.436 406.637L453.24 405.341L459.989 404.279C460.332 404.112 460.613 403.838 460.791 403.497C460.968 403.156 461.033 402.767 460.975 402.386C460.917 402.005 460.74 401.654 460.47 401.382C460.199 401.111 459.85 400.934 459.473 400.879L452.724 401.94L450.765 389.344L457.514 388.283C457.857 388.115 458.138 387.841 458.316 387.5C458.493 387.159 458.558 386.77 458.5 386.389C458.442 386.008 458.265 385.657 457.994 385.385C457.724 385.114 457.375 384.937 456.998 384.882L450.249 385.943L450.035 384.648L456.802 383.586C457.236 383.495 457.62 383.243 457.881 382.88C458.141 382.518 458.258 382.07 458.208 381.625C458.178 381.402 458.104 381.188 457.99 380.995C457.876 380.802 457.725 380.634 457.545 380.501C457.366 380.369 457.162 380.274 456.945 380.223C456.729 380.171 456.504 380.165 456.285 380.203L449.519 381.265L447.578 368.669L454.327 367.607C454.761 367.516 455.145 367.264 455.405 366.901C455.666 366.539 455.783 366.091 455.733 365.646C455.703 365.423 455.629 365.209 455.515 365.016C455.401 364.823 455.25 364.655 455.07 364.522C454.891 364.39 454.687 364.295 454.47 364.244C454.254 364.192 454.029 364.186 453.81 364.224L447.044 365.286L446.848 363.972L453.597 362.91C453.874 362.956 454.158 362.934 454.426 362.848C454.693 362.761 454.937 362.612 455.136 362.412C455.335 362.212 455.485 361.967 455.573 361.697C455.661 361.427 455.685 361.141 455.642 360.86C455.599 360.579 455.491 360.313 455.327 360.083C455.162 359.852 454.947 359.664 454.697 359.534C454.447 359.404 454.17 359.336 453.889 359.335C453.608 359.334 453.331 359.4 453.08 359.528L446.332 360.589L444.373 347.903L451.121 346.841C451.399 346.887 451.683 346.866 451.95 346.779C452.218 346.692 452.461 346.543 452.661 346.343C452.86 346.143 453.01 345.898 453.098 345.628C453.186 345.359 453.209 345.072 453.167 344.791C453.124 344.51 453.016 344.244 452.852 344.014C452.687 343.783 452.472 343.595 452.222 343.465C451.972 343.335 451.695 343.267 451.414 343.266C451.133 343.265 450.856 343.331 450.605 343.459L443.857 344.52L443.643 343.207L450.409 342.145C450.687 342.188 450.97 342.165 451.237 342.076C451.503 341.988 451.745 341.837 451.943 341.636C452.141 341.435 452.289 341.189 452.375 340.92C452.462 340.65 452.484 340.363 452.439 340.083C452.395 339.803 452.286 339.538 452.121 339.308C451.956 339.079 451.74 338.892 451.49 338.763C451.24 338.635 450.963 338.567 450.683 338.567C450.402 338.567 450.125 338.634 449.875 338.762L443.126 339.824L441.168 327.138L447.934 326.076C448.211 326.119 448.495 326.096 448.762 326.007C449.028 325.919 449.27 325.768 449.468 325.567C449.666 325.366 449.814 325.12 449.9 324.851C449.987 324.581 450.009 324.294 449.964 324.014C449.92 323.734 449.811 323.469 449.646 323.239C449.481 323.01 449.265 322.823 449.015 322.695C448.765 322.566 448.488 322.499 448.207 322.498C447.927 322.498 447.65 322.565 447.4 322.693L440.651 323.755L440.456 322.441L447.204 321.38C447.638 321.292 448.024 321.045 448.288 320.686C448.551 320.326 448.673 319.881 448.629 319.436C448.542 318.994 448.295 318.601 447.935 318.335C447.576 318.068 447.131 317.947 446.688 317.997L439.921 319.058L437.98 306.462L444.729 305.401C445.163 305.313 445.549 305.066 445.813 304.707C446.076 304.347 446.197 303.902 446.154 303.457C446.067 303.015 445.82 302.622 445.46 302.356C445.101 302.089 444.656 301.969 444.213 302.018L437.464 303.079L437.25 301.784L444.017 300.722C444.36 300.553 444.641 300.278 444.818 299.935C444.994 299.593 445.057 299.203 444.997 298.821C444.937 298.44 444.758 298.089 444.485 297.819C444.212 297.548 443.861 297.374 443.483 297.321L436.734 298.383L434.775 285.787L441.542 284.725C441.885 284.556 442.166 284.281 442.342 283.938C442.519 283.596 442.582 283.206 442.522 282.824C442.462 282.443 442.283 282.092 442.01 281.822C441.737 281.551 441.386 281.377 441.008 281.324L434.259 282.386L434.063 281.09L440.812 280.029C441.155 279.861 441.436 279.587 441.613 279.246C441.791 278.905 441.855 278.516 441.798 278.135C441.74 277.755 441.563 277.403 441.292 277.131C441.022 276.86 440.672 276.683 440.295 276.628L433.529 277.707L431.588 265.111L438.337 264.05C438.68 263.882 438.961 263.608 439.138 263.267C439.316 262.926 439.38 262.537 439.322 262.156C439.265 261.776 439.088 261.424 438.817 261.152C438.547 260.881 438.197 260.704 437.82 260.649L431.054 261.71L430.858 260.415L437.607 259.353C437.884 259.399 438.168 259.377 438.435 259.29C438.703 259.204 438.947 259.054 439.146 258.854C439.345 258.654 439.495 258.409 439.583 258.14C439.671 257.87 439.694 257.583 439.652 257.303C439.609 257.022 439.501 256.755 439.337 256.525C439.172 256.295 438.957 256.107 438.707 255.977C438.457 255.847 438.18 255.779 437.899 255.777C437.618 255.776 437.341 255.842 437.09 255.97L430.342 257.032L428.383 244.346L435.131 243.284C435.409 243.33 435.693 243.308 435.96 243.221C436.228 243.135 436.471 242.985 436.671 242.785C436.87 242.585 437.02 242.34 437.108 242.071C437.196 241.801 437.219 241.514 437.177 241.234C437.134 240.953 437.026 240.687 436.862 240.456C436.697 240.226 436.482 240.038 436.232 239.908C435.982 239.778 435.705 239.71 435.424 239.708C435.143 239.707 434.866 239.773 434.615 239.901L427.866 240.963L427.671 239.649L434.419 238.588C434.755 238.416 435.029 238.142 435.201 237.804C435.373 237.466 435.435 237.082 435.377 236.706C435.32 236.331 435.146 235.983 434.882 235.713C434.617 235.444 434.274 235.266 433.903 235.205L427.136 236.266L425.196 223.67L431.944 222.609C432.28 222.438 432.554 222.163 432.726 221.825C432.898 221.487 432.96 221.103 432.902 220.728C432.845 220.352 432.671 220.004 432.406 219.734C432.142 219.465 431.799 219.287 431.428 219.226L424.661 220.287L424.466 218.974L431.214 217.912C431.648 217.825 432.034 217.578 432.298 217.218C432.561 216.859 432.682 216.414 432.639 215.969C432.552 215.527 432.305 215.134 431.945 214.867C431.586 214.601 431.141 214.48 430.698 214.529L423.949 215.591L421.99 202.905L428.739 201.843C429.016 201.889 429.3 201.867 429.568 201.78C429.836 201.694 430.079 201.544 430.278 201.344C430.478 201.144 430.628 200.899 430.716 200.63C430.803 200.36 430.827 200.073 430.784 199.793C430.741 199.512 430.633 199.246 430.469 199.015C430.305 198.785 430.089 198.597 429.839 198.467C429.589 198.337 429.313 198.269 429.032 198.268C428.751 198.266 428.474 198.332 428.223 198.46L421.474 199.522L421.26 198.226L428.027 197.165C428.37 196.996 428.651 196.72 428.827 196.378C429.004 196.036 429.067 195.645 429.007 195.264C428.947 194.883 428.768 194.531 428.495 194.261C428.222 193.991 427.871 193.817 427.493 193.764L420.744 194.825L418.785 182.229L425.552 181.15C425.887 180.979 426.161 180.704 426.333 180.366C426.505 180.028 426.567 179.644 426.51 179.269C426.452 178.893 426.279 178.545 426.014 178.275C425.749 178.006 425.407 177.828 425.035 177.767L418.269 178.828L418.073 177.533L424.822 176.471C425.165 176.304 425.446 176.029 425.623 175.689C425.801 175.348 425.865 174.958 425.807 174.578C425.75 174.197 425.573 173.845 425.302 173.574C425.032 173.302 424.682 173.126 424.305 173.07L417.557 174.132L415.598 161.536L422.347 160.474C422.622 160.515 422.903 160.49 423.167 160.401C423.432 160.312 423.672 160.161 423.868 159.962C424.064 159.762 424.211 159.518 424.297 159.251C424.384 158.983 424.407 158.699 424.364 158.421C424.322 158.143 424.216 157.878 424.054 157.649C423.893 157.42 423.68 157.232 423.433 157.101C423.187 156.97 422.914 156.899 422.635 156.895C422.357 156.89 422.081 156.951 421.83 157.073L415.082 158.135L414.868 156.839L421.634 155.778C421.912 155.821 422.195 155.797 422.462 155.709C422.728 155.62 422.97 155.469 423.168 155.268C423.366 155.067 423.514 154.822 423.601 154.552C423.687 154.282 423.709 153.996 423.664 153.716C423.62 153.436 423.511 153.17 423.346 152.941C423.181 152.712 422.965 152.525 422.715 152.396C422.465 152.267 422.188 152.2 421.908 152.2C421.627 152.2 421.35 152.266 421.1 152.395L414.352 153.456L412.393 140.86L419.159 139.799C419.495 139.626 419.769 139.351 419.94 139.011C420.111 138.672 420.171 138.287 420.112 137.91C420.052 137.534 419.876 137.187 419.609 136.918C419.342 136.65 418.997 136.474 418.625 136.416L411.876 137.477L411.681 136.164L418.429 135.102C418.707 135.148 418.991 135.126 419.258 135.039C419.526 134.953 419.769 134.803 419.969 134.603C420.168 134.403 420.318 134.158 420.406 133.889C420.494 133.619 420.517 133.332 420.474 133.052C420.431 132.771 420.323 132.505 420.159 132.274C419.995 132.044 419.779 131.856 419.529 131.726C419.28 131.596 419.003 131.528 418.722 131.527C418.441 131.525 418.164 131.591 417.913 131.719L411.146 132.781L409.206 120.095L415.954 119.033C416.231 119.079 416.515 119.057 416.783 118.971C417.051 118.884 417.294 118.734 417.494 118.534C417.693 118.334 417.843 118.09 417.931 117.82C418.019 117.55 418.042 117.263 417.999 116.983C417.956 116.702 417.848 116.436 417.684 116.205C417.52 115.975 417.304 115.787 417.054 115.657C416.804 115.527 416.528 115.459 416.247 115.458C415.966 115.456 415.689 115.522 415.438 115.65L408.671 116.712L408.475 115.398L415.242 114.337C415.578 114.164 415.851 113.889 416.022 113.549C416.193 113.21 416.254 112.825 416.194 112.449C416.135 112.072 415.959 111.725 415.692 111.456C415.425 111.188 415.08 111.012 414.708 110.954L407.959 112.015L406 99.3294L412.767 98.2677C413.103 98.0953 413.376 97.8197 413.547 97.4804C413.718 97.1411 413.779 96.7556 413.719 96.3796C413.66 96.0035 413.484 95.6561 413.217 95.3875C412.95 95.1189 412.605 94.9429 412.233 94.8848L405.484 95.9464L405.288 94.6328L412.037 93.5712C412.471 93.484 412.857 93.2366 413.12 92.8774C413.384 92.5181 413.505 92.0727 413.461 91.6278C413.375 91.1859 413.127 90.7928 412.768 90.5263C412.409 90.2598 411.963 90.1391 411.52 90.1882L404.754 91.2499L402.813 78.5639L409.562 77.5022C409.996 77.415 410.382 77.1677 410.645 76.8084C410.908 76.4492 411.03 76.0037 410.986 75.5589C410.9 75.117 410.652 74.7239 410.293 74.4574C409.934 74.1908 409.488 74.0702 409.045 74.1193L402.279 75.181L402.083 73.8854L408.832 72.8237C409.175 72.6563 409.456 72.382 409.633 72.0412C409.811 71.7004 409.875 71.311 409.817 70.9303C409.76 70.5497 409.582 70.1978 409.312 69.9264C409.042 69.6551 408.692 69.4785 408.315 69.4228L401.567 70.4844L399.608 57.8884L406.267 55.927Z" fill="black"/>
<path d="M121.865 518.741L430.181 470.265L361.378 23.3752L53.0437 71.96C51.1741 72.2539 49.38 72.9171 47.764 73.9118C46.1481 74.9065 44.7419 76.2132 43.6257 77.7572C42.5096 79.3012 41.7054 81.0523 41.259 82.9104C40.8127 84.7686 40.733 86.6974 41.0245 88.5867L105.483 506.595C106.067 510.399 108.119 513.813 111.19 516.09C114.261 518.367 118.1 519.32 121.865 518.741Z" fill="#263238" stroke="#263238" stroke-miterlimit="10" stroke-linecap="round"/>
<path d="M127.591 503.121L109.997 505.889C108.76 506.084 107.498 505.774 106.487 505.028C105.476 504.282 104.801 503.161 104.608 501.911L98.4169 461.728C98.2243 460.478 98.5309 459.203 99.2691 458.181C100.007 457.16 101.117 456.477 102.353 456.283L119.948 453.514L127.591 503.121Z" fill="white" stroke="#263238" stroke-miterlimit="10" stroke-linecap="round"/>
<path d="M119.571 450.975L101.977 453.743C100.74 453.938 99.4778 453.628 98.4673 452.882C97.4567 452.136 96.7808 451.015 96.5883 449.765L90.3971 409.582C90.2046 408.332 90.5111 407.056 91.2494 406.035C91.9876 405.014 93.0971 404.331 94.3336 404.137L111.928 401.368L119.571 450.975Z" fill="#2E46CE" stroke="#263238" stroke-miterlimit="10" stroke-linecap="round"/>
<path d="M111.521 398.74L93.9262 401.508C92.6896 401.703 91.4272 401.393 90.4167 400.647C89.4062 399.901 88.7303 398.78 88.5378 397.53L82.3466 357.347C82.154 356.098 82.4606 354.822 83.1989 353.801C83.9371 352.779 85.0465 352.096 86.2831 351.902L103.877 349.133L111.521 398.74Z" fill="white" stroke="#263238" stroke-miterlimit="10" stroke-linecap="round"/>
<path d="M103.504 346.612L85.9096 349.38C84.673 349.575 83.4106 349.265 82.4001 348.519C81.3896 347.773 80.7137 346.652 80.5211 345.402L74.3299 305.219C74.1374 303.969 74.444 302.694 75.1822 301.672C75.9205 300.651 77.0299 299.968 78.2665 299.774L95.8608 297.005L103.504 346.612Z" fill="#2E46CE" stroke="#263238" stroke-miterlimit="10" stroke-linecap="round"/>
<path d="M70.2986 247.621L80.8221 245.965L53.988 71.7799L376.567 21.0538L445.37 467.925L122.809 518.597L88.461 295.576L77.9375 297.231C76.7077 297.417 75.455 297.103 74.4538 296.358C73.4526 295.612 72.7845 294.496 72.5956 293.254L66.31 253.073C66.2141 252.45 66.2415 251.814 66.3905 251.201C66.5396 250.589 66.8073 250.013 67.1782 249.505C67.5492 248.998 68.016 248.571 68.5516 248.247C69.0872 247.924 69.681 247.711 70.2986 247.621Z" fill="white" stroke="#263238" stroke-miterlimit="10" stroke-linecap="round"/>
<path d="M104.789 166.934L105.858 191.352L226.228 171.504L223.077 151.063L104.789 166.934Z" fill="#2E46CE"/>
<path d="M358.636 48.3874C358.814 49.6383 359.356 50.8075 360.193 51.7462C361.03 52.6849 362.125 53.3507 363.338 53.6589C364.551 53.9671 365.827 53.9038 367.004 53.477C368.181 53.0501 369.206 52.2791 369.948 51.2621C370.69 50.245 371.116 49.0278 371.172 47.7653C371.228 46.5027 370.911 45.252 370.261 44.1721C369.611 43.0923 368.659 42.2321 367.524 41.701C366.389 41.1699 365.124 40.9919 363.888 41.1897C362.253 41.4516 360.785 42.3535 359.802 43.7004C358.819 45.0472 358.4 46.7309 358.636 48.3874Z" fill="#263238" stroke="#263238" stroke-miterlimit="10" stroke-linecap="round"/>
<path d="M365.455 46.4082L384.294 43.4391C384.728 43.3478 385.113 43.0962 385.373 42.7334C385.634 42.3707 385.75 41.923 385.701 41.4777C385.611 41.0392 385.362 40.6504 385.003 40.3875C384.644 40.1246 384.201 40.0064 383.76 40.0562L364.992 42.9893C364.555 43.0767 364.166 43.3266 363.903 43.6898C363.639 44.0529 363.519 44.5028 363.568 44.9506C363.65 45.3857 363.888 45.775 364.236 46.0439C364.584 46.3129 365.018 46.4426 365.455 46.4082Z" fill="white" stroke="#263238" stroke-miterlimit="10" stroke-linecap="round"/>
<path d="M366.239 51.0865L385.042 48.1354C385.48 48.048 385.869 47.798 386.132 47.4349C386.396 47.0717 386.516 46.6218 386.467 46.174C386.38 45.7321 386.133 45.3391 385.774 45.0725C385.414 44.806 384.969 44.6854 384.526 44.7345L365.687 47.7035C365.253 47.7948 364.868 48.0465 364.608 48.4092C364.348 48.772 364.231 49.2197 364.28 49.6649C364.371 50.107 364.622 50.4985 364.985 50.7618C365.348 51.0251 365.796 51.141 366.239 51.0865Z" fill="white" stroke="#263238" stroke-miterlimit="10" stroke-linecap="round"/>
<path d="M361.895 69.1348C362.069 70.383 362.607 71.5506 363.439 72.4899C364.27 73.4292 365.359 74.098 366.567 74.4117C367.776 74.7253 369.049 74.6696 370.226 74.2517C371.402 73.8338 372.43 73.0724 373.178 72.064C373.927 71.0555 374.362 69.8453 374.43 68.5866C374.497 67.3279 374.194 66.0773 373.558 64.993C372.921 63.9087 371.981 63.0396 370.856 62.4956C369.731 61.9517 368.471 61.7573 367.236 61.9371C365.584 62.1777 364.094 63.0706 363.093 64.42C362.092 65.7693 361.661 67.4649 361.895 69.1348Z" fill="#263238" stroke="#263238" stroke-miterlimit="10" stroke-linecap="round"/>
<path d="M368.714 67.1553L387.535 64.2043C387.972 64.1168 388.361 63.8669 388.625 63.5037C388.889 63.1406 389.008 62.6907 388.96 62.2429C388.873 61.801 388.626 61.4079 388.266 61.1414C387.907 60.8749 387.462 60.7542 387.019 60.8033L368.18 63.7724C367.746 63.8637 367.361 64.1154 367.101 64.4781C366.841 64.8408 366.724 65.2886 366.773 65.7338C366.863 66.1724 367.112 66.5611 367.471 66.824C367.83 67.0869 368.273 67.2051 368.714 67.1553Z" fill="white" stroke="#263238" stroke-miterlimit="10" stroke-linecap="round"/>
<path d="M369.426 71.78L388.265 68.8289C388.699 68.7376 389.084 68.486 389.344 68.1232C389.604 67.7605 389.721 67.3127 389.672 66.8675C389.585 66.4256 389.338 66.0326 388.979 65.766C388.619 65.4995 388.174 65.3789 387.731 65.428L368.91 68.397C368.472 68.4844 368.083 68.7344 367.82 69.0976C367.556 69.4607 367.437 69.9106 367.485 70.3584C367.576 70.797 367.825 71.1857 368.184 71.4486C368.542 71.7115 368.986 71.8297 369.426 71.78Z" fill="white" stroke="#263238" stroke-miterlimit="10" stroke-linecap="round"/>
<path d="M365.028 89.9003C365.206 91.1512 365.748 92.3203 366.585 93.259C367.423 94.1977 368.517 94.8635 369.73 95.1717C370.943 95.4799 372.219 95.4165 373.396 94.9897C374.573 94.5629 375.598 93.792 376.34 92.7749C377.083 91.7578 377.509 90.5406 377.564 89.278C377.62 88.0155 377.303 86.7648 376.653 85.6849C376.004 84.605 375.051 83.7449 373.916 83.2138C372.781 82.6827 371.516 82.5047 370.281 82.7025C368.645 82.9644 367.177 83.8663 366.194 85.2131C365.211 86.56 364.792 88.2437 365.028 89.9003Z" fill="#263238" stroke="#263238" stroke-miterlimit="10" stroke-linecap="round"/>
<path d="M371.902 87.975L390.741 85.024C391.175 84.9327 391.559 84.681 391.82 84.3183C392.08 83.9555 392.197 83.5078 392.147 83.0626C392.061 82.6207 391.814 82.2276 391.454 81.9611C391.095 81.6946 390.65 81.5739 390.207 81.623L371.385 84.5921C370.948 84.6795 370.559 84.9295 370.295 85.2926C370.032 85.6558 369.912 86.1057 369.961 86.5535C370.051 86.9921 370.3 87.3808 370.659 87.6437C371.018 87.9066 371.461 88.0248 371.902 87.975Z" fill="white" stroke="#263238" stroke-miterlimit="10" stroke-linecap="round"/>
<path d="M372.578 92.6175L391.399 89.6484C391.833 89.5612 392.219 89.3139 392.482 88.9546C392.746 88.5954 392.867 88.1499 392.823 87.705C392.737 87.2631 392.489 86.8701 392.13 86.6035C391.771 86.337 391.326 86.2164 390.882 86.2655L372.061 89.2345C371.627 89.3218 371.241 89.5691 370.978 89.9283C370.714 90.2876 370.593 90.7331 370.637 91.1779C370.723 91.6198 370.971 92.0129 371.33 92.2794C371.689 92.546 372.134 92.6666 372.578 92.6175Z" fill="white" stroke="#263238" stroke-miterlimit="10" stroke-linecap="round"/>
<path d="M368.215 110.666C368.39 111.914 368.927 113.082 369.759 114.021C370.591 114.96 371.68 115.629 372.888 115.943C374.096 116.256 375.369 116.201 376.546 115.783C377.723 115.365 378.751 114.603 379.499 113.595C380.247 112.587 380.683 111.376 380.751 110.118C380.818 108.859 380.514 107.608 379.878 106.524C379.242 105.44 378.302 104.571 377.177 104.027C376.051 103.483 374.792 103.288 373.557 103.468C371.905 103.709 370.415 104.602 369.414 105.951C368.412 107.3 367.981 108.996 368.215 110.666Z" fill="#263238" stroke="#263238" stroke-miterlimit="10" stroke-linecap="round"/>
<path d="M375.107 108.686L393.946 105.717C394.38 105.63 394.766 105.383 395.029 105.023C395.293 104.664 395.414 104.219 395.37 103.774C395.284 103.332 395.036 102.939 394.677 102.672C394.318 102.406 393.872 102.285 393.429 102.334L374.59 105.303C374.371 105.336 374.16 105.413 373.971 105.529C373.781 105.644 373.616 105.797 373.485 105.978C373.354 106.159 373.26 106.364 373.208 106.582C373.157 106.8 373.148 107.026 373.184 107.247C373.27 107.685 373.515 108.076 373.87 108.342C374.226 108.608 374.666 108.731 375.107 108.686Z" fill="white" stroke="#263238" stroke-miterlimit="10" stroke-linecap="round"/>
<path d="M375.818 113.383L394.657 110.414C394.878 110.381 395.091 110.304 395.282 110.187C395.473 110.07 395.639 109.916 395.77 109.733C395.901 109.55 395.994 109.343 396.045 109.123C396.095 108.903 396.102 108.675 396.064 108.452C396.031 108.231 395.956 108.018 395.841 107.826C395.726 107.635 395.575 107.468 395.396 107.335C395.218 107.203 395.014 107.108 394.799 107.056C394.583 107.004 394.36 106.995 394.141 107.031L375.302 109.982C374.868 110.073 374.483 110.325 374.223 110.688C373.963 111.05 373.846 111.498 373.895 111.943C373.981 112.382 374.226 112.772 374.582 113.038C374.937 113.304 375.378 113.427 375.818 113.383Z" fill="white" stroke="#263238" stroke-miterlimit="10" stroke-linecap="round"/>
<path d="M371.42 131.431C371.598 132.682 372.14 133.852 372.978 134.79C373.815 135.729 374.91 136.395 376.122 136.703C377.335 137.011 378.611 136.948 379.788 136.521C380.966 136.094 381.99 135.323 382.733 134.306C383.475 133.289 383.901 132.072 383.957 130.809C384.013 129.547 383.695 128.296 383.046 127.216C382.396 126.136 381.443 125.276 380.309 124.745C379.174 124.214 377.908 124.036 376.673 124.234C375.038 124.496 373.57 125.398 372.587 126.744C371.604 128.091 371.185 129.775 371.42 131.431Z" fill="#263238" stroke="#263238" stroke-miterlimit="10" stroke-linecap="round"/>
<path d="M378.294 129.452L397.133 126.483C397.567 126.391 397.952 126.14 398.212 125.777C398.472 125.414 398.589 124.967 398.54 124.521C398.507 124.3 398.431 124.087 398.317 123.895C398.202 123.703 398.051 123.537 397.872 123.404C397.693 123.272 397.49 123.177 397.275 123.125C397.059 123.073 396.835 123.064 396.617 123.1L377.778 126.051C377.344 126.142 376.959 126.394 376.699 126.757C376.439 127.119 376.322 127.567 376.371 128.012C376.457 128.451 376.702 128.841 377.057 129.107C377.413 129.373 377.854 129.496 378.294 129.452Z" fill="white" stroke="#263238" stroke-miterlimit="10" stroke-linecap="round"/>
<path d="M379.024 134.148L397.845 131.161C398.283 131.074 398.671 130.824 398.935 130.461C399.199 130.098 399.318 129.648 399.27 129.2C399.179 128.761 398.93 128.373 398.571 128.11C398.213 127.847 397.769 127.729 397.329 127.778L378.508 130.73C378.07 130.817 377.681 131.067 377.418 131.43C377.154 131.793 377.035 132.243 377.083 132.691C377.166 133.136 377.411 133.534 377.771 133.804C378.131 134.074 378.578 134.197 379.024 134.148Z" fill="white" stroke="#263238" stroke-miterlimit="10" stroke-linecap="round"/>
<path d="M374.608 152.197C374.8 153.438 375.35 154.594 376.19 155.52C377.03 156.446 378.122 157.101 379.329 157.401C380.536 157.702 381.804 157.635 382.973 157.209C384.143 156.783 385.162 156.017 385.902 155.008C386.641 153.998 387.069 152.79 387.132 151.536C387.194 150.281 386.888 149.036 386.252 147.956C385.616 146.877 384.678 146.012 383.557 145.47C382.436 144.928 381.181 144.733 379.95 144.909C379.123 145.028 378.328 145.311 377.611 145.743C376.894 146.175 376.268 146.746 375.771 147.424C375.274 148.102 374.915 148.873 374.716 149.693C374.516 150.512 374.48 151.363 374.608 152.197Z" fill="#263238" stroke="#263238" stroke-miterlimit="10" stroke-linecap="round"/>
<path d="M381.481 150.217L400.302 147.248C400.739 147.161 401.128 146.911 401.392 146.548C401.656 146.184 401.775 145.735 401.727 145.287C401.636 144.848 401.387 144.459 401.028 144.197C400.669 143.934 400.226 143.816 399.786 143.865L380.964 146.816C380.527 146.904 380.138 147.154 379.874 147.517C379.611 147.88 379.491 148.33 379.54 148.778C379.626 149.22 379.874 149.613 380.233 149.879C380.592 150.146 381.038 150.266 381.481 150.217Z" fill="white" stroke="#263238" stroke-miterlimit="10" stroke-linecap="round"/>
<path d="M382.229 154.896L401.068 151.945C401.505 151.857 401.894 151.607 402.158 151.244C402.422 150.881 402.541 150.431 402.492 149.983C402.406 149.542 402.159 149.149 401.799 148.882C401.44 148.615 400.995 148.495 400.551 148.544L381.712 151.513C381.278 151.604 380.894 151.856 380.634 152.219C380.373 152.581 380.256 153.029 380.306 153.474C380.396 153.91 380.642 154.296 380.997 154.558C381.352 154.821 381.791 154.941 382.229 154.896Z" fill="white" stroke="#263238" stroke-miterlimit="10" stroke-linecap="round"/>
<path d="M377.813 172.944C377.991 174.195 378.533 175.364 379.37 176.303C380.208 177.242 381.302 177.907 382.515 178.216C383.728 178.524 385.004 178.46 386.181 178.034C387.358 177.607 388.383 176.836 389.125 175.819C389.868 174.802 390.294 173.584 390.35 172.322C390.405 171.059 390.088 169.809 389.439 168.729C388.789 167.649 387.836 166.789 386.701 166.258C385.567 165.727 384.301 165.549 383.066 165.746C381.43 166.008 379.962 166.91 378.979 168.257C377.997 169.604 377.578 171.288 377.813 172.944Z" fill="#263238" stroke="#263238" stroke-miterlimit="10" stroke-linecap="round"/>
<path d="M384.687 170.965L403.526 168.014C403.963 167.926 404.352 167.676 404.616 167.313C404.879 166.95 404.999 166.5 404.95 166.052C404.86 165.614 404.611 165.225 404.252 164.962C403.893 164.699 403.45 164.581 403.009 164.631L384.17 167.582C383.736 167.673 383.351 167.925 383.091 168.287C382.831 168.65 382.714 169.098 382.763 169.543C382.794 169.766 382.868 169.98 382.982 170.173C383.096 170.366 383.247 170.534 383.426 170.667C383.606 170.799 383.81 170.894 384.026 170.945C384.243 170.996 384.467 171.003 384.687 170.965Z" fill="white" stroke="#263238" stroke-miterlimit="10" stroke-linecap="round"/>
<path d="M385.416 175.661L404.255 172.71C404.689 172.619 405.074 172.367 405.334 172.004C405.594 171.642 405.711 171.194 405.662 170.749C405.576 170.307 405.328 169.914 404.969 169.647C404.61 169.381 404.164 169.26 403.721 169.309L384.9 172.278C384.463 172.366 384.074 172.616 383.81 172.979C383.546 173.342 383.427 173.792 383.475 174.24C383.566 174.678 383.815 175.067 384.174 175.33C384.533 175.593 384.976 175.711 385.416 175.661Z" fill="white" stroke="#263238" stroke-miterlimit="10" stroke-linecap="round"/>
<path d="M381.018 193.71C381.196 194.961 381.738 196.13 382.575 197.068C383.412 198.007 384.507 198.673 385.72 198.981C386.933 199.289 388.209 199.226 389.386 198.799C390.563 198.372 391.588 197.601 392.33 196.584C393.072 195.567 393.499 194.35 393.554 193.088C393.61 191.825 393.293 190.574 392.643 189.494C391.994 188.415 391.041 187.554 389.906 187.023C388.771 186.492 387.506 186.314 386.271 186.512C384.635 186.774 383.167 187.676 382.184 189.023C381.201 190.369 380.782 192.053 381.018 193.71Z" fill="#263238" stroke="#263238" stroke-miterlimit="10" stroke-linecap="round"/>
<path d="M387.891 191.73L406.73 188.743C407.164 188.652 407.548 188.4 407.809 188.037C408.069 187.675 408.186 187.227 408.136 186.782C408.05 186.34 407.803 185.947 407.443 185.68C407.084 185.414 406.639 185.293 406.196 185.342L387.374 188.311C386.937 188.399 386.548 188.649 386.284 189.012C386.021 189.375 385.901 189.825 385.95 190.273C386.032 190.718 386.278 191.115 386.638 191.385C386.998 191.656 387.445 191.779 387.891 191.73Z" fill="white" stroke="#263238" stroke-miterlimit="10" stroke-linecap="round"/>
<path d="M388.604 196.427L407.425 193.458C407.859 193.37 408.246 193.123 408.509 192.764C408.772 192.405 408.894 191.959 408.85 191.514C408.763 191.072 408.516 190.679 408.157 190.413C407.797 190.146 407.352 190.026 406.909 190.075L388.07 193.044C387.636 193.135 387.251 193.387 386.991 193.749C386.731 194.112 386.614 194.56 386.663 195.005C386.754 195.444 387.003 195.832 387.362 196.095C387.721 196.358 388.164 196.476 388.604 196.427Z" fill="white" stroke="#263238" stroke-miterlimit="10" stroke-linecap="round"/>
<path d="M384.205 214.475C384.38 215.723 384.917 216.891 385.749 217.83C386.581 218.77 387.67 219.438 388.878 219.752C390.086 220.066 391.359 220.01 392.536 219.592C393.713 219.174 394.741 218.413 395.489 217.404C396.237 216.396 396.673 215.186 396.74 213.927C396.808 212.668 396.504 211.418 395.868 210.333C395.232 209.249 394.292 208.38 393.166 207.836C392.041 207.292 390.782 207.098 389.547 207.277C387.895 207.518 386.405 208.411 385.404 209.76C384.402 211.11 383.971 212.805 384.205 214.475Z" fill="#263238" stroke="#263238" stroke-miterlimit="10" stroke-linecap="round"/>
<path d="M391.096 212.496L409.971 209.544C410.408 209.457 410.797 209.207 411.061 208.844C411.325 208.481 411.444 208.031 411.396 207.583C411.309 207.141 411.062 206.748 410.702 206.482C410.343 206.215 409.898 206.094 409.455 206.144L390.616 209.113C390.182 209.204 389.797 209.456 389.537 209.818C389.277 210.181 389.16 210.629 389.209 211.074C389.299 211.502 389.54 211.883 389.887 212.145C390.235 212.407 390.665 212.531 391.096 212.496Z" fill="white" stroke="#263238" stroke-miterlimit="10" stroke-linecap="round"/>
<path d="M391.809 217.192L410.648 214.223C411.082 214.132 411.467 213.88 411.727 213.517C411.987 213.155 412.104 212.707 412.055 212.262C411.964 211.823 411.715 211.434 411.356 211.171C410.997 210.908 410.554 210.79 410.114 210.84L391.292 213.809C390.859 213.896 390.472 214.144 390.209 214.503C389.946 214.862 389.824 215.308 389.868 215.752C389.954 216.194 390.202 216.587 390.561 216.854C390.92 217.12 391.366 217.241 391.809 217.192Z" fill="white" stroke="#263238" stroke-miterlimit="10" stroke-linecap="round"/>
<path d="M387.411 235.241C387.589 236.492 388.131 237.661 388.968 238.599C389.805 239.538 390.9 240.204 392.113 240.512C393.326 240.82 394.602 240.757 395.779 240.33C396.956 239.903 397.981 239.132 398.723 238.115C399.465 237.098 399.892 235.881 399.947 234.619C400.003 233.356 399.686 232.105 399.036 231.025C398.387 229.946 397.434 229.085 396.299 228.554C395.164 228.023 393.899 227.845 392.664 228.043C391.028 228.305 389.56 229.207 388.577 230.554C387.594 231.901 387.175 233.584 387.411 235.241Z" fill="#263238" stroke="#263238" stroke-miterlimit="10" stroke-linecap="round"/>
<path d="M394.284 233.261L413.123 230.292C413.557 230.201 413.942 229.949 414.202 229.586C414.462 229.224 414.579 228.776 414.53 228.331C414.44 227.892 414.191 227.503 413.832 227.24C413.473 226.978 413.03 226.859 412.589 226.909L393.768 229.878C393.334 229.965 392.948 230.213 392.684 230.572C392.421 230.931 392.299 231.377 392.343 231.822C392.43 232.264 392.677 232.657 393.036 232.923C393.396 233.19 393.841 233.31 394.284 233.261Z" fill="white" stroke="#263238" stroke-miterlimit="10" stroke-linecap="round"/>
<path d="M395.013 237.958L413.834 234.989C414.272 234.901 414.661 234.651 414.924 234.288C415.188 233.925 415.308 233.475 415.259 233.027C415.169 232.589 414.92 232.2 414.561 231.937C414.202 231.674 413.759 231.556 413.318 231.606L394.479 234.557C394.045 234.648 393.66 234.9 393.4 235.262C393.14 235.625 393.023 236.073 393.072 236.518C393.159 236.96 393.406 237.353 393.766 237.62C394.125 237.886 394.57 238.007 395.013 237.958Z" fill="white" stroke="#263238" stroke-miterlimit="10" stroke-linecap="round"/>
<path d="M390.598 256.006C390.79 257.247 391.34 258.403 392.18 259.329C393.02 260.255 394.112 260.91 395.319 261.21C396.526 261.51 397.794 261.443 398.963 261.018C400.133 260.592 401.152 259.826 401.892 258.816C402.631 257.807 403.06 256.599 403.122 255.344C403.184 254.09 402.878 252.845 402.242 251.765C401.606 250.686 400.668 249.821 399.547 249.279C398.426 248.737 397.171 248.541 395.94 248.718C395.113 248.837 394.318 249.12 393.601 249.552C392.884 249.984 392.258 250.555 391.761 251.233C391.264 251.911 390.905 252.682 390.706 253.502C390.506 254.321 390.47 255.172 390.598 256.006Z" fill="#263238" stroke="#263238" stroke-miterlimit="10" stroke-linecap="round"/>
<path d="M397.507 254.027L416.328 251.058C416.766 250.97 417.155 250.72 417.418 250.357C417.682 249.994 417.801 249.544 417.753 249.096C417.662 248.658 417.413 248.269 417.055 248.006C416.696 247.743 416.253 247.625 415.812 247.675L396.973 250.626C396.539 250.717 396.154 250.969 395.894 251.332C395.634 251.694 395.517 252.142 395.566 252.587C395.653 253.029 395.9 253.422 396.259 253.689C396.619 253.955 397.064 254.076 397.507 254.027Z" fill="white" stroke="#263238" stroke-miterlimit="10" stroke-linecap="round"/>
<path d="M398.201 258.705L417.094 255.754C417.528 255.663 417.912 255.411 418.173 255.048C418.433 254.686 418.55 254.238 418.5 253.793C418.47 253.57 418.396 253.356 418.282 253.163C418.168 252.97 418.017 252.802 417.838 252.669C417.658 252.537 417.454 252.442 417.237 252.391C417.021 252.34 416.796 252.333 416.577 252.371L397.685 255.322C397.248 255.41 396.859 255.66 396.595 256.023C396.331 256.386 396.212 256.836 396.26 257.284C396.351 257.722 396.6 258.111 396.959 258.374C397.318 258.637 397.761 258.755 398.201 258.705Z" fill="white" stroke="#263238" stroke-miterlimit="10" stroke-linecap="round"/>
<path d="M393.803 276.754C393.981 278.004 394.523 279.174 395.36 280.112C396.198 281.051 397.292 281.717 398.505 282.025C399.718 282.333 400.994 282.27 402.171 281.843C403.348 281.416 404.373 280.645 405.115 279.628C405.858 278.611 406.284 277.394 406.34 276.131C406.395 274.869 406.078 273.618 405.429 272.538C404.779 271.458 403.826 270.598 402.691 270.067C401.557 269.536 400.291 269.358 399.056 269.556C397.42 269.818 395.952 270.72 394.969 272.066C393.986 273.413 393.568 275.097 393.803 276.754Z" fill="#263238" stroke="#263238" stroke-miterlimit="10" stroke-linecap="round"/>
<path d="M400.676 274.792L419.515 271.823C419.949 271.732 420.334 271.48 420.594 271.118C420.854 270.755 420.971 270.307 420.922 269.862C420.832 269.427 420.586 269.041 420.231 268.778C419.875 268.516 419.437 268.395 418.999 268.44L400.16 271.391C399.723 271.479 399.334 271.729 399.07 272.092C398.806 272.455 398.687 272.905 398.735 273.353C398.822 273.795 399.069 274.188 399.429 274.454C399.788 274.721 400.233 274.842 400.676 274.792Z" fill="white" stroke="#263238" stroke-miterlimit="10" stroke-linecap="round"/>
<path d="M401.407 279.471L420.228 276.52C420.665 276.432 421.054 276.182 421.318 275.819C421.582 275.456 421.701 275.006 421.653 274.558C421.566 274.116 421.319 273.723 420.959 273.457C420.6 273.19 420.155 273.07 419.712 273.119L400.89 276.088C400.453 276.175 400.064 276.425 399.8 276.788C399.537 277.151 399.417 277.601 399.466 278.049C399.556 278.488 399.805 278.876 400.164 279.139C400.523 279.402 400.966 279.52 401.407 279.471Z" fill="white" stroke="#263238" stroke-miterlimit="10" stroke-linecap="round"/>
<path d="M396.991 297.519C397.165 298.767 397.703 299.935 398.535 300.874C399.367 301.813 400.455 302.482 401.664 302.796C402.872 303.109 404.145 303.054 405.322 302.636C406.499 302.218 407.526 301.457 408.275 300.448C409.023 299.44 409.459 298.229 409.526 296.971C409.594 295.712 409.29 294.461 408.654 293.377C408.018 292.293 407.077 291.424 405.952 290.88C404.827 290.336 403.567 290.141 402.333 290.321C400.683 290.566 399.195 291.46 398.195 292.809C397.194 294.157 396.762 295.85 396.991 297.519Z" fill="#263238" stroke="#263238" stroke-miterlimit="10" stroke-linecap="round"/>
<path d="M403.882 295.54L422.703 292.589C423.14 292.501 423.529 292.251 423.793 291.888C424.057 291.525 424.176 291.075 424.128 290.627C424.041 290.185 423.794 289.792 423.434 289.526C423.075 289.259 422.63 289.139 422.187 289.188L403.366 292.157C402.928 292.244 402.539 292.494 402.276 292.857C402.012 293.22 401.892 293.67 401.941 294.118C402.031 294.557 402.28 294.945 402.639 295.208C402.998 295.471 403.441 295.589 403.882 295.54Z" fill="white" stroke="#263238" stroke-miterlimit="10" stroke-linecap="round"/>
<path d="M404.629 300.308L423.468 297.357C423.902 297.265 424.287 297.014 424.547 296.651C424.807 296.288 424.924 295.841 424.875 295.395C424.789 294.957 424.544 294.567 424.189 294.3C423.833 294.034 423.392 293.912 422.952 293.956L404.113 296.925C403.679 297.016 403.294 297.268 403.034 297.631C402.774 297.993 402.657 298.441 402.706 298.886C402.739 299.108 402.815 299.321 402.929 299.513C403.044 299.704 403.195 299.871 403.374 300.003C403.553 300.136 403.756 300.231 403.971 300.283C404.187 300.335 404.411 300.344 404.629 300.308Z" fill="white" stroke="#263238" stroke-miterlimit="10" stroke-linecap="round"/>
<path d="M400.196 318.303C400.374 319.554 400.916 320.723 401.754 321.661C402.591 322.6 403.686 323.266 404.899 323.574C406.111 323.882 407.387 323.819 408.565 323.392C409.742 322.965 410.767 322.194 411.509 321.177C412.251 320.16 412.677 318.943 412.733 317.68C412.789 316.418 412.472 315.167 411.822 314.087C411.172 313.007 410.219 312.147 409.085 311.616C407.95 311.085 406.684 310.907 405.449 311.105C403.814 311.367 402.346 312.269 401.363 313.615C400.38 314.962 399.961 316.646 400.196 318.303Z" fill="#263238" stroke="#263238" stroke-miterlimit="10" stroke-linecap="round"/>
<path d="M407.069 316.305L425.997 313.354C426.218 313.321 426.431 313.244 426.622 313.127C426.813 313.01 426.979 312.856 427.11 312.673C427.241 312.49 427.334 312.283 427.385 312.063C427.435 311.843 427.442 311.615 427.404 311.393C427.318 310.954 427.073 310.564 426.717 310.298C426.362 310.031 425.921 309.909 425.481 309.953L406.553 312.904C406.332 312.937 406.119 313.014 405.928 313.131C405.737 313.248 405.571 313.402 405.44 313.585C405.309 313.768 405.215 313.975 405.165 314.195C405.114 314.415 405.108 314.643 405.146 314.865C405.176 315.089 405.251 315.303 405.364 315.497C405.478 315.691 405.629 315.86 405.808 315.994C405.987 316.128 406.191 316.225 406.407 316.278C406.624 316.332 406.849 316.341 407.069 316.305Z" fill="white" stroke="#263238" stroke-miterlimit="10" stroke-linecap="round"/>
<path d="M407.799 321.002L426.621 318.033C426.841 318.002 427.054 317.927 427.246 317.812C427.438 317.697 427.605 317.545 427.737 317.364C427.87 317.183 427.966 316.977 428.018 316.758C428.071 316.539 428.08 316.312 428.045 316.089C427.959 315.647 427.711 315.254 427.352 314.988C426.992 314.721 426.547 314.601 426.104 314.65L407.283 317.619C406.849 317.706 406.463 317.953 406.199 318.313C405.936 318.672 405.815 319.117 405.858 319.562C405.945 320.004 406.192 320.397 406.552 320.664C406.911 320.93 407.356 321.051 407.799 321.002Z" fill="white" stroke="#263238" stroke-miterlimit="10" stroke-linecap="round"/>
<path d="M403.383 339.05C403.558 340.298 404.095 341.466 404.927 342.405C405.759 343.344 406.848 344.013 408.056 344.327C409.264 344.64 410.537 344.585 411.714 344.167C412.891 343.749 413.919 342.987 414.667 341.979C415.415 340.971 415.851 339.76 415.918 338.502C415.986 337.243 415.682 335.992 415.046 334.908C414.41 333.824 413.47 332.955 412.344 332.411C411.219 331.867 409.959 331.672 408.725 331.852C407.075 332.097 405.588 332.991 404.587 334.339C403.587 335.688 403.154 337.381 403.383 339.05Z" fill="#263238" stroke="#263238" stroke-miterlimit="10" stroke-linecap="round"/>
<path d="M410.274 337.071L429.095 334.102C429.529 334.014 429.916 333.767 430.179 333.408C430.442 333.049 430.564 332.603 430.52 332.158C430.433 331.716 430.186 331.323 429.827 331.057C429.467 330.79 429.022 330.67 428.579 330.719L409.758 333.688C409.324 333.775 408.938 334.022 408.674 334.382C408.411 334.741 408.289 335.186 408.333 335.631C408.42 336.073 408.667 336.466 409.026 336.733C409.386 336.999 409.831 337.12 410.274 337.071Z" fill="white" stroke="#263238" stroke-miterlimit="10" stroke-linecap="round"/>
<path d="M411.004 341.695L429.825 338.726C430.262 338.638 430.651 338.388 430.915 338.025C431.179 337.662 431.298 337.212 431.249 336.764C431.159 336.326 430.91 335.937 430.551 335.674C430.192 335.411 429.749 335.293 429.309 335.343L410.469 338.294C410.035 338.385 409.651 338.637 409.391 339C409.131 339.362 409.014 339.81 409.063 340.255C409.149 340.697 409.397 341.09 409.756 341.357C410.115 341.623 410.561 341.744 411.004 341.695Z" fill="white" stroke="#263238" stroke-miterlimit="10" stroke-linecap="round"/>
<path d="M406.588 359.815C406.766 361.066 407.308 362.235 408.145 363.174C408.983 364.113 410.077 364.779 411.29 365.087C412.503 365.395 413.779 365.332 414.956 364.905C416.133 364.478 417.158 363.707 417.9 362.69C418.643 361.673 419.069 360.456 419.125 359.193C419.18 357.931 418.863 356.68 418.214 355.6C417.564 354.52 416.611 353.66 415.476 353.129C414.342 352.598 413.076 352.42 411.841 352.618C410.205 352.879 408.737 353.781 407.754 355.128C406.771 356.475 406.352 358.159 406.588 359.815Z" fill="#263238" stroke="#263238" stroke-miterlimit="10" stroke-linecap="round"/>
<path d="M413.532 357.89L432.353 354.921C432.791 354.834 433.179 354.584 433.443 354.22C433.707 353.857 433.826 353.407 433.778 352.96C433.687 352.521 433.438 352.132 433.079 351.869C432.72 351.606 432.277 351.488 431.837 351.538L412.998 354.489C412.564 354.58 412.179 354.832 411.919 355.195C411.659 355.557 411.542 356.005 411.591 356.45C411.678 356.892 411.925 357.285 412.284 357.552C412.644 357.818 413.089 357.939 413.532 357.89Z" fill="white" stroke="#263238" stroke-miterlimit="10" stroke-linecap="round"/>
<path d="M414.191 362.532L433.119 359.563C433.553 359.472 433.938 359.22 434.198 358.858C434.458 358.495 434.575 358.047 434.526 357.602C434.436 357.163 434.187 356.775 433.828 356.512C433.469 356.249 433.026 356.131 432.585 356.18L413.764 359.132C413.327 359.219 412.938 359.469 412.674 359.832C412.41 360.195 412.291 360.645 412.339 361.093C412.425 361.518 412.659 361.898 412.999 362.163C413.339 362.427 413.763 362.558 414.191 362.532Z" fill="white" stroke="#263238" stroke-miterlimit="10" stroke-linecap="round"/>
<path d="M409.793 380.581C409.985 381.822 410.535 382.978 411.375 383.904C412.215 384.83 413.307 385.485 414.514 385.785C415.721 386.085 416.989 386.018 418.159 385.592C419.328 385.167 420.347 384.401 421.087 383.391C421.827 382.382 422.255 381.174 422.317 379.919C422.38 378.665 422.073 377.42 421.437 376.34C420.801 375.261 419.864 374.396 418.742 373.854C417.621 373.311 416.366 373.116 415.135 373.293C414.309 373.412 413.514 373.695 412.796 374.127C412.079 374.559 411.453 375.13 410.956 375.808C410.46 376.486 410.101 377.257 409.901 378.077C409.701 378.896 409.665 379.747 409.793 380.581Z" fill="#263238" stroke="#263238" stroke-miterlimit="10" stroke-linecap="round"/>
<path d="M416.666 378.602L435.505 375.633C435.939 375.541 436.324 375.29 436.584 374.927C436.844 374.564 436.961 374.116 436.912 373.671C436.813 373.225 436.551 372.834 436.177 372.577C435.803 372.319 435.347 372.215 434.9 372.286L416.079 375.237C415.641 375.324 415.252 375.574 414.989 375.937C414.725 376.3 414.606 376.75 414.654 377.198C414.749 377.647 415.01 378.043 415.384 378.304C415.758 378.565 416.217 378.671 416.666 378.602Z" fill="white" stroke="#263238" stroke-miterlimit="10" stroke-linecap="round"/>
<path d="M417.396 383.28L436.217 380.329C436.655 380.242 437.044 379.992 437.307 379.629C437.571 379.265 437.69 378.816 437.642 378.368C437.555 377.926 437.308 377.533 436.949 377.266C436.589 377 436.144 376.879 435.701 376.928L416.862 379.897C416.428 379.989 416.043 380.24 415.783 380.603C415.523 380.966 415.406 381.413 415.455 381.859C415.545 382.297 415.794 382.686 416.153 382.949C416.512 383.212 416.955 383.33 417.396 383.28Z" fill="white" stroke="#263238" stroke-miterlimit="10" stroke-linecap="round"/>
<path d="M412.981 401.328C413.159 402.579 413.701 403.749 414.538 404.687C415.375 405.626 416.47 406.292 417.683 406.6C418.896 406.908 420.172 406.845 421.349 406.418C422.526 405.991 423.551 405.22 424.293 404.203C425.035 403.186 425.461 401.969 425.517 400.706C425.573 399.444 425.256 398.193 424.606 397.113C423.956 396.033 423.004 395.173 421.869 394.642C420.734 394.111 419.469 393.933 418.234 394.131C416.598 394.393 415.13 395.294 414.147 396.641C413.164 397.988 412.745 399.672 412.981 401.328Z" fill="#263238" stroke="#263238" stroke-miterlimit="10" stroke-linecap="round"/>
<path d="M419.871 399.277L438.693 396.326C439.13 396.238 439.519 395.988 439.783 395.625C440.046 395.262 440.166 394.812 440.117 394.364C440.085 394.141 440.008 393.926 439.893 393.733C439.777 393.54 439.624 393.373 439.443 393.24C439.262 393.108 439.057 393.013 438.839 392.962C438.622 392.911 438.396 392.904 438.176 392.943L419.337 395.894C418.903 395.985 418.518 396.237 418.258 396.6C417.998 396.962 417.881 397.41 417.93 397.855C417.963 398.079 418.039 398.293 418.155 398.486C418.271 398.679 418.423 398.847 418.604 398.98C418.785 399.112 418.99 399.207 419.208 399.258C419.426 399.309 419.651 399.315 419.871 399.277Z" fill="white" stroke="#263238" stroke-miterlimit="10" stroke-linecap="round"/>
<path d="M420.655 404.046L439.423 401.076C439.857 400.985 440.242 400.734 440.502 400.371C440.762 400.008 440.879 399.56 440.83 399.115C440.743 398.673 440.496 398.28 440.136 398.014C439.777 397.747 439.332 397.626 438.889 397.676L420.067 400.645C419.63 400.732 419.241 400.982 418.977 401.345C418.714 401.708 418.594 402.158 418.643 402.606C418.73 403.062 418.988 403.466 419.363 403.735C419.738 404.003 420.201 404.114 420.655 404.046Z" fill="white" stroke="#263238" stroke-miterlimit="10" stroke-linecap="round"/>
<path d="M416.185 422.094C416.363 423.345 416.905 424.514 417.743 425.453C418.58 426.391 419.675 427.057 420.887 427.365C422.1 427.673 423.376 427.61 424.553 427.183C425.73 426.757 426.755 425.986 427.498 424.969C428.24 423.951 428.666 422.734 428.722 421.472C428.778 420.209 428.46 418.958 427.811 417.879C427.161 416.799 426.208 415.939 425.073 415.407C423.939 414.876 422.673 414.698 421.438 414.896C419.802 415.158 418.334 416.06 417.352 417.407C416.369 418.754 415.95 420.437 416.185 422.094Z" fill="#263238" stroke="#263238" stroke-miterlimit="10" stroke-linecap="round"/>
<path d="M423.059 420.114L441.898 417.163C442.332 417.072 442.717 416.82 442.977 416.458C443.237 416.095 443.354 415.647 443.305 415.202C443.218 414.76 442.971 414.367 442.611 414.101C442.252 413.834 441.807 413.713 441.364 413.762L422.543 416.732C422.105 416.819 421.716 417.069 421.453 417.432C421.189 417.795 421.069 418.245 421.118 418.693C421.208 419.132 421.457 419.52 421.816 419.783C422.175 420.046 422.618 420.164 423.059 420.114Z" fill="white" stroke="#263238" stroke-miterlimit="10" stroke-linecap="round"/>
<path d="M423.789 424.811L442.61 421.842C443.044 421.755 443.431 421.508 443.694 421.148C443.957 420.789 444.079 420.343 444.035 419.899C443.949 419.457 443.701 419.064 443.342 418.797C442.982 418.531 442.537 418.41 442.094 418.459L423.255 421.428C422.821 421.519 422.436 421.771 422.176 422.134C421.916 422.497 421.799 422.944 421.848 423.39C421.939 423.828 422.188 424.217 422.547 424.48C422.906 424.743 423.349 424.861 423.789 424.811Z" fill="white" stroke="#263238" stroke-miterlimit="10" stroke-linecap="round"/>
<path d="M419.373 442.859C419.548 444.107 420.085 445.275 420.917 446.214C421.749 447.154 422.838 447.822 424.046 448.136C425.254 448.45 426.527 448.394 427.704 447.976C428.881 447.558 429.909 446.797 430.657 445.788C431.405 444.78 431.841 443.57 431.908 442.311C431.976 441.052 431.672 439.802 431.036 438.718C430.4 437.633 429.46 436.764 428.334 436.22C427.209 435.676 425.95 435.482 424.715 435.662C423.063 435.902 421.573 436.795 420.572 438.144C419.57 439.494 419.139 441.189 419.373 442.859Z" fill="#263238" stroke="#263238" stroke-miterlimit="10" stroke-linecap="round"/>
<path d="M426.264 440.88L445.085 437.929C445.522 437.841 445.911 437.591 446.175 437.228C446.439 436.865 446.558 436.415 446.51 435.967C446.423 435.525 446.176 435.132 445.816 434.866C445.457 434.599 445.012 434.479 444.569 434.528L425.73 437.497C425.296 437.588 424.911 437.84 424.651 438.203C424.391 438.565 424.274 439.013 424.323 439.458C424.413 439.897 424.662 440.286 425.021 440.549C425.38 440.811 425.823 440.93 426.264 440.88Z" fill="white" stroke="#263238" stroke-miterlimit="10" stroke-linecap="round"/>
<path d="M426.977 445.576L445.816 442.607C446.25 442.516 446.635 442.264 446.895 441.902C447.155 441.539 447.272 441.091 447.223 440.646C447.19 440.424 447.114 440.211 447 440.02C446.885 439.828 446.734 439.661 446.555 439.529C446.376 439.397 446.173 439.302 445.958 439.249C445.742 439.197 445.518 439.189 445.3 439.224L426.461 442.193C426.24 442.224 426.028 442.299 425.837 442.414C425.646 442.529 425.48 442.682 425.349 442.863C425.218 443.045 425.124 443.251 425.073 443.47C425.022 443.689 425.016 443.915 425.054 444.137C425.14 444.575 425.385 444.966 425.74 445.232C426.096 445.498 426.537 445.621 426.977 445.576Z" fill="white" stroke="#263238" stroke-miterlimit="10" stroke-linecap="round"/>
<g opacity="0.3">
<path d="M150.141 90.6923L154.824 89.9725" stroke="black" stroke-miterlimit="10" stroke-linecap="round"/>
<path d="M159.508 89.2346L164.191 88.4968" stroke="black" stroke-miterlimit="10" stroke-linecap="round"/>
<path d="M104.38 104.566L109.045 103.828" stroke="black" stroke-miterlimit="10" stroke-linecap="round"/>
<path d="M113.729 103.09L118.412 102.353" stroke="black" stroke-miterlimit="10" stroke-linecap="round"/>
<path d="M123.094 101.633L127.759 100.895" stroke="black" stroke-miterlimit="10" stroke-linecap="round"/>
<path d="M132.442 100.157L137.125 99.4194" stroke="black" stroke-miterlimit="10" stroke-linecap="round"/>
<path d="M141.79 98.6814L146.473 97.9436" stroke="black" stroke-miterlimit="10" stroke-linecap="round"/>
<path d="M151.156 97.206L155.822 96.4683" stroke="black" stroke-miterlimit="10" stroke-linecap="round"/>
<path d="M160.505 95.7303L165.188 95.0105" stroke="black" stroke-miterlimit="10" stroke-linecap="round"/>
<path d="M105.377 111.08L110.06 110.342" stroke="black" stroke-miterlimit="10" stroke-linecap="round"/>
<path d="M114.725 109.604L119.408 108.866" stroke="black" stroke-miterlimit="10" stroke-linecap="round"/>
<path d="M124.092 108.129L128.775 107.409" stroke="black" stroke-miterlimit="10" stroke-linecap="round"/>
<path d="M133.439 106.671L138.123 105.933" stroke="black" stroke-miterlimit="10" stroke-linecap="round"/>
<path d="M142.806 105.196L147.471 104.458" stroke="black" stroke-miterlimit="10" stroke-linecap="round"/>
<path d="M152.154 103.72L156.837 102.982" stroke="black" stroke-miterlimit="10" stroke-linecap="round"/>
<path d="M161.502 102.244L166.185 101.507" stroke="black" stroke-miterlimit="10" stroke-linecap="round"/>
<path d="M106.374 117.594L111.057 116.856" stroke="black" stroke-miterlimit="10" stroke-linecap="round"/>
<path d="M115.74 116.118L120.405 115.38" stroke="black" stroke-miterlimit="10" stroke-linecap="round"/>
<path d="M125.088 114.643L129.771 113.905" stroke="black" stroke-miterlimit="10" stroke-linecap="round"/>
<path d="M134.455 113.185L139.12 112.447" stroke="black" stroke-miterlimit="10" stroke-linecap="round"/>
<path d="M143.802 111.71L148.486 110.972" stroke="black" stroke-miterlimit="10" stroke-linecap="round"/>
<path d="M153.151 110.234L157.834 109.496" stroke="black" stroke-miterlimit="10" stroke-linecap="round"/>
<path d="M162.517 108.759L167.182 108.021" stroke="black" stroke-miterlimit="10" stroke-linecap="round"/>
<path d="M107.389 124.108L112.054 123.37" stroke="black" stroke-miterlimit="10" stroke-linecap="round"/>
<path d="M116.737 122.632L121.42 121.894" stroke="black" stroke-miterlimit="10" stroke-linecap="round"/>
<path d="M126.085 121.157L130.768 120.419" stroke="black" stroke-miterlimit="10" stroke-linecap="round"/>
<path d="M135.451 119.681L140.134 118.961" stroke="black" stroke-miterlimit="10" stroke-linecap="round"/>
<path d="M144.8 118.223L149.483 117.486" stroke="black" stroke-miterlimit="10" stroke-linecap="round"/>
<path d="M154.166 116.748L158.832 116.01" stroke="black" stroke-miterlimit="10" stroke-linecap="round"/>
<path d="M163.514 115.272L168.197 114.535" stroke="black" stroke-miterlimit="10" stroke-linecap="round"/>
<path d="M102.047 89.5044L106.73 88.7666" stroke="black" stroke-miterlimit="10" stroke-linecap="round"/>
<path d="M111.413 88.029L116.096 87.3092" stroke="black" stroke-miterlimit="10" stroke-linecap="round"/>
<path d="M120.761 86.5713L125.445 85.8335" stroke="black" stroke-miterlimit="10" stroke-linecap="round"/>
<path d="M130.127 85.0959L134.793 84.3582" stroke="black" stroke-miterlimit="10" stroke-linecap="round"/>
<path d="M139.476 83.6202L144.159 82.8824" stroke="black" stroke-miterlimit="10" stroke-linecap="round"/>
<path d="M148.842 82.1449L153.507 81.4252" stroke="black" stroke-miterlimit="10" stroke-linecap="round"/>
<path d="M158.19 80.6874L162.873 79.9496" stroke="black" stroke-miterlimit="10" stroke-linecap="round"/>
<path d="M163.835 83.5483L102.225 93.2293" stroke="black" stroke-miterlimit="10" stroke-linecap="round"/>
<path d="M119.319 78.4561L143.091 74.7133" stroke="black" stroke-miterlimit="10" stroke-linecap="round"/>
<path d="M89.7961 145.611L351.958 104.386" stroke="black" stroke-miterlimit="10" stroke-linecap="round"/>
<path d="M93.0906 166.952L355.235 125.727" stroke="black" stroke-miterlimit="10" stroke-linecap="round"/>
<path d="M96.3665 188.276L358.528 147.051" stroke="black" stroke-miterlimit="10" stroke-linecap="round"/>
<path d="M99.6609 209.617L361.805 168.392" stroke="black" stroke-miterlimit="10" stroke-linecap="round"/>
<path d="M102.937 230.958L365.099 189.733" stroke="black" stroke-miterlimit="10" stroke-linecap="round"/>
<path d="M106.231 252.299L368.376 211.056" stroke="black" stroke-miterlimit="10" stroke-linecap="round"/>
<path d="M109.508 273.623L371.67 232.397" stroke="black" stroke-miterlimit="10" stroke-linecap="round"/>
<path d="M112.802 294.964L374.946 253.739" stroke="black" stroke-miterlimit="10" stroke-linecap="round"/>
<path d="M116.078 316.305L378.24 275.08" stroke="black" stroke-miterlimit="10" stroke-linecap="round"/>
<path d="M119.373 337.646L381.517 296.403" stroke="black" stroke-miterlimit="10" stroke-linecap="round"/>
<path d="M122.648 358.97L384.81 317.745" stroke="black" stroke-miterlimit="10" stroke-linecap="round"/>
<path d="M125.943 380.311L388.105 339.086" stroke="black" stroke-miterlimit="10" stroke-linecap="round"/>
<path d="M129.219 401.652L391.382 360.427" stroke="black" stroke-miterlimit="10" stroke-linecap="round"/>
<path d="M137.036 452.325L399.18 411.099" stroke="black" stroke-miterlimit="10" stroke-linecap="round"/>
<path d="M139.636 469.221L401.78 427.978" stroke="black" stroke-miterlimit="10" stroke-linecap="round"/>
<path d="M142.236 486.1L404.38 444.875" stroke="black" stroke-miterlimit="10" stroke-linecap="round"/>
</g>
<path d="M127.19 166.142C127.19 166.142 104.825 190.597 117.752 186.746C130.68 182.895 148.361 157.343 144.604 167.96C140.847 178.577 141.043 185.81 147.115 178.487C153.187 171.163 156.588 169.705 155.359 173.538C154.131 177.371 159.152 174.762 159.152 174.762C159.152 174.762 171.616 167.348 170.316 171.163C169.017 174.978 168.233 175.14 171.759 174.582L183.19 172.782C183.19 172.782 182.443 173.826 193.002 172.153C203.561 170.479 207.674 168.032 212.963 167.204" stroke="#263238" stroke-miterlimit="10" stroke-linecap="round"/>
<path d="M117.04 199.54C117.04 199.54 134.277 188.635 136.449 191.028C138.621 193.422 135.648 197.524 143.429 195.401C151.21 193.278 158.297 186.692 158.849 190.237C159.401 193.782 164.405 191.19 164.405 191.19L168.803 190.489C168.803 190.489 176.851 190.147 179.362 188.833C181.873 187.52 184.472 175.283 182.549 191.982C180.626 208.681 173.878 194.249 189.921 187.178C205.965 180.106 208.938 187.825 208.938 187.825C210.714 187.42 212.44 186.817 214.084 186.026C217.45 184.569 220.423 180.466 223.611 183.615C226.798 186.764 232.514 176.759 232.514 176.759C234.738 177.178 236.933 177.743 239.084 178.45C241.146 179.178 243.337 179.454 245.512 179.26C248.2 179.364 250.892 179.244 253.561 178.9C257.122 178.342 260.06 174.24 262.963 175.607C265.865 176.975 270.263 164.433 268.055 179.35C265.847 194.267 251.567 201.069 257.371 191.946C262.495 183.978 269.077 177.07 276.762 171.595C283.262 166.934 285.149 167.546 286.574 170.965C287.998 174.384 289.761 174.096 293.144 172.656C296.527 171.217 293.625 169.849 296.527 171.217C297.494 171.772 298.559 172.129 299.662 172.268C300.765 172.407 301.884 172.325 302.956 172.026C305.609 171.613 293.233 179.026 305.609 171.613C317.984 164.199 322.4 134.364 315.918 150.865C309.437 167.366 311.894 171.541 320.566 169.255" stroke="#263238" stroke-miterlimit="10" stroke-linecap="round"/>
<path d="M118.91 229.356C118.91 229.356 140.064 208.735 138.764 206.198C137.464 203.66 130.715 206.558 125.783 215.519C120.851 224.48 124.323 229.41 137.589 221.871C150.854 214.331 131.552 223.67 145.174 224.318C158.796 224.966 162.82 216.077 163.23 218.74C163.639 221.403 159.099 221.205 169.8 220.539C180.502 219.873 175.267 215.141 186.236 216.131C197.204 217.12 202.083 213.629 202.083 213.629L209.117 212.532C209.117 212.532 194.872 213.845 213.372 210.948C231.873 208.051 239.993 184.91 231.09 197.237C222.186 209.563 226.371 213.431 235.506 208.375L244.64 203.301C244.64 203.301 256.179 190.561 250.73 207.799C245.281 225.038 238.835 212.406 259.117 203.75C279.398 195.095 278.882 203.373 285.648 200.493C292.414 197.614 291.31 190.489 295.798 196.157C300.285 201.825 300 200.062 307.033 198.946C314.067 197.83 312.179 197.147 318.34 196.265L331.624 194.141" stroke="#263238" stroke-miterlimit="10" stroke-linecap="round"/>
<path d="M122.471 293.452C122.471 293.452 137.215 283.843 139.565 269.808C141.916 255.772 130.288 274 131.552 293.83C132.817 313.66 125.908 286.524 146.474 279.651C167.04 272.777 144.693 285.409 146.973 288.648C149.252 291.887 166.114 278.355 165.919 282.926C165.723 287.496 169.48 288.738 179.843 279.83C190.206 270.923 173.344 272.633 172.543 279.165C171.741 285.697 176.745 283.051 189.53 278.301C202.315 273.55 189.797 280.1 197.721 278.841C205.644 277.581 223.077 262.106 219.64 269.016C216.204 275.926 219.516 279.974 223.362 275.728C227.208 271.481 235.399 260.163 236.075 264.607C236.483 267.232 235.919 269.916 234.491 272.147" stroke="#263238" stroke-miterlimit="10" stroke-linecap="round"/>
<path opacity="0.3" d="M40.8141 152.45C40.6623 152.307 40.4993 152.175 40.3264 152.053C39.8273 151.709 39.28 151.423 38.6981 151.203L38.3519 151.092H38.2654C35.166 150.243 24.5699 149.839 21.0142 149.7C20.1273 149.672 19.256 149.911 18.5419 150.378C17.8278 150.844 17.313 151.51 17.081 152.269V152.345C16.3258 154.9 5.54871 217.935 5.54871 217.935C5.54871 217.935 5.47004 219.327 5.35991 221.506C5.31271 222.46 5.26551 223.595 5.20258 224.744C5.20258 225.043 5.20258 225.343 5.20258 225.649C5.20258 226.262 5.14752 226.888 5.11605 227.522C5.01379 229.756 4.91939 232.11 4.84859 234.261C4.79353 235.793 4.75419 237.227 4.73059 238.438C4.73059 239.406 4.73059 240.227 4.73059 240.854C4.7215 242.313 4.81345 243.77 5.00592 245.219C5.31271 247.015 6.0207 247.844 7.76706 248.115C8.19971 248.185 8.82903 248.269 9.59208 248.352L10.0641 248.401L12.2274 248.61L12.8252 248.658L14.6738 248.791L15.9482 248.86L17.2304 248.916C18.0721 248.951 18.906 248.965 19.7005 248.965C20.8575 248.98 22.0142 248.922 23.1618 248.791H23.264L23.5551 248.742L23.8776 248.672H23.9405L24.2631 248.582L24.8059 248.401L25.3014 248.22C25.969 247.984 26.6049 247.682 27.1973 247.322C27.3887 247.201 27.5726 247.071 27.7479 246.932C27.9157 246.802 28.0731 246.663 28.2199 246.514L28.4244 246.298C28.7111 245.98 28.9739 245.645 29.2111 245.296C29.2502 245.241 29.2819 245.183 29.3055 245.122L29.3527 245.017L29.4313 244.836C29.4488 244.782 29.4698 244.728 29.4943 244.676C29.4943 244.6 29.5415 244.537 29.5729 244.453L29.6437 244.258C29.6437 244.168 29.6988 244.084 29.7303 243.987C29.7617 243.889 29.7853 243.834 29.8089 243.757C29.8325 243.681 29.8719 243.548 29.9112 243.437C29.9505 243.326 29.9663 243.249 29.9977 243.158C30.0292 243.068 30.0607 242.936 30.1 242.81C30.1393 242.685 30.1629 242.601 30.1944 242.497C30.2259 242.393 30.2652 242.246 30.3045 242.107L30.3989 241.78L30.5169 241.355C30.5169 241.237 30.5877 241.105 30.6271 240.979L30.7451 240.534C30.7844 240.408 30.8158 240.269 30.8552 240.137C30.8945 240.005 30.9417 239.824 30.981 239.663L31.099 239.239C31.099 239.079 31.1856 238.919 31.2249 238.751C31.2642 238.584 31.3036 238.445 31.3508 238.292C31.398 238.139 31.4373 237.958 31.4766 237.784C31.4803 237.735 31.4803 237.686 31.4766 237.638C31.4766 237.54 31.5317 237.443 31.5553 237.345C31.5789 237.248 31.6497 236.969 31.7048 236.774C31.7598 236.579 31.7756 236.482 31.8149 236.329C31.8542 236.175 31.9093 235.946 31.9644 235.751L32.0823 235.291L32.2239 234.713C32.2239 234.546 32.3105 234.372 32.3498 234.205L32.4914 233.655C32.4914 233.481 32.5779 233.3 32.6173 233.126L32.7589 232.576C32.7589 232.493 32.7589 232.409 32.8139 232.325C32.869 232.242 32.869 232.131 32.8926 232.033C32.9162 231.936 32.9791 231.671 33.0185 231.49C33.0578 231.309 33.105 231.135 33.1522 230.954C33.1994 230.773 33.2387 230.578 33.2859 230.397C33.3331 230.216 33.3725 230.035 33.4197 229.854C33.4669 229.673 33.4983 229.506 33.5455 229.332C33.5927 229.158 33.632 228.949 33.6792 228.754L33.7972 228.253C33.8444 228.072 33.8838 227.898 33.9231 227.724C33.9624 227.549 34.0096 227.355 34.0568 227.174L34.1748 226.651C34.1748 226.491 34.2535 226.331 34.285 226.171C34.3164 226.011 34.34 225.934 34.3715 225.816L34.4187 225.614C34.4187 225.461 34.4895 225.308 34.521 225.155C34.5524 225.001 34.6075 224.806 34.6468 224.632C34.6862 224.458 34.7098 224.333 34.7491 224.187L34.8671 223.651C34.8671 223.532 34.9221 223.407 34.9457 223.289L35.0401 222.885C35.0401 222.836 35.0401 222.787 35.0401 222.732C35.0401 222.676 35.0952 222.502 35.1188 222.384L35.2368 221.875L35.3076 221.527C35.3469 221.367 35.3784 221.207 35.4099 221.061L35.4807 220.755L35.5751 220.288C35.5751 220.204 35.5751 220.128 35.6301 220.051L35.7245 219.599L35.7717 219.376C35.7717 219.237 35.8268 219.104 35.8504 218.979C35.8504 218.812 35.9133 218.645 35.9448 218.499C36.0785 217.803 36.2595 216.264 36.4797 214.113C36.5662 213.305 36.6528 212.414 36.7472 211.439C37.0854 207.889 37.4788 203.321 37.8957 198.309C37.8957 197.856 37.9665 197.397 38.0058 196.916C39.5791 177.966 41.3255 153.647 41.3255 153.647C41.3356 153.427 41.2955 153.208 41.2076 153.002C41.1198 152.797 40.986 152.609 40.8141 152.45Z" fill="black"/>
<path d="M1.87521 217.239C1.87521 217.239 0.907638 235.173 1.01777 240.144C1.1279 245.115 1.26163 246.974 4.04636 247.412C6.8311 247.851 17.5767 248.805 20.566 247.844C23.5552 246.883 24.4992 246.034 25.5061 244.565C26.513 243.096 31.2487 223.282 32.3185 217.719C33.3883 212.156 37.707 152.888 37.707 152.888C37.707 152.888 37.8722 151.628 35.001 150.507C32.641 149.567 21.0616 149.115 17.3171 149.004C16.4246 148.968 15.545 149.202 14.8229 149.668C14.1009 150.133 13.5795 150.803 13.3445 151.566C13.3445 151.566 13.3445 151.621 13.3445 151.642C12.6287 154.197 1.87521 217.239 1.87521 217.239Z" fill="#2E46CE"/>
<mask id="mask0_25_256" style="mask-type:luminance" maskUnits="userSpaceOnUse" x="1" y="149" width="37" height="100">
<path d="M1.87521 217.239C1.87521 217.239 0.907638 235.173 1.01777 240.144C1.1279 245.115 1.26163 246.974 4.04636 247.412C6.8311 247.851 17.5767 248.805 20.566 247.844C23.5552 246.883 24.4992 246.034 25.5061 244.565C26.513 243.096 31.2487 223.282 32.3185 217.719C33.3883 212.156 37.707 152.888 37.707 152.888C37.707 152.888 37.8722 151.628 35.001 150.507C32.641 149.567 21.0616 149.115 17.3171 149.004C16.4246 148.968 15.545 149.202 14.8229 149.668C14.1009 150.133 13.5795 150.803 13.3445 151.566C13.3445 151.566 13.3445 151.621 13.3445 151.642C12.6287 154.197 1.87521 217.239 1.87521 217.239Z" fill="white"/>
</mask>
<g mask="url(#mask0_25_256)">
<path opacity="0.5" d="M18.9773 248.137C19.5126 248.092 20.0404 247.994 20.5506 247.844C23.5713 246.883 24.4838 246.034 25.4907 244.565C26.4977 243.096 31.2333 223.282 32.3031 217.719C33.373 212.157 37.6917 152.888 37.6917 152.888C37.6917 152.888 37.8569 151.628 34.9856 150.507C34.7081 150.405 34.4213 150.323 34.1281 150.264C33.5067 164.014 31.4063 180.34 27.717 199.736C24.2714 218.088 20.3618 240.269 18.9773 248.137Z" fill="black"/>
</g>
<path d="M1.87521 217.239C1.87521 217.239 0.907638 235.173 1.01777 240.144C1.1279 245.115 1.26163 246.974 4.04636 247.412C6.8311 247.851 17.5767 248.805 20.566 247.844C23.5552 246.883 24.4992 246.034 25.5061 244.565C26.513 243.096 31.2487 223.282 32.3185 217.719C33.3883 212.156 37.707 152.888 37.707 152.888C37.707 152.888 37.8722 151.628 35.001 150.507C32.641 149.567 21.0616 149.115 17.3171 149.004C16.4246 148.968 15.545 149.202 14.8229 149.668C14.1009 150.133 13.5795 150.803 13.3445 151.566C13.3445 151.566 13.3445 151.621 13.3445 151.642C12.6287 154.197 1.87521 217.239 1.87521 217.239Z" stroke="#263238" stroke-linecap="round" stroke-linejoin="round"/>
<path d="M23.854 219.321C20.495 219.321 6.02855 217.97 3.78661 217.545C3.14845 217.428 2.51816 217.279 1.89866 217.1V217.239C1.89866 217.239 0.931075 235.173 1.04121 240.144C1.15134 245.115 1.28507 246.974 4.0698 247.412C6.85453 247.851 17.6001 248.805 20.5894 247.844C23.5787 246.883 24.5227 246.034 25.5296 244.565C26.5365 243.096 31.0361 224.375 32.2475 218.207C29.4156 219.508 26.6151 219.3 23.854 219.321Z" fill="#263238"/>
<mask id="mask1_25_256" style="mask-type:luminance" maskUnits="userSpaceOnUse" x="1" y="217" width="32" height="32">
<path d="M23.854 219.321C20.495 219.321 6.02855 217.97 3.78661 217.545C3.14845 217.428 2.51816 217.279 1.89866 217.1V217.239C1.89866 217.239 0.931075 235.173 1.04121 240.144C1.15134 245.115 1.28507 246.974 4.0698 247.412C6.85453 247.851 17.6001 248.805 20.5894 247.844C23.5787 246.883 24.5227 246.034 25.5296 244.565C26.5365 243.096 31.0361 224.375 32.2475 218.207C29.4156 219.508 26.6151 219.3 23.854 219.321Z" fill="white"/>
</mask>
<g mask="url(#mask1_25_256)">
<path opacity="0.5" d="M18.9773 248.137C19.5126 248.092 20.0404 247.994 20.5506 247.844C23.5713 246.883 24.4838 246.034 25.4907 244.565C26.4977 243.096 31.2333 223.282 32.3031 217.719C33.373 212.157 37.6917 152.888 37.6917 152.888C37.6917 152.888 37.8569 151.628 34.9856 150.507C34.7081 150.405 34.4213 150.323 34.1281 150.264C33.5067 164.014 31.4063 180.34 27.717 199.736C24.2714 218.088 20.3618 240.269 18.9773 248.137Z" fill="black"/>
<path opacity="0.26" d="M23.8855 220.977C26.0949 220.894 28.2872 220.595 30.4225 220.086" stroke="white" stroke-linecap="round" stroke-linejoin="round"/>
<path d="M3.02393 218.924C3.02393 218.924 20.7786 221.075 23.8858 220.977" stroke="white" stroke-linecap="round" stroke-linejoin="round"/>
</g>
<path d="M23.854 219.321C20.495 219.321 6.02855 217.97 3.78661 217.545C3.14845 217.428 2.51816 217.279 1.89866 217.1V217.239C1.89866 217.239 0.931075 235.173 1.04121 240.144C1.15134 245.115 1.28507 246.974 4.0698 247.412C6.85453 247.851 17.6001 248.805 20.5894 247.844C23.5787 246.883 24.5227 246.034 25.5296 244.565C26.5365 243.096 31.0361 224.375 32.2475 218.207C29.4156 219.508 26.6151 219.3 23.854 219.321Z" stroke="#263238" stroke-linecap="round" stroke-linejoin="round"/>
<path d="M529.06 167.315C559.117 152.095 570.793 116.065 555.14 86.84C539.487 57.6148 502.432 46.2615 472.375 61.4816C442.319 76.7018 430.643 112.732 446.296 141.957C461.949 171.182 499.004 182.536 529.06 167.315Z" fill="#263238" stroke="#263238" stroke-linecap="round" stroke-linejoin="round"/>
<path d="M557.021 115.841C561.203 83.1415 537.332 53.3367 503.704 49.2696C470.075 45.2026 439.422 68.4133 435.239 101.112C431.057 133.811 454.927 163.616 488.556 167.683C522.185 171.75 552.838 148.54 557.021 115.841Z" fill="white" stroke="#263238" stroke-linecap="round" stroke-linejoin="round"/>
<path d="M550.677 117.197C555.625 87.9098 535.22 60.2673 505.1 55.4556C474.98 50.6439 446.551 70.4851 441.603 99.7722C436.654 129.059 457.06 156.702 487.18 161.513C517.3 166.325 545.728 146.484 550.677 117.197Z" fill="#263238" stroke="#263238" stroke-linecap="round" stroke-linejoin="round"/>
<path d="M489.666 68.089C489.666 68.089 483.574 53.2671 472.893 42.8529C462.211 32.4386 418.783 25.8063 418.783 25.8063C425.796 32.3889 432.172 39.5845 437.83 47.3022C447.74 60.6364 480.529 91.031 480.529 91.031C480.529 91.031 464.513 77.6829 450.027 76.2091C435.542 74.7352 398.963 82.1323 396.675 82.1323C394.387 82.1323 410.389 88.0694 421.829 93.2557C433.268 98.4419 477.469 102.891 477.469 102.891C477.469 102.891 458.421 108.078 445.452 112.527C432.482 116.976 420.298 149.582 420.298 149.582C420.298 149.582 437.072 134.76 451.558 131.047C466.043 127.335 486.62 120.716 486.62 120.716C486.62 120.716 473.665 134.801 470.619 144.437C467.573 154.073 469.847 176.306 469.847 176.306C469.847 176.306 476.711 155.547 485.09 147.399C493.47 139.251 502.622 125.152 502.622 125.152C506.845 131.846 510.664 138.772 514.061 145.897C520.153 158.508 523.971 177.029 523.971 177.029C523.971 177.029 533.881 156.283 533.123 145.897C532.365 135.511 520.94 117.004 520.94 117.004C520.94 117.004 528.561 111.818 539.987 116.267C551.412 120.716 571.246 139.251 571.246 139.251C571.246 139.251 566.67 114.793 559.048 105.158C551.426 95.522 518.652 92.5466 518.652 92.5466C518.652 92.5466 536.941 82.174 548.381 79.9493C559.82 77.7247 575.064 82.9109 575.064 82.9109C575.064 82.9109 557.518 59.2738 543.805 57.7165C530.091 56.1592 509.485 76.9877 509.485 76.9877C509.485 76.9877 514.061 54.741 515.591 47.344C517.122 39.9469 514.061 21.3987 514.061 21.3987C514.061 21.3987 505.682 25.848 495.772 39.933C492.865 43.9882 490.826 48.5707 489.777 53.4077C488.728 58.2448 488.69 63.2376 489.666 68.089Z" fill="#2E46CE"/>
<path opacity="0.5" d="M489.666 68.089C489.666 68.089 483.574 53.2671 472.893 42.8529C462.211 32.4386 418.783 25.8063 418.783 25.8063C425.796 32.3889 432.172 39.5845 437.83 47.3022C447.74 60.6364 480.529 91.031 480.529 91.031C480.529 91.031 464.513 77.6829 450.027 76.2091C435.542 74.7352 398.963 82.1323 396.675 82.1323C394.387 82.1323 410.389 88.0694 421.829 93.2557C433.268 98.4419 477.469 102.891 477.469 102.891C477.469 102.891 458.421 108.078 445.452 112.527C432.482 116.976 420.298 149.582 420.298 149.582C420.298 149.582 437.072 134.76 451.558 131.047C466.043 127.335 486.62 120.716 486.62 120.716C486.62 120.716 473.665 134.801 470.619 144.437C467.573 154.073 469.847 176.306 469.847 176.306C469.847 176.306 476.711 155.547 485.09 147.399C493.47 139.251 502.622 125.152 502.622 125.152C506.845 131.846 510.664 138.772 514.061 145.897C520.153 158.508 523.971 177.029 523.971 177.029C523.971 177.029 533.881 156.283 533.123 145.897C532.365 135.511 520.94 117.004 520.94 117.004C520.94 117.004 528.561 111.818 539.987 116.267C551.412 120.716 571.246 139.251 571.246 139.251C571.246 139.251 566.67 114.793 559.048 105.158C551.426 95.522 518.652 92.5466 518.652 92.5466C518.652 92.5466 536.941 82.174 548.381 79.9493C559.82 77.7247 575.064 82.9109 575.064 82.9109C575.064 82.9109 557.518 59.2738 543.805 57.7165C530.091 56.1592 509.485 76.9877 509.485 76.9877C509.485 76.9877 514.061 54.741 515.591 47.344C517.122 39.9469 514.061 21.3987 514.061 21.3987C514.061 21.3987 505.682 25.848 495.772 39.933C492.865 43.9882 490.826 48.5707 489.777 53.4077C488.728 58.2448 488.69 63.2376 489.666 68.089Z" fill="black"/>
<path d="M504.681 45.5364C505.21 43.3951 505.796 41.2817 506.44 39.1821" stroke="#263238" stroke-width="0.5" stroke-linecap="round" stroke-linejoin="round"/>
<path d="M453.731 45.5226C460.881 50.5976 469.79 57.5636 474.38 63.5981C482.76 74.7214 499.533 98.442 499.533 98.442C499.056 82.5155 500.356 66.5857 503.408 50.9313" stroke="#263238" stroke-width="0.5" stroke-linecap="round" stroke-linejoin="round"/>
<path d="M443.178 38.4452C443.178 38.4452 445.394 39.8356 448.726 42.0464" stroke="#263238" stroke-width="0.5" stroke-linecap="round" stroke-linejoin="round"/>
<path d="M499.576 98.4698C499.576 98.4698 528.548 70.2999 540.745 68.0752C552.943 65.8505 563.625 74.7492 563.625 74.7492" stroke="#263238" stroke-width="0.5" stroke-linecap="round" stroke-linejoin="round"/>
<path d="M447.812 122.107C440.762 126.473 440.118 128.934 440.118 128.934" stroke="#263238" stroke-width="0.5" stroke-linecap="round" stroke-linejoin="round"/>
<path d="M562.851 124.429C562.851 124.429 558.276 113.306 542.26 108.119C526.244 102.933 501.106 102.182 501.106 102.182C501.106 102.182 465.828 113.417 452.93 119.27" stroke="#263238" stroke-width="0.5" stroke-linecap="round" stroke-linejoin="round"/>
<path d="M485.705 97.9551C494.285 100.361 501.106 102.126 501.106 102.126" stroke="#263238" stroke-width="0.5" stroke-linecap="round" stroke-linejoin="round"/>
<path d="M432.01 84.7877C440.289 85.2744 450.957 86.3728 456.891 88.8477C461.724 90.8639 471.262 93.7837 480.242 96.3838" stroke="#263238" stroke-width="0.5" stroke-linecap="round" stroke-linejoin="round"/>
<path d="M420.298 84.3986C420.298 84.3986 423.087 84.3986 427.205 84.5504" stroke="#263238" stroke-width="0.5" stroke-linecap="round" stroke-linejoin="round"/>
<path d="M499.576 106.631C499.576 106.631 478.241 137.763 476.697 145.174C475.779 149.57 475.267 154.037 475.167 158.522" stroke="#263238" stroke-width="0.5" stroke-linecap="round" stroke-linejoin="round"/>
<path d="M509.07 116.434C513.174 121.592 518.108 128.461 520.153 134.065C522.563 140.812 524.353 147.754 525.501 154.81" stroke="#263238" stroke-width="0.5" stroke-linecap="round" stroke-linejoin="round"/>
<path d="M502.622 108.856C502.622 108.856 504.324 110.691 506.683 113.514" stroke="#263238" stroke-width="0.5" stroke-linecap="round" stroke-linejoin="round"/>
<path d="M479.985 74.4849C479.985 74.4849 476.038 58.9817 478.484 44.4935C480.929 30.0053 512.231 0 512.231 0C510.476 9.32496 509.609 18.7875 509.642 28.2673C509.642 44.7299 501.191 88.0554 501.191 88.0554C501.191 88.0554 506.196 68.1307 517.078 58.7175C527.96 49.3044 562.108 34.5103 563.967 33.1198C565.826 31.7294 556.388 45.7171 550.211 56.4233C544.033 67.1296 510.786 95.8 510.786 95.8C510.786 95.8 529.376 89.2094 542.575 85.4692C555.773 81.729 585.288 101.362 585.288 101.362C585.288 101.362 562.78 98.8312 548.795 104.031C534.81 109.232 514.09 115.488 514.09 115.488C514.09 115.488 533.065 119.59 541.259 125.68C549.453 131.77 560.978 151.139 560.978 151.139C560.978 151.139 542.961 138.166 531.264 136.303C519.566 134.44 503.68 128.183 503.68 128.183C504.274 136.017 505.33 143.811 506.84 151.528C509.442 165.224 517.464 182.437 517.464 182.437C517.464 182.437 496.973 171.203 491.368 162.332C485.762 153.461 483.932 131.937 483.932 131.937C483.932 131.937 474.623 132.048 468.002 142.143C461.381 152.237 456.405 178.53 456.405 178.53C456.405 178.53 445.437 156.075 445.852 143.923C446.266 131.77 471.119 110.775 471.119 110.775C471.119 110.775 450.027 112.721 439.403 117.393C428.778 122.065 419.512 134.94 419.512 134.94C419.512 134.94 419.512 105.742 429.779 96.7455C440.046 87.7495 469.217 92.908 469.217 92.908L446.481 72.2741C440.761 67.1296 432.181 50.3472 432.181 50.3472C432.181 50.3472 441.648 49.1931 458.149 55.019C462.947 56.6708 467.354 59.2458 471.105 62.5903C474.857 65.9349 477.877 69.9802 479.985 74.4849Z" fill="#2E46CE"/>
<path d="M454.26 64.6683C452.544 63.2316 450.8 61.8411 449.027 60.4971" stroke="#263238" stroke-width="0.5" stroke-linecap="round" stroke-linejoin="round"/>
<path d="M495.6 35.7894C492.84 43.9512 489.78 54.6714 489.694 62.2074C489.551 75.9865 490.166 104.768 490.166 104.768C481.004 91.5565 470.393 79.3512 458.521 68.367" stroke="#263238" stroke-width="0.5" stroke-linecap="round" stroke-linejoin="round"/>
<path d="M499.976 24.0266C499.976 24.0266 498.975 26.4042 497.617 30.1028" stroke="#263238" stroke-width="0.5" stroke-linecap="round" stroke-linejoin="round"/>
<path d="M490.166 104.782C490.166 104.782 449.741 98.3307 438.502 103.392C427.262 108.453 423.93 121.773 423.93 121.773" stroke="#263238" stroke-width="0.5" stroke-linecap="round" stroke-linejoin="round"/>
<path d="M546.35 94.5486C554.701 94.1036 556.688 95.7443 556.688 95.7443" stroke="#263238" stroke-width="0.5" stroke-linecap="round" stroke-linejoin="round"/>
<path d="M454.331 161.734C454.331 161.734 451.386 150.11 461.267 136.817C471.148 123.525 491.153 108.661 491.153 108.661C491.153 108.661 526.53 97.7744 540.53 95.2161" stroke="#263238" stroke-width="0.5" stroke-linecap="round" stroke-linejoin="round"/>
<path d="M501.12 96.4954C495.644 103.281 491.111 108.662 491.111 108.662" stroke="#263238" stroke-width="0.5" stroke-linecap="round" stroke-linejoin="round"/>
<path d="M536.84 55.3666C530.391 60.4555 522.398 67.3937 519.052 72.7746C516.335 77.1545 510.357 84.9408 504.623 92.1432" stroke="#263238" stroke-width="0.5" stroke-linecap="round" stroke-linejoin="round"/>
<path d="M546.107 48.4146C546.107 48.4146 543.848 49.9857 540.602 52.4468" stroke="#263238" stroke-width="0.5" stroke-linecap="round" stroke-linejoin="round"/>
<path d="M495.057 111.401C495.057 111.401 531.064 124.582 536.755 129.74C540.129 132.794 543.22 136.13 545.993 139.71" stroke="#263238" stroke-width="0.5" stroke-linecap="round" stroke-linejoin="round"/>
<path d="M493.227 124.735C492.984 131.27 493.098 139.654 494.785 145.355C496.881 152.204 499.599 158.857 502.908 165.238" stroke="#263238" stroke-width="0.5" stroke-linecap="round" stroke-linejoin="round"/>
<path d="M493.914 114.946C493.914 114.946 493.628 117.379 493.413 121.022" stroke="#263238" stroke-width="0.5" stroke-linecap="round" stroke-linejoin="round"/>
</svg>
