<svg width="550" height="296" viewBox="0 0 550 296" fill="none" xmlns="http://www.w3.org/2000/svg">
<path d="M199.567 112.642C192.14 125.638 181.749 139.653 170.903 154C169.975 155.228 169.043 156.459 168.109 157.693C158.311 170.632 148.308 183.843 141.081 195.765C135.902 204.31 134.008 213.839 134.008 222.743C134.008 255.966 160.941 282.899 194.164 282.899H320.417H485.832C514.367 282.899 537.5 259.766 537.5 231.23C537.5 202.695 514.367 179.562 485.832 179.562H332C327.36 179.562 324.566 177.393 323.237 174.994C321.941 172.652 321.557 169.206 323.771 165.354C338.664 145.089 360.592 120.028 376.603 101.73C377.402 100.816 378.187 99.9194 378.955 99.041C387.244 89.5634 391.714 77.4277 391.714 64.9315C391.714 35.9744 368.239 12.5 339.282 12.5H61.1009C34.2594 12.5 12.5 34.2594 12.5 61.1009C12.5 87.9424 34.2594 109.702 61.1009 109.702H187.647C190.285 109.702 192.901 110.073 195.173 110.724C197.226 111.312 198.678 112.034 199.567 112.642ZM200.376 113.314C200.387 113.328 200.392 113.336 200.392 113.336C200.391 113.336 200.386 113.329 200.376 113.314Z" fill="#613AD3" stroke="white" stroke-width="25"/>
<path d="M210.319 213.739C209.045 215.415 208.355 217.464 208.355 219.57C208.355 224.892 212.669 229.207 217.991 229.207H305.963C308.867 229.207 311.222 231.561 311.222 234.465C311.222 237.37 308.867 239.724 305.963 239.724H217.421C206.021 239.724 196.779 230.482 196.779 219.082C196.779 214.563 198.262 210.17 200.999 206.575L296.852 80.7142C298.051 79.1394 298.701 77.2146 298.701 75.2351C298.701 70.2407 294.652 66.1919 289.657 66.1919H172.897C169.992 66.1919 167.638 63.8376 167.638 60.9334C167.638 58.0291 169.992 55.6748 172.897 55.6748H290.413C301.383 55.6748 310.276 64.568 310.276 75.5383C310.276 79.8799 308.854 84.1018 306.227 87.5583L210.319 213.739Z" fill="white"/>
<path d="M315.731 214.662C320.898 214.662 324.865 215.578 327.631 217.412C330.398 219.212 331.781 222.178 331.781 226.312C331.781 230.478 330.381 233.495 327.581 235.362C324.781 237.195 320.781 238.112 315.581 238.112H313.131V249.712H305.331V215.562C307.031 215.228 308.831 214.995 310.731 214.862C312.631 214.728 314.298 214.662 315.731 214.662ZM316.231 221.312C315.665 221.312 315.098 221.328 314.531 221.362C313.998 221.395 313.531 221.428 313.131 221.462V231.462H315.581C318.281 231.462 320.315 231.095 321.681 230.362C323.048 229.628 323.731 228.262 323.731 226.262C323.731 225.295 323.548 224.495 323.181 223.862C322.848 223.228 322.348 222.728 321.681 222.362C321.048 221.962 320.265 221.695 319.331 221.562C318.398 221.395 317.365 221.312 316.231 221.312ZM357.291 249.712C356.924 248.512 356.508 247.278 356.041 246.012C355.608 244.745 355.174 243.478 354.741 242.212H341.241C340.808 243.478 340.358 244.745 339.891 246.012C339.458 247.278 339.058 248.512 338.691 249.712H330.591C331.891 245.978 333.124 242.528 334.291 239.362C335.458 236.195 336.591 233.212 337.691 230.412C338.824 227.612 339.924 224.962 340.991 222.462C342.091 219.928 343.224 217.462 344.391 215.062H351.841C352.974 217.462 354.091 219.928 355.191 222.462C356.291 224.962 357.391 227.612 358.491 230.412C359.624 233.212 360.774 236.195 361.941 239.362C363.108 242.528 364.341 245.978 365.641 249.712H357.291ZM347.941 222.912C347.774 223.412 347.524 224.095 347.191 224.962C346.858 225.828 346.474 226.828 346.041 227.962C345.608 229.095 345.124 230.345 344.591 231.712C344.091 233.078 343.574 234.512 343.041 236.012H352.891C352.358 234.512 351.841 233.078 351.341 231.712C350.841 230.345 350.358 229.095 349.891 227.962C349.458 226.828 349.074 225.828 348.741 224.962C348.408 224.095 348.141 223.412 347.941 222.912ZM380.276 214.662C385.476 214.662 389.46 215.595 392.226 217.462C394.993 219.295 396.376 222.162 396.376 226.062C396.376 228.495 395.81 230.478 394.676 232.012C393.576 233.512 391.976 234.695 389.876 235.562C390.576 236.428 391.31 237.428 392.076 238.562C392.843 239.662 393.593 240.828 394.326 242.062C395.093 243.262 395.826 244.528 396.526 245.862C397.226 247.162 397.876 248.445 398.476 249.712H389.726C389.093 248.578 388.443 247.428 387.776 246.262C387.143 245.095 386.476 243.962 385.776 242.862C385.11 241.762 384.443 240.728 383.776 239.762C383.11 238.762 382.443 237.862 381.776 237.062H377.926V249.712H370.126V215.562C371.826 215.228 373.576 214.995 375.376 214.862C377.21 214.728 378.843 214.662 380.276 214.662ZM380.726 221.312C380.16 221.312 379.643 221.328 379.176 221.362C378.743 221.395 378.326 221.428 377.926 221.462V230.862H380.126C383.06 230.862 385.16 230.495 386.426 229.762C387.693 229.028 388.326 227.778 388.326 226.012C388.326 224.312 387.676 223.112 386.376 222.412C385.11 221.678 383.226 221.312 380.726 221.312ZM418.397 250.412C412.764 250.412 408.464 248.845 405.497 245.712C402.564 242.578 401.097 238.128 401.097 232.362C401.097 229.495 401.547 226.945 402.447 224.712C403.347 222.445 404.58 220.545 406.147 219.012C407.714 217.445 409.58 216.262 411.747 215.462C413.914 214.662 416.264 214.262 418.797 214.262C420.264 214.262 421.597 214.378 422.797 214.612C423.997 214.812 425.047 215.062 425.947 215.362C426.847 215.628 427.597 215.912 428.197 216.212C428.797 216.512 429.23 216.745 429.497 216.912L427.247 223.212C426.18 222.645 424.93 222.162 423.497 221.762C422.097 221.362 420.497 221.162 418.697 221.162C417.497 221.162 416.314 221.362 415.147 221.762C414.014 222.162 412.997 222.812 412.097 223.712C411.23 224.578 410.53 225.712 409.997 227.112C409.464 228.512 409.197 230.212 409.197 232.212C409.197 233.812 409.364 235.312 409.697 236.712C410.064 238.078 410.63 239.262 411.397 240.262C412.197 241.262 413.23 242.062 414.497 242.662C415.764 243.228 417.297 243.512 419.097 243.512C420.23 243.512 421.247 243.445 422.147 243.312C423.047 243.178 423.847 243.028 424.547 242.862C425.247 242.662 425.864 242.445 426.397 242.212C426.93 241.978 427.414 241.762 427.847 241.562L429.997 247.812C428.897 248.478 427.347 249.078 425.347 249.612C423.347 250.145 421.03 250.412 418.397 250.412ZM435.019 249.712V215.062H458.419V221.612H442.819V228.412H456.669V234.812H442.819V243.162H459.569V249.712H435.019ZM488.491 243.012V249.712H465.341V215.062H473.141V243.012H488.491Z" fill="white"/>
<path d="M89.1423 42.8825C94.309 42.8825 98.2756 43.7992 101.042 45.6325C103.809 47.4325 105.192 50.3992 105.192 54.5325C105.192 58.6992 103.792 61.7158 100.992 63.5825C98.1923 65.4158 94.1923 66.3325 88.9923 66.3325H86.5423V77.9325H78.7423V43.7825C80.4423 43.4492 82.2423 43.2158 84.1423 43.0825C86.0423 42.9492 87.709 42.8825 89.1423 42.8825ZM89.6423 49.5325C89.0756 49.5325 88.509 49.5492 87.9423 49.5825C87.409 49.6158 86.9423 49.6492 86.5423 49.6825V59.6825H88.9923C91.6923 59.6825 93.7256 59.3158 95.0923 58.5825C96.459 57.8492 97.1423 56.4825 97.1423 54.4825C97.1423 53.5158 96.959 52.7158 96.5923 52.0825C96.259 51.4492 95.759 50.9492 95.0923 50.5825C94.459 50.1825 93.6756 49.9158 92.7423 49.7825C91.809 49.6158 90.7756 49.5325 89.6423 49.5325ZM110.92 77.9325V43.2825H134.32V49.8325H118.72V56.6325H132.57V63.0325H118.72V71.3825H135.47V77.9325H110.92ZM164.492 77.9325C162.259 73.9658 159.842 70.0492 157.242 66.1825C154.642 62.3158 151.876 58.6658 148.942 55.2325V77.9325H141.242V43.2825H147.592C148.692 44.3825 149.909 45.7325 151.242 47.3325C152.576 48.9325 153.926 50.6492 155.292 52.4825C156.692 54.2825 158.076 56.1658 159.442 58.1325C160.809 60.0658 162.092 61.9325 163.292 63.7325V43.2825H171.042V77.9325H164.492Z" fill="white"/>
</svg>
