<svg width="63" height="56" viewBox="0 0 63 56" fill="none" xmlns="http://www.w3.org/2000/svg">
<path d="M42.9796 14.5V8C42.9796 5.23858 40.741 3 37.9796 3H8.97961C6.21819 3 3.97961 5.23858 3.97961 8V48C3.97961 50.7614 6.21819 53 8.97961 53H37.9796C40.741 53 42.9796 50.7614 42.9796 48V40.5" stroke="white" stroke-width="6" stroke-linecap="round"/>
<path d="M25.9796 26C24.875 26 23.9796 26.8954 23.9796 28C23.9796 29.1046 24.875 30 25.9796 30V26ZM25.9796 30L58.9796 30V26L25.9796 26V30Z" fill="white"/>
<path d="M51.9796 38L60.3593 28.6681C60.7005 28.2881 60.7005 27.7119 60.3593 27.3319L51.9796 18" stroke="white" stroke-width="3" stroke-linecap="round"/>
</svg>
