<svg width="550" height="296" viewBox="0 0 550 296" fill="none" xmlns="http://www.w3.org/2000/svg">
<path d="M199.742 112.403L199.73 112.424L199.718 112.444C192.281 125.514 181.823 139.623 170.903 154.068C169.975 155.296 169.043 156.527 168.109 157.761C158.311 170.7 148.308 183.911 141.081 195.833C135.902 204.377 134.008 213.906 134.008 222.81C134.008 256.033 160.941 282.966 194.164 282.966H320.417H485.832C514.367 282.966 537.5 259.834 537.5 231.298C537.5 202.762 514.367 179.629 485.832 179.629H333.109C324.586 179.629 320.586 171.189 323.791 165.394C338.684 145.133 360.599 120.087 376.603 101.797C377.402 100.884 378.187 99.9869 378.955 99.1085C387.244 89.6309 391.714 77.4952 391.714 64.999C391.714 36.0419 368.239 12.5675 339.282 12.5675H61.1009C34.2594 12.5675 12.5 34.3269 12.5 61.1684C12.5 88.0099 34.2594 109.769 61.1009 109.769H189.282C191.891 109.769 194.334 110.14 196.358 110.75C198.006 111.247 199.127 111.826 199.807 112.287C199.787 112.324 199.765 112.363 199.742 112.403ZM200.181 111.433C200.182 111.432 200.18 111.445 200.173 111.47C200.177 111.445 200.18 111.433 200.181 111.433Z" fill="white" stroke="#613AD3" stroke-width="25"/>
<path d="M210.319 213.806C209.045 215.483 208.355 217.531 208.355 219.638V219.638C208.355 224.96 212.669 229.274 217.991 229.274H305.963C308.867 229.274 311.222 231.629 311.222 234.533V234.533C311.222 237.437 308.867 239.791 305.963 239.791H217.421C206.021 239.791 196.779 230.55 196.779 219.149V219.149C196.779 214.631 198.262 210.237 200.999 206.643L296.852 80.7817C298.051 79.2069 298.701 77.2821 298.701 75.3026V75.3026C298.701 70.3082 294.652 66.2594 289.657 66.2594H172.897C169.992 66.2594 167.638 63.9051 167.638 61.0009V61.0009C167.638 58.0966 169.992 55.7423 172.897 55.7423H290.413C301.383 55.7423 310.276 64.6355 310.276 75.6059V75.6059C310.276 79.9474 308.854 84.1693 306.227 87.6258L210.319 213.806Z" fill="#613AD3"/>
<path d="M315.731 214.729C320.898 214.729 324.865 215.646 327.631 217.479C330.398 219.279 331.781 222.246 331.781 226.379C331.781 230.546 330.381 233.563 327.581 235.429C324.781 237.263 320.781 238.179 315.581 238.179H313.131V249.779H305.331V215.629C307.031 215.296 308.831 215.063 310.731 214.929C312.631 214.796 314.298 214.729 315.731 214.729ZM316.231 221.379C315.665 221.379 315.098 221.396 314.531 221.429C313.998 221.463 313.531 221.496 313.131 221.529V231.529H315.581C318.281 231.529 320.315 231.163 321.681 230.429C323.048 229.696 323.731 228.329 323.731 226.329C323.731 225.363 323.548 224.563 323.181 223.929C322.848 223.296 322.348 222.796 321.681 222.429C321.048 222.029 320.265 221.763 319.331 221.629C318.398 221.463 317.365 221.379 316.231 221.379ZM357.291 249.779C356.924 248.579 356.508 247.346 356.041 246.079C355.608 244.813 355.174 243.546 354.741 242.279H341.241C340.808 243.546 340.358 244.813 339.891 246.079C339.458 247.346 339.058 248.579 338.691 249.779H330.591C331.891 246.046 333.124 242.596 334.291 239.429C335.458 236.263 336.591 233.279 337.691 230.479C338.824 227.679 339.924 225.029 340.991 222.529C342.091 219.996 343.224 217.529 344.391 215.129H351.841C352.974 217.529 354.091 219.996 355.191 222.529C356.291 225.029 357.391 227.679 358.491 230.479C359.624 233.279 360.774 236.263 361.941 239.429C363.108 242.596 364.341 246.046 365.641 249.779H357.291ZM347.941 222.979C347.774 223.479 347.524 224.163 347.191 225.029C346.858 225.896 346.474 226.896 346.041 228.029C345.608 229.163 345.124 230.413 344.591 231.779C344.091 233.146 343.574 234.579 343.041 236.079H352.891C352.358 234.579 351.841 233.146 351.341 231.779C350.841 230.413 350.358 229.163 349.891 228.029C349.458 226.896 349.074 225.896 348.741 225.029C348.408 224.163 348.141 223.479 347.941 222.979ZM380.276 214.729C385.476 214.729 389.46 215.663 392.226 217.529C394.993 219.363 396.376 222.229 396.376 226.129C396.376 228.563 395.81 230.546 394.676 232.079C393.576 233.579 391.976 234.763 389.876 235.629C390.576 236.496 391.31 237.496 392.076 238.629C392.843 239.729 393.593 240.896 394.326 242.129C395.093 243.329 395.826 244.596 396.526 245.929C397.226 247.229 397.876 248.513 398.476 249.779H389.726C389.093 248.646 388.443 247.496 387.776 246.329C387.143 245.163 386.476 244.029 385.776 242.929C385.11 241.829 384.443 240.796 383.776 239.829C383.11 238.829 382.443 237.929 381.776 237.129H377.926V249.779H370.126V215.629C371.826 215.296 373.576 215.063 375.376 214.929C377.21 214.796 378.843 214.729 380.276 214.729ZM380.726 221.379C380.16 221.379 379.643 221.396 379.176 221.429C378.743 221.463 378.326 221.496 377.926 221.529V230.929H380.126C383.06 230.929 385.16 230.563 386.426 229.829C387.693 229.096 388.326 227.846 388.326 226.079C388.326 224.379 387.676 223.179 386.376 222.479C385.11 221.746 383.226 221.379 380.726 221.379ZM418.397 250.479C412.764 250.479 408.464 248.913 405.497 245.779C402.564 242.646 401.097 238.196 401.097 232.429C401.097 229.563 401.547 227.013 402.447 224.779C403.347 222.513 404.58 220.613 406.147 219.079C407.714 217.513 409.58 216.329 411.747 215.529C413.914 214.729 416.264 214.329 418.797 214.329C420.264 214.329 421.597 214.446 422.797 214.679C423.997 214.879 425.047 215.129 425.947 215.429C426.847 215.696 427.597 215.979 428.197 216.279C428.797 216.579 429.23 216.813 429.497 216.979L427.247 223.279C426.18 222.713 424.93 222.229 423.497 221.829C422.097 221.429 420.497 221.229 418.697 221.229C417.497 221.229 416.314 221.429 415.147 221.829C414.014 222.229 412.997 222.879 412.097 223.779C411.23 224.646 410.53 225.779 409.997 227.179C409.464 228.579 409.197 230.279 409.197 232.279C409.197 233.879 409.364 235.379 409.697 236.779C410.064 238.146 410.63 239.329 411.397 240.329C412.197 241.329 413.23 242.129 414.497 242.729C415.764 243.296 417.297 243.579 419.097 243.579C420.23 243.579 421.247 243.513 422.147 243.379C423.047 243.246 423.847 243.096 424.547 242.929C425.247 242.729 425.864 242.513 426.397 242.279C426.93 242.046 427.414 241.829 427.847 241.629L429.997 247.879C428.897 248.546 427.347 249.146 425.347 249.679C423.347 250.213 421.03 250.479 418.397 250.479ZM435.019 249.779V215.129H458.419V221.679H442.819V228.479H456.669V234.879H442.819V243.229H459.569V249.779H435.019ZM488.491 243.079V249.779H465.341V215.129H473.141V243.079H488.491Z" fill="#613AD3"/>
<path d="M89.1423 42.95C94.309 42.95 98.2757 43.8667 101.042 45.7C103.809 47.5 105.192 50.4667 105.192 54.6C105.192 58.7667 103.792 61.7833 100.992 63.65C98.1923 65.4833 94.1923 66.4 88.9923 66.4H86.5423V78H78.7423V43.85C80.4423 43.5167 82.2423 43.2833 84.1423 43.15C86.0423 43.0167 87.709 42.95 89.1423 42.95ZM89.6423 49.6C89.0757 49.6 88.509 49.6167 87.9423 49.65C87.409 49.6833 86.9423 49.7167 86.5423 49.75V59.75H88.9923C91.6923 59.75 93.7257 59.3833 95.0923 58.65C96.459 57.9167 97.1423 56.55 97.1423 54.55C97.1423 53.5833 96.959 52.7833 96.5923 52.15C96.259 51.5167 95.759 51.0167 95.0923 50.65C94.459 50.25 93.6757 49.9833 92.7423 49.85C91.809 49.6833 90.7757 49.6 89.6423 49.6ZM110.92 78V43.35H134.32V49.9H118.72V56.7H132.57V63.1H118.72V71.45H135.47V78H110.92ZM164.492 78C162.259 74.0333 159.842 70.1167 157.242 66.25C154.642 62.3833 151.876 58.7333 148.942 55.3V78H141.242V43.35H147.592C148.692 44.45 149.909 45.8 151.242 47.4C152.576 49 153.926 50.7167 155.292 52.55C156.692 54.35 158.076 56.2333 159.442 58.2C160.809 60.1333 162.092 62 163.292 63.8V43.35H171.042V78H164.492Z" fill="#613AD3"/>
</svg>
