<svg width="62" height="57" viewBox="0 0 62 57" fill="none" xmlns="http://www.w3.org/2000/svg">
<path d="M42 15V8.5C42 5.73858 39.7614 3.5 37 3.5H8C5.23858 3.5 3 5.73858 3 8.5V48.5C3 51.2614 5.23858 53.5 8 53.5H37C39.7614 53.5 42 51.2614 42 48.5V41" stroke="#613AD3" stroke-width="6" stroke-linecap="round"/>
<path d="M25 26.5C23.8954 26.5 23 27.3954 23 28.5C23 29.6046 23.8954 30.5 25 30.5V26.5ZM25 30.5L58 30.5V26.5L25 26.5V30.5Z" fill="#613AD3"/>
<path d="M51 38.5L59.3796 29.1681C59.7209 28.7881 59.7209 28.2119 59.3796 27.8319L51 18.5" stroke="#613AD3" stroke-width="3" stroke-linecap="round"/>
</svg>
