<svg width="51" height="45" viewBox="0 0 51 45" fill="none" xmlns="http://www.w3.org/2000/svg">
<circle cx="10" cy="37.5" r="6" stroke="#613AD3" stroke-width="3"/>
<circle cx="37" cy="37.5" r="6" stroke="#613AD3" stroke-width="3"/>
<path d="M30 30.5V4C30 2.89543 29.1046 2 28 2H4C2.89543 2 2 2.89543 2 4V28.5C2 29.6046 2.89543 30.5 4 30.5H30ZM30 30.5H46.0021C46.89 30.5 47.669 29.9169 47.8598 29.0498C48.3982 26.6025 49.1878 21.6261 47.5671 18.6208C47.5232 18.5394 47.4834 18.458 47.4435 18.3746C47.1901 17.8444 46.0349 15.7342 43 14C39.5 12 37.5 12 37.5 12" stroke="#613AD3" stroke-width="4"/>
<path d="M20.717 10.772L10.9676 20.9127" stroke="#613AD3" stroke-width="4" stroke-linecap="round"/>
<path d="M20.9126 20.717L10.772 10.9676" stroke="#613AD3" stroke-width="4" stroke-linecap="round"/>
</svg>
