<svg width="52" height="45" viewBox="0 0 52 45" fill="none" xmlns="http://www.w3.org/2000/svg">
<circle cx="10.5334" cy="37.5" r="6" stroke="#613AD3" stroke-width="3"/>
<circle cx="37.5334" cy="37.5" r="6" stroke="#613AD3" stroke-width="3"/>
<path d="M30.5334 30.5V4C30.5334 2.89543 29.6379 2 28.5334 2H4.53336C3.42879 2 2.53336 2.89543 2.53336 4V28.5C2.53336 29.6046 3.42879 30.5 4.53336 30.5H30.5334ZM30.5334 30.5H46.5355C47.4234 30.5 48.2023 29.9169 48.3931 29.0498C48.9315 26.6025 49.7212 21.6261 48.1004 18.6208C48.0565 18.5394 48.0167 18.458 47.9769 18.3746C47.7235 17.8444 46.5683 15.7342 43.5334 14C40.0334 12 38.0334 12 38.0334 12" stroke="#613AD3" stroke-width="4"/>
<circle cx="16.5334" cy="16" r="9" stroke="#613AD3" stroke-width="2"/>
<path d="M16.7834 13C16.7834 12.4477 16.3356 12 15.7834 12C15.2311 12 14.7834 12.4477 14.7834 13H16.7834ZM14.7834 13V18.0249H16.7834V13H14.7834Z" fill="#613AD3"/>
<path d="M19.5334 18.0125C20.0856 18.0125 20.5334 17.5647 20.5334 17.0125C20.5334 16.4602 20.0856 16.0125 19.5334 16.0125V18.0125ZM19.5334 16.0125H15.5334V18.0125H19.5334V16.0125Z" fill="#613AD3"/>
</svg>
