<svg width="51" height="45" viewBox="0 0 51 45" fill="none" xmlns="http://www.w3.org/2000/svg">
<circle cx="10.0667" cy="37.5" r="6" stroke="white" stroke-width="3"/>
<circle cx="37.0667" cy="37.5" r="6" stroke="white" stroke-width="3"/>
<path d="M30.0667 30.5V4C30.0667 2.89543 29.1713 2 28.0667 2H4.06671C2.96214 2 2.06671 2.89543 2.06671 4V28.5C2.06671 29.6046 2.96214 30.5 4.06671 30.5H30.0667ZM30.0667 30.5H46.0689C46.9567 30.5 47.7357 29.9169 47.9265 29.0498C48.4649 26.6025 49.2545 21.6261 47.6338 18.6208C47.5899 18.5394 47.5501 18.458 47.5102 18.3746C47.2568 17.8444 46.1016 15.7342 43.0667 14C39.5667 12 37.5667 12 37.5667 12" stroke="white" stroke-width="4"/>
<circle cx="15.9708" cy="16" r="9" stroke="white" stroke-width="2"/>
<path d="M16.2208 13C16.2208 12.4477 15.773 12 15.2208 12C14.6685 12 14.2208 12.4477 14.2208 13H16.2208ZM14.2208 13V18.0249H16.2208V13H14.2208Z" fill="white"/>
<path d="M18.9708 18.0125C19.523 18.0125 19.9708 17.5647 19.9708 17.0125C19.9708 16.4602 19.523 16.0125 18.9708 16.0125V18.0125ZM18.9708 16.0125H14.9708V18.0125H18.9708V16.0125Z" fill="white"/>
</svg>
