<svg width="52" height="45" viewBox="0 0 52 45" fill="none" xmlns="http://www.w3.org/2000/svg">
<circle cx="10.8412" cy="37.5" r="6" stroke="#613AD3" stroke-width="3"/>
<circle cx="37.8412" cy="37.5" r="6" stroke="#613AD3" stroke-width="3"/>
<path d="M30.8412 30.5V4C30.8412 2.89543 29.9458 2 28.8412 2H4.84119C3.73662 2 2.84119 2.89543 2.84119 4V28.5C2.84119 29.6046 3.73662 30.5 4.84119 30.5H30.8412ZM30.8412 30.5H46.8433C47.7312 30.5 48.5102 29.9169 48.7009 29.0498C49.2394 26.6025 50.029 21.6261 48.4083 18.6208C48.3644 18.5394 48.3246 18.458 48.2847 18.3746C48.0313 17.8444 46.8761 15.7342 43.8412 14C40.3412 12 38.3412 12 38.3412 12" stroke="#613AD3" stroke-width="4"/>
<path d="M11.3412 18.75L14.0553 21.4641C14.4731 21.8819 15.1601 21.8483 15.5351 21.3918L23.7641 11.3739" stroke="#613AD3" stroke-width="4" stroke-linecap="round"/>
</svg>
