<svg width="47" height="47" viewBox="0 0 47 47" fill="none" xmlns="http://www.w3.org/2000/svg">
<path d="M13.3412 12L23.8412 1.5H34.3412L23.8412 12V30.5L20.3412 28.5L17.8412 30.5L16.3412 28.5L13.3412 30.5V12Z" fill="#613AD3"/>
<path d="M1.84119 12.5H35.3412M1.84119 12.5V43.5C1.84119 44.6046 2.73662 45.5 3.84119 45.5H35.3412M1.84119 12.5L12.2554 2.08579C12.6305 1.71071 13.1392 1.5 13.6696 1.5H45.8412M35.3412 12.5V45.5M35.3412 12.5L45.8412 1.5M35.3412 45.5L45.2205 36.0911C45.6169 35.7136 45.8412 35.1902 45.8412 34.6429V1.5" stroke="#613AD3" stroke-width="2"/>
<rect x="5.59119" y="35.75" width="12.5" height="6.5" stroke="#613AD3" stroke-width="0.5"/>
<line x1="7.84119" y1="36.5" x2="7.84119" y2="41.5" stroke="#613AD3"/>
<line x1="7.84119" y1="36.5" x2="7.84119" y2="41.5" stroke="#613AD3"/>
<line x1="7.84119" y1="36.5" x2="7.84119" y2="41.5" stroke="#613AD3"/>
<line x1="9.59119" y1="36.5" x2="9.59119" y2="41.5" stroke="#613AD3" stroke-width="0.5"/>
<line x1="9.59119" y1="36.5" x2="9.59119" y2="41.5" stroke="#613AD3" stroke-width="0.5"/>
<line x1="9.59119" y1="36.5" x2="9.59119" y2="41.5" stroke="#613AD3" stroke-width="0.5"/>
<line x1="11.8412" y1="36.5" x2="11.8412" y2="41.5" stroke="#613AD3"/>
<line x1="11.8412" y1="36.5" x2="11.8412" y2="41.5" stroke="#613AD3"/>
<line x1="11.8412" y1="36.5" x2="11.8412" y2="41.5" stroke="#613AD3"/>
<line x1="14.3412" y1="36.5" x2="14.3412" y2="41.5" stroke="#613AD3" stroke-width="2"/>
<line x1="14.3412" y1="36.5" x2="14.3412" y2="41.5" stroke="#613AD3" stroke-width="2"/>
<line x1="14.3412" y1="36.5" x2="14.3412" y2="41.5" stroke="#613AD3" stroke-width="2"/>
<line x1="16.5912" y1="36.5" x2="16.5912" y2="41.5" stroke="#613AD3" stroke-width="0.5"/>
<line x1="16.5912" y1="36.5" x2="16.5912" y2="41.5" stroke="#613AD3" stroke-width="0.5"/>
<line x1="16.5912" y1="36.5" x2="16.5912" y2="41.5" stroke="#613AD3" stroke-width="0.5"/>
</svg>
