<svg width="51" height="45" viewBox="0 0 51 45" fill="none" xmlns="http://www.w3.org/2000/svg">
<circle cx="10.3745" cy="37.5" r="6" stroke="white" stroke-width="3"/>
<circle cx="37.3745" cy="37.5" r="6" stroke="white" stroke-width="3"/>
<path d="M30.3745 30.5V4C30.3745 2.89543 29.4791 2 28.3745 2H4.37451C3.26994 2 2.37451 2.89543 2.37451 4V28.5C2.37451 29.6046 3.26994 30.5 4.37451 30.5H30.3745ZM30.3745 30.5H46.3767C47.2645 30.5 48.0435 29.9169 48.2343 29.0498C48.7727 26.6025 49.5623 21.6261 47.9416 18.6208C47.8977 18.5394 47.8579 18.458 47.818 18.3746C47.5646 17.8444 46.4094 15.7342 43.3745 14C39.8745 12 37.8745 12 37.8745 12" stroke="white" stroke-width="4"/>
<path d="M9.87451 18.75L12.5886 21.4641C13.0064 21.8819 13.6934 21.8483 14.0685 21.3918L22.2974 11.3739" stroke="white" stroke-width="4" stroke-linecap="round"/>
</svg>
