<svg width="46" height="46" viewBox="0 0 46 46" fill="none" xmlns="http://www.w3.org/2000/svg">
<path d="M12.5 11.5L23 1H33.5L23 11.5V30L19.5 28L17 30L15.5 28L12.5 30V11.5Z" fill="white"/>
<path d="M1 12H34.5M1 12V43C1 44.1046 1.89543 45 3 45H34.5M1 12L11.4142 1.58579C11.7893 1.21071 12.298 1 12.8284 1H45M34.5 12V45M34.5 12L45 1M34.5 45L44.3793 35.5911C44.7757 35.2136 45 34.6902 45 34.1429V1" stroke="white" stroke-width="2"/>
<rect x="4.75" y="35.25" width="12.5" height="6.5" stroke="white" stroke-width="0.5"/>
<line x1="7" y1="36" x2="7" y2="41" stroke="white"/>
<line x1="7" y1="36" x2="7" y2="41" stroke="white"/>
<line x1="7" y1="36" x2="7" y2="41" stroke="white"/>
<line x1="8.75" y1="36" x2="8.75" y2="41" stroke="white" stroke-width="0.5"/>
<line x1="8.75" y1="36" x2="8.75" y2="41" stroke="white" stroke-width="0.5"/>
<line x1="8.75" y1="36" x2="8.75" y2="41" stroke="white" stroke-width="0.5"/>
<line x1="11" y1="36" x2="11" y2="41" stroke="white"/>
<line x1="11" y1="36" x2="11" y2="41" stroke="white"/>
<line x1="11" y1="36" x2="11" y2="41" stroke="white"/>
<line x1="13.5" y1="36" x2="13.5" y2="41" stroke="white" stroke-width="2"/>
<line x1="13.5" y1="36" x2="13.5" y2="41" stroke="white" stroke-width="2"/>
<line x1="13.5" y1="36" x2="13.5" y2="41" stroke="white" stroke-width="2"/>
<line x1="15.75" y1="36" x2="15.75" y2="41" stroke="white" stroke-width="0.5"/>
<line x1="15.75" y1="36" x2="15.75" y2="41" stroke="white" stroke-width="0.5"/>
<line x1="15.75" y1="36" x2="15.75" y2="41" stroke="white" stroke-width="0.5"/>
</svg>
