<svg width="54" height="37" viewBox="0 0 54 37" fill="none" xmlns="http://www.w3.org/2000/svg">
<path d="M52.0667 11V6.25C52.0667 3.48858 49.8281 1.25 47.0667 1.25H7.06671C4.30529 1.25 2.06671 3.48858 2.06671 6.25V30.75C2.06671 33.5114 4.30529 35.75 7.06671 35.75H47.0667C49.8281 35.75 52.0667 33.5114 52.0667 30.75V19.75" stroke="#613AD3" stroke-width="2.5" stroke-linecap="round"/>
<path d="M27.0667 12.75H46.0667" stroke="#613AD3" stroke-width="2.5" stroke-linecap="round"/>
<path d="M25.0667 17.75H44.0667" stroke="#613AD3" stroke-width="2.5" stroke-linecap="round"/>
<path d="M27.0667 22.75H46.0667" stroke="#613AD3" stroke-width="2.5" stroke-linecap="round"/>
<circle cx="15.5667" cy="14.25" r="3" fill="#613AD3"/>
<path d="M9.53604 24.6016C10.2591 21.9487 12.687 20 15.5667 20C18.4465 20 20.8743 21.9487 21.5974 24.6016C21.6123 24.6562 21.6078 24.6882 21.6023 24.7086C21.5958 24.733 21.5792 24.7703 21.5386 24.8145C21.4514 24.9091 21.2824 25 21.0667 25H10.0667C9.85098 25 9.68198 24.9091 9.59485 24.8145C9.55422 24.7703 9.53763 24.733 9.53112 24.7086C9.52566 24.6882 9.52117 24.6562 9.53604 24.6016Z" fill="#613AD3" stroke="#613AD3" stroke-width="2.5"/>
</svg>
