<svg width="54" height="38" viewBox="0 0 54 38" fill="none" xmlns="http://www.w3.org/2000/svg">
<path d="M52.0667 11.75V7C52.0667 4.23858 49.8281 2 47.0666 2H7.06665C4.30523 2 2.06665 4.23858 2.06665 7V31.5C2.06665 34.2614 4.30523 36.5 7.06665 36.5H47.0667C49.8281 36.5 52.0667 34.2614 52.0667 31.5V20.5" stroke="white" stroke-width="2.5" stroke-linecap="round"/>
<path d="M27.0667 13.5H46.0667" stroke="white" stroke-width="2.5" stroke-linecap="round"/>
<path d="M25.0667 18.5H44.0667" stroke="white" stroke-width="2.5" stroke-linecap="round"/>
<path d="M27.0667 23.5H46.0667" stroke="white" stroke-width="2.5" stroke-linecap="round"/>
<circle cx="15.5667" cy="15" r="3" fill="#FFFDFD"/>
<path d="M9.53598 25.3516C10.2591 22.6987 12.6869 20.75 15.5667 20.75C18.4464 20.75 20.8742 22.6987 21.5973 25.3516C21.6122 25.4062 21.6077 25.4382 21.6022 25.4586C21.5957 25.483 21.5791 25.5203 21.5385 25.5645C21.4514 25.6591 21.2824 25.75 21.0667 25.75H10.0667C9.85092 25.75 9.68192 25.6591 9.59479 25.5645C9.55416 25.5203 9.53757 25.483 9.53106 25.4586C9.5256 25.4382 9.52111 25.4062 9.53598 25.3516Z" fill="#FFFDFD" stroke="white" stroke-width="2.5"/>
</svg>
