<svg width="400" height="400" viewBox="0 0 400 400" fill="none" xmlns="http://www.w3.org/2000/svg">
<circle cx="200" cy="200" r="200" fill="#79CCFF"/>
<path d="M174.335 213.343L139.341 293.182C139.341 293.182 138.008 293.749 142.658 294.049C147.308 294.349 161.459 296.599 165.559 296.599C169.658 296.599 178.958 296.599 178.958 296.599V213.343H174.335Z" fill="black"/>
<path d="M245.658 182.034C243.758 179.899 239.959 178.4 238.058 177.7C236.158 177 230.459 175.427 227.258 175.464C224.058 175.5 202.927 184.576 199.643 188.188C196.359 191.8 192.658 208.04 192.658 208.04H251.358L245.658 182.034Z" fill="black"/>
<path d="M205.208 198.851L175.658 215.45V296.6H258.308V206.3L235.774 192.725L205.208 198.851Z" fill="white"/>
<path d="M234.159 164.975C234.159 164.975 232.959 172.175 233.634 177.725C234.309 183.275 235.775 192.725 235.775 192.725C235.775 192.725 227.784 205.925 211.509 211.4C208.134 208.85 203.709 200.525 203.709 200.525V164.975H234.159Z" fill="#FFD4C0"/>
<path d="M229.92 177.935V164.975H203.707V200.525C203.707 200.525 205.809 204.48 208.22 207.773C209.04 208.06 209.813 208.135 210.494 207.9C215.133 206.301 227.058 189.8 229.92 177.935Z" fill="#FB9687"/>
<path d="M229.92 244.663V296.6H286.358C286.358 296.6 276.233 221.45 275.633 220.175C275.033 218.9 273.658 218.1 271.958 217C270.258 215.9 252.454 202.773 252.454 202.773L229.92 244.663Z" fill="#613AD3"/>
<path d="M231.137 296.6H286.357C286.357 296.6 282.032 264.498 278.867 241.901H264.937L231.137 296.6Z" fill="black"/>
<path d="M191.659 205L193.658 240.9V296.6H165.559C165.559 296.6 173.858 217.2 173.958 215.8C174.058 214.4 173.858 213 175.658 212.1C177.458 211.2 191.659 205 191.659 205Z" fill="#613AD3"/>
<path d="M193.659 260.994V240.9L192.167 214.121H182.248C182.248 214.121 186.79 244.867 193.659 260.994Z" fill="black"/>
<path d="M251.402 224.249C257.033 219.226 266.438 217.445 271.696 216.824C268.952 214.937 252.454 202.773 252.454 202.773L229.92 244.662V257.761C234.346 250.746 246.421 231.653 251.402 224.249Z" fill="black"/>
<path d="M229.92 244.663C229.92 244.663 251.047 223.741 265.252 212.171L267.034 213.471C267.034 213.471 266.158 208.801 265.058 206.001C263.957 203.2 251.657 190.929 249.958 188.415C248.258 185.901 246.457 182.37 245.657 182.035C244.858 181.7 240.358 189.492 238.958 191.646C237.558 193.801 232.683 223.725 229.92 244.663Z" fill="#613AD3"/>
<path d="M193.658 241.9C193.658 241.9 199.427 198.6 199.643 194.7C199.858 190.8 199.643 188.187 199.643 188.187C199.643 188.187 192.593 191.465 190.692 193.06C188.792 194.656 186.758 200.2 185.858 201.2C184.958 202.2 182.958 204.4 181.958 205.8C180.958 207.2 180.659 208.828 180.708 209.814C180.758 210.8 188.858 230.8 193.658 241.9Z" fill="#613AD3"/>
<path d="M234.959 231.9C234.13 231.9 233.459 232.571 233.459 233.4V266.2C233.459 267.028 234.13 267.7 234.959 267.7C235.788 267.7 236.459 267.028 236.459 266.2V233.4C236.459 232.571 235.787 231.9 234.959 231.9Z" fill="#FFB60A"/>
<path d="M236.459 263.85L233.459 264.537V266.2C233.459 266.561 233.592 266.887 233.803 267.145L236.459 265.947V263.85Z" fill="#FF0000"/>
<path d="M233.922 269.038C234.447 270.163 235.572 271.564 236.06 271.576C236.547 271.588 238.235 270.163 238.197 269.45C238.16 268.737 236.46 267.275 236.46 267.275L233.922 269.038Z" fill="#FF0000"/>
<path d="M237.071 264.716C236.733 264.264 236.748 264.2 236.459 264.2C236.171 264.2 233.283 265.85 232.908 266.15C232.533 266.45 232.721 267.35 232.721 268.438C232.721 269.526 233.358 270.051 234.071 270.051C234.783 270.051 237.333 267.913 237.558 267.463C237.783 267.013 237.683 265.533 237.071 264.716Z" fill="#FFB60A"/>
<path d="M190.861 229.848C190.033 229.848 189.361 230.52 189.361 231.348V264.148C189.361 264.977 190.033 265.648 190.861 265.648C191.69 265.648 192.361 264.977 192.361 264.148V231.348C192.361 230.52 191.689 229.848 190.861 229.848Z" fill="#FFB60A"/>
<path d="M192.361 261.798L189.361 262.485V264.148C189.361 264.508 189.494 264.835 189.705 265.093L192.361 263.895V261.798Z" fill="#FF0000"/>
<path d="M189.824 266.986C190.349 268.111 191.474 269.513 191.962 269.524C192.45 269.536 194.137 268.111 194.1 267.399C194.063 266.686 192.363 265.224 192.363 265.224L189.824 266.986Z" fill="#FF0000"/>
<path d="M192.973 262.665C192.634 262.212 192.65 262.149 192.361 262.149C192.073 262.149 189.186 263.799 188.811 264.099C188.436 264.399 188.623 265.299 188.623 266.386C188.623 267.474 189.261 267.999 189.973 267.999C190.685 267.999 193.236 265.861 193.461 265.411C193.686 264.961 193.585 263.481 192.973 262.665Z" fill="#FFB60A"/>
<path d="M171.597 168.25C173.889 174.699 175.845 180.362 178.977 185.007C182.107 189.651 190.841 197.091 195.003 198.189C199.164 199.287 200.238 198.839 203.095 198.146C205.953 197.454 221.07 190.626 226.225 184.019C231.381 177.413 232.962 169.023 232.962 169.023C232.962 169.023 238.374 162.078 234.178 138.504C229.983 114.929 215.5 102.521 188.686 107.385C161.872 112.25 162.738 134.159 164.002 145.113C165.269 156.067 171.597 168.25 171.597 168.25Z" fill="#FFD4C0"/>
<path d="M198.906 158.221C197.953 157.896 199.694 154.359 200.81 154.063C204.928 152.973 210.398 153.4 210.495 154.107C210.59 154.812 203.438 159.268 198.906 158.221Z" fill="#363636"/>
<path d="M181.302 162.285C182.133 161.717 179.51 158.774 178.356 158.788C174.096 158.838 172.302 161.572 172.398 162.278C172.494 162.984 177.214 164.506 181.302 162.285Z" fill="#363636"/>
<path d="M188.129 175.509C187.865 175.876 187.292 180.67 187.424 181.257C187.554 181.845 189.431 182.472 190.052 182.59C190.674 182.707 190.757 182.393 190.656 182.205C190.554 182.016 189.381 180.815 189.224 180.028C189.066 179.242 188.51 174.978 188.129 175.509Z" fill="#D58D80"/>
<path d="M192.115 181.98C192.226 181.806 192.761 180.555 193.253 180.463C193.745 180.371 194.621 180.932 194.429 181.185C194.236 181.439 191.944 182.249 192.115 181.98Z" fill="#D58D80"/>
<path d="M199.873 192.026C199.873 192.026 197.629 191.652 197.311 191.645C196.995 191.637 196.251 192.294 196.174 192.379C196.097 192.466 196.804 193.001 197.504 193.057C198.205 193.114 200.85 192.347 199.873 192.026Z" fill="#FB9687"/>
<path d="M204.175 168.1C203.739 168.516 206.03 170.234 207.998 169.963C209.524 169.755 212.609 166.573 212.526 166.243C212.443 165.914 208.268 167.769 207.344 167.933C206.42 168.097 204.498 167.791 204.175 168.1Z" fill="#363636"/>
<path d="M183.092 170.973C182.729 170.757 181.121 171.545 180.268 171.623C179.415 171.701 176.549 170.94 176.561 171.279C176.573 171.618 178.819 173.938 180.212 173.75C182.01 173.507 183.581 171.263 183.092 170.973Z" fill="#363636"/>
<path d="M237.368 151.719C233.344 150.037 229.886 153.092 229.162 157.783L232.258 169.398C242.486 167.422 241.649 153.508 237.368 151.719Z" fill="#FFD4C0"/>
<path d="M193.508 190C193.982 189.875 200.508 189.2 201.683 189.125C202.858 189.05 202.757 188.65 202.633 188.4C202.508 188.15 199.98 185.7 198.106 185.975C196.232 186.25 193.833 187.925 193.508 188.225C193.183 188.525 193.508 190 193.508 190Z" fill="#662828"/>
<path d="M193.426 189.535C193.465 189.801 193.509 190 193.509 190C193.984 189.875 200.509 189.2 201.684 189.125C202.859 189.05 202.759 188.65 202.634 188.4C202.567 188.265 201.798 187.491 200.812 186.849C197.221 186.625 194.59 188.227 193.426 189.535Z" fill="#FC6363"/>
<path d="M195.983 149.975C195.983 149.975 197.483 162.35 197.183 162.5C196.883 162.65 190.808 157.775 187.958 155.525C190.358 161.225 191.933 167.3 191.483 167.45C191.033 167.6 180.458 162.35 176.033 156.65C175.208 162.95 174.983 169.025 174.983 169.025L173.483 167.75C173.633 169.85 174.232 175.463 174.232 175.463C174.232 175.463 165.908 169.259 162.008 158.379C158.108 147.499 158.858 142.474 158.858 142.474C157.733 143.599 154.658 144.274 154.658 143.974C154.658 143.674 157.208 129.499 163.208 121.024C169.208 112.549 180.608 102.649 202.433 102.274C205.666 102.219 207.083 103.474 209.558 105.349C210.533 103.774 211.883 98.5245 212.258 98.8995C212.633 99.2745 214.508 102.904 213.233 106.339C217.658 107.149 233.483 113.524 237.233 125.974C240.983 138.424 239.858 142.849 240.008 143.524C240.158 144.199 241.433 148.174 241.208 148.399C240.983 148.624 238.883 147.799 238.883 147.799L237.728 151.905C235.283 150.724 230.708 151.549 229.958 157.924C230.099 161.297 228.458 167.074 227.933 167.074C227.408 167.074 225.083 158.074 225.083 158.074C223.208 157.549 216.683 153.399 216.683 153.399C216.683 153.399 219.32 158.824 218.789 159.124C218.258 159.424 212.528 157.624 212.528 157.624C212.528 157.624 214.433 159.274 213.983 159.499C213.533 159.724 202.658 157.325 195.983 149.975Z" fill="#4D4D4D"/>
<path d="M230.009 281.05C230.009 281.05 221.608 273 220.158 271.95C218.709 270.9 218.458 270.952 216.983 271.576C215.508 272.2 213.059 275.45 213.059 275.45V282.25H230.009V281.05Z" fill="#FB9687"/>
<path d="M243.609 280.513C243.609 280.513 234.759 280.513 232.659 280.513C230.559 280.513 215.909 273.3 214.209 272.55C212.509 271.8 210.61 271.4 209.809 271.65C209.009 271.9 204.559 276.301 203.859 276.951C203.159 277.6 203.259 278.45 203.559 279C203.859 279.55 204.959 281.601 204.959 281.601C204.959 281.601 202.959 285.501 202.959 286.301C202.959 287.1 203.409 288.75 203.409 288.75C203.409 288.75 203.109 292.951 203.259 293.601C203.409 294.25 205.009 296.351 205.609 296.951C206.209 297.551 206.86 298.001 208.909 298.001C210.959 298.001 227.659 299.051 231.409 299.051C235.159 299.051 247.359 299.051 247.359 299.051V280.501L243.609 280.513Z" fill="#FFD4C0"/>
<path d="M247.359 299.05V280.501L243.609 280.513C243.575 289.95 240.578 296.1 238.682 299.051C242.993 299.05 247.359 299.05 247.359 299.05Z" fill="#FB9687"/>
<path d="M275.008 219.255C277.66 221.3 281.36 224.4 284.06 232.7C286.76 241 289.16 247.3 289.16 247.3C289.16 247.3 299.16 265.5 300.16 267.6C301.16 269.7 301.16 272.101 301.16 272.901C301.16 273.7 306.759 284.7 306.56 286.9C306.36 289.101 300.16 300.301 287.26 300.301C274.36 300.301 258.66 300.301 258.66 300.301C258.66 300.301 246.122 300.301 245.447 300.301C244.772 300.301 244.059 299.15 244.059 299.15C244.059 299.15 245.109 297.462 245.109 289.662C245.109 281.862 244.472 280.849 243.609 280.512C243.609 280.512 243.759 279.387 244.959 279.312C246.159 279.237 256.022 278.037 256.022 278.037C256.022 278.037 257.897 275.224 258.947 275.224C259.997 275.224 263.11 275.749 263.11 275.749C263.11 275.749 262.735 259.924 264.16 247.774C265.585 235.624 268.007 222.76 275.008 219.255Z" fill="#613AD3"/>
<path d="M263.109 275.75C263.109 275.75 268.772 273.987 272.784 272.825C276.796 271.663 283.434 270.237 284.409 270.237C285.384 270.237 290.034 272.825 292.922 275.937C295.81 279.049 297.347 282.837 297.797 284.337C298.247 285.837 299.372 282.612 298.735 280.212C298.098 277.812 294.872 276.724 293.785 275.862C292.698 275 289.21 270.799 287.41 269.524C285.61 268.249 284.785 267.987 283.847 268.287C282.909 268.587 273.609 271.924 273.797 271.699C273.985 271.474 287.147 265.362 288.01 265.062C288.873 264.762 283.449 264.462 282.073 265.062C280.697 265.662 278.935 268.099 278.485 268.324C278.035 268.549 271.435 271.662 270.01 272.187C268.585 272.712 263.092 274.718 263.092 274.718L263.109 275.75Z" fill="black"/>
<path d="M203.336 278.148C203.341 278.461 203.428 278.76 203.559 279C203.859 279.55 204.959 281.601 204.959 281.601C204.959 281.601 202.959 285.501 202.959 286.301C202.959 287.1 203.409 288.75 203.409 288.75C203.409 288.75 203.109 292.951 203.259 293.601C203.32 293.867 203.627 294.38 204.008 294.93C204.041 294.221 204.083 293.394 204.11 293.151C204.16 292.701 204.71 286.65 204.91 286.001C205.109 285.351 209.71 276.1 209.71 275.85C209.71 275.6 203.336 278.148 203.336 278.148Z" fill="#FB9687"/>
<path d="M181.058 190C180.308 186.525 174.363 175.798 174.232 175.463C174.101 175.128 172.958 166.1 173.558 164.6C174.158 163.1 176.033 156.65 175.658 155.3C175.283 153.95 173.408 152.225 172.958 153.8C172.508 155.375 170.333 159.05 169.658 160.324C168.983 161.599 168.383 162.275 168.383 163.446C168.383 163.946 168.205 166.116 168.002 168.438C167.848 166.441 167.663 163.444 167.858 162.6C168.158 161.299 169.958 158.25 169.858 155.55C169.758 152.85 168.658 151.75 167.858 151.6C167.058 151.45 166.808 151.85 165.758 154.6C164.708 157.35 162.258 162.5 162.258 162.5C162.258 162.5 160.358 163.55 159.758 164.55C159.158 165.55 157.508 169.8 156.908 170.935C156.308 172.071 156.608 173.35 156.958 174.2C157.308 175.05 162.533 193.85 163.058 195.125C163.583 196.4 163.583 197.825 163.058 200C162.533 202.175 153.533 227.023 153.533 227.023H172.809C172.809 227.023 176.483 207.425 178.208 203.225C179.933 199.025 181.808 193.475 181.058 190Z" fill="#FFD4C0"/>
<path d="M159.419 171.988C159.682 172.888 161.65 176.901 161.65 176.901C161.65 176.901 160.882 166.213 160.994 165.876C161.107 165.538 162.306 162.399 162.306 162.399C162.277 162.459 162.257 162.501 162.257 162.501C162.257 162.501 160.357 163.551 159.757 164.551C159.65 164.729 159.509 165.013 159.347 165.363C159.295 167.97 159.259 171.437 159.419 171.988Z" fill="#FB9687"/>
<path d="M166.694 166.325C166.807 168.35 167.379 175.175 167.379 175.175L168 168.438C167.847 166.449 167.663 163.467 167.855 162.61C167.497 163.159 166.604 164.701 166.694 166.325Z" fill="#FB9687"/>
<path d="M156.948 217.543C156.948 217.543 155.458 217.35 155.158 217.85C154.858 218.35 150.558 229.85 150.558 229.85C150.558 229.85 146.408 233.351 146.108 235.201C145.808 237.051 145.358 241.6 145.358 241.6C145.358 241.6 135.758 265.4 134.633 268.025C133.508 270.65 131.783 273.35 131.933 275.525C132.083 277.7 133.733 294.05 142.658 294.05C151.583 294.05 162.158 287.75 163.133 287C164.108 286.25 164.483 281.975 164.858 280.475C165.233 278.975 171.758 248.3 172.058 247.4C172.358 246.5 173.558 244.25 173.483 242.3C173.408 240.35 172.508 237.558 172.508 237.558C172.508 237.558 174.908 225.575 174.983 224.825C175.058 224.075 173.614 222.856 173.614 222.856C173.614 222.856 167.187 222.111 156.948 217.543Z" fill="#613AD3"/>
<path d="M163.367 305.4C163.367 305.4 213.968 305.4 216.268 305.4C216.918 305.4 217.368 304.95 217.118 304.75C216.869 304.551 214.817 302.8 214.418 302.5C214.019 302.2 213.519 302.05 212.519 302.05C211.518 302.05 163.367 299.95 163.367 299.95V305.4Z" fill="#4C4C4F"/>
<path d="M168.444 303.65C168.733 304.617 168.162 305.4 167.168 305.4H78.9687C77.9751 305.4 76.9341 304.617 76.6449 303.65L58.6923 243.651C58.4031 242.684 58.9749 241.9 59.9685 241.9H148.168C149.162 241.9 150.202 242.684 150.492 243.651L168.444 303.65Z" fill="#737478"/>
<path d="M144.735 91.7511C144.491 89.3463 142.595 89.5611 142.378 89.5935L110.309 95.2911C109.016 95.6649 108.389 96.5301 108.395 97.9383C109.39 107.364 114.432 134.396 121.028 133.42L153.098 127.723C154.846 127.302 154.602 126.588 154.456 126.162C147.68 114.793 145.4 98.3103 144.735 91.7511Z" fill="white"/>
<path d="M117.223 104.712C117.525 104.887 117.796 104.854 117.926 104.837L137.436 101.371C138.495 101.126 138.577 99.8187 137.791 99.3495C137.583 99.2259 137.347 99.1821 137.092 99.2211L117.581 102.687C116.507 102.936 116.423 104.245 117.223 104.712Z" fill="#A2A2A8"/>
<path d="M143.301 105.06C143.065 104.901 142.795 104.843 142.499 104.888L114.47 109.868C113.307 110.198 113.519 111.361 114.109 111.75C114.422 111.955 114.673 111.936 114.915 111.916C124.258 110.257 133.703 109.169 142.945 106.936C144.011 106.679 143.965 105.507 143.301 105.06Z" fill="#A2A2A8"/>
<path d="M144.346 109.551C144.104 109.402 143.831 109.35 143.535 109.396L115.505 114.376C114.34 114.7 114.592 115.804 115.201 116.167C115.52 116.358 115.773 116.337 116.016 116.316L144.045 111.336C145.211 111.015 144.959 109.927 144.346 109.551Z" fill="#A2A2A8"/>
<path d="M145.702 113.913C145.603 113.833 145.24 113.58 144.713 113.661C135.37 115.321 125.943 116.508 116.684 118.641C115.715 118.864 115.713 119.787 116.261 120.216C116.641 120.514 117.072 120.476 117.255 120.459C126.598 118.799 136.025 117.61 145.284 115.479C146.262 115.255 146.236 114.344 145.702 113.913Z" fill="#A2A2A8"/>
<path d="M146.853 117.756C146.599 117.63 146.32 117.591 146.024 117.636L117.995 122.616C116.94 122.9 117.118 123.738 117.616 124.084C118.005 124.355 118.438 124.314 118.623 124.296L146.653 119.316C147.803 119.01 147.489 118.071 146.853 117.756Z" fill="#A2A2A8"/>
<path d="M148.467 121.47C148.363 121.405 147.983 121.2 147.456 121.284C138.113 122.944 128.697 124.198 119.426 126.264C118.456 126.48 118.506 127.257 119.087 127.604C119.483 127.841 119.917 127.795 120.102 127.776C129.446 126.116 138.86 124.857 148.131 122.796C149.101 122.58 149.027 121.817 148.467 121.47Z" fill="#A2A2A8"/>
<path d="M324.638 215.823L296.184 205.206C295.009 204.913 294.287 205.389 293.911 206.703C292.604 213.474 290.362 219.976 287.462 225.669C284.561 231.361 281.001 236.246 277.058 239.781C276.385 240.525 276.569 241.079 277.651 241.579L306.105 252.195C307.36 252.567 308.398 252.439 309.277 251.803C319.673 242.206 330.01 217.996 324.638 215.823Z" fill="white"/>
<path d="M299.325 217.586L316.635 224.046C317.613 224.35 318.225 223.234 317.771 222.431C317.65 222.219 317.476 222.066 317.251 221.974L299.94 215.515C298.977 215.215 298.365 216.333 298.81 217.132C298.978 217.435 299.212 217.537 299.325 217.586Z" fill="#A2A2A8"/>
<path d="M319.538 230.098C319.435 229.848 319.252 229.668 318.994 229.563L294.125 220.283C292.943 219.983 292.495 221.272 292.895 221.887C293.027 222.088 293.203 222.177 293.345 222.248C301.635 225.341 309.72 228.981 318.214 231.528C319.214 231.826 319.826 230.803 319.538 230.098Z" fill="#A2A2A8"/>
<path d="M317.187 233.882C308.897 230.789 300.805 227.166 292.318 224.602C291.325 224.302 290.656 225.267 290.909 225.944C291.026 226.254 291.233 226.356 291.432 226.456L316.301 235.736C317.503 236.049 318.018 234.83 317.632 234.234C317.606 234.194 317.464 233.993 317.187 233.882Z" fill="#A2A2A8"/>
<path d="M315.147 237.951C306.857 234.859 298.756 231.26 290.277 228.672C289.282 228.369 288.559 229.265 288.786 229.907C288.891 230.204 289.096 230.304 289.294 230.402C297.584 233.495 305.685 237.092 314.163 239.681C315.168 239.988 315.893 239.095 315.661 238.452C315.578 238.224 315.405 238.056 315.147 237.951Z" fill="#A2A2A8"/>
<path d="M312.893 241.727L288.024 232.449C286.823 232.125 286.184 233.173 286.525 233.711C286.635 233.885 286.81 233.971 286.95 234.039C295.24 237.131 303.351 240.701 311.819 243.318C312.824 243.628 313.599 242.814 313.393 242.21C313.319 241.993 313.151 241.831 312.893 241.727Z" fill="#A2A2A8"/>
<path d="M310.449 245.175C302.159 242.082 294.035 238.544 285.58 235.896C284.575 235.582 283.759 236.309 283.944 236.871C284.028 237.128 284.232 237.225 284.429 237.318C292.719 240.412 300.844 243.947 309.298 246.597C310.326 246.921 311.128 246.206 310.938 245.632C310.871 245.432 310.707 245.278 310.449 245.175Z" fill="#A2A2A8"/>
<path d="M128.501 215.143C111.836 202.755 110.399 189.16 110.555 183.889C110.582 182.967 110.471 182.901 110.174 182.721C109.817 182.841 109.817 182.841 109.574 183.093L92.4617 201.404C91.7249 202.293 91.3073 203.277 91.1855 204.412C90.9383 209.986 92.5055 215.739 95.5937 221.155C98.6813 226.57 103.289 231.65 109.124 235.879C110.354 236.637 111.356 236.678 112.186 236.004L129.299 217.693C129.865 216.878 129.611 216.068 128.501 215.143Z" fill="white"/>
<path d="M95.9073 206.658C95.9649 206.659 96.0861 206.637 96.2487 206.478L106.66 195.338C107.247 194.649 107.166 193.375 106.674 193.366C106.648 193.365 106.512 193.372 106.341 193.545L95.9301 204.685C95.3253 205.39 95.3961 206.649 95.9073 206.658Z" fill="#A2A2A8"/>
<path d="M110.591 198.321C111.197 197.576 110.836 196.275 110.233 196.365C110.133 196.38 110.032 196.44 109.931 196.542L94.9734 212.545C94.3122 213.406 94.7616 214.585 95.325 214.502C95.4018 214.491 95.4918 214.462 95.634 214.325C96.801 213.076 97.9692 211.827 99.1362 210.578C102.955 206.492 107.056 202.67 110.591 198.321Z" fill="#A2A2A8"/>
<path d="M111.936 200.305C111.902 200.305 111.724 200.315 111.552 200.489C111.202 200.864 110.735 201.364 110.385 201.739C110.034 202.113 109.568 202.613 109.218 202.988C108.867 203.362 108.4 203.863 108.051 204.237C104.232 208.323 100.114 212.128 96.5954 216.495C95.9678 217.273 96.4958 218.43 97.1 218.42C97.2746 218.418 97.3952 218.316 97.4918 218.234L112.449 202.229C113.077 201.388 112.461 200.3 111.936 200.305Z" fill="#A2A2A8"/>
<path d="M103.37 218.292C104.927 216.627 106.483 214.962 108.039 213.297C110.302 210.876 112.755 208.636 114.825 206.035C115.422 205.286 114.743 204.142 114.104 204.16C114.067 204.161 113.873 204.174 113.7 204.348C113.35 204.723 112.884 205.222 112.533 205.597C112.183 205.972 111.716 206.472 111.366 206.847C111.016 207.221 110.549 207.721 110.199 208.096C109.498 208.845 108.564 209.844 107.864 210.594C104.824 213.847 101.526 216.859 98.7434 220.353C98.1266 221.128 98.7998 222.25 99.4562 222.229C99.6464 222.223 99.77 222.121 99.8684 222.04C100.569 221.29 101.503 220.291 102.204 219.541C102.553 219.167 103.02 218.667 103.37 218.292Z" fill="#A2A2A8"/>
<path d="M116.769 207.881C116.729 207.882 116.519 207.901 116.346 208.074L101.388 224.079C100.8 224.892 101.595 225.932 102.303 225.894C102.509 225.882 102.633 225.781 102.734 225.698L117.692 209.693C118.289 208.863 117.386 207.852 116.769 207.881Z" fill="#A2A2A8"/>
<path d="M119.916 211.431C119.874 211.434 119.65 211.458 119.476 211.633C119.126 212.007 118.659 212.507 118.309 212.881C117.959 213.256 117.492 213.756 117.142 214.131C116.792 214.505 116.325 215.005 115.975 215.38C115.624 215.754 115.158 216.254 114.807 216.628C114.457 217.003 113.991 217.503 113.64 217.878C110.601 221.131 107.281 224.124 104.52 227.637C103.945 228.369 104.804 229.374 105.533 229.371C105.796 229.369 105.932 229.29 106.069 229.163C106.769 228.413 107.704 227.414 108.405 226.665C108.754 226.29 109.221 225.79 109.572 225.415C109.922 225.04 110.388 224.541 110.739 224.166C111.089 223.791 111.556 223.292 111.906 222.917C114.946 219.664 118.274 216.681 121.026 213.158C121.605 212.415 120.653 211.376 119.916 211.431Z" fill="#A2A2A8"/>
<path d="M299.913 137.366C299.876 137.29 299.808 137.197 299.752 137.134L285.415 122.533C284.754 122.066 283.964 122.334 282.93 123.375C278.091 128.796 272.445 132.632 266.553 134.688C260.663 136.743 254.526 137.02 248.704 135.321C248.145 135.175 248.145 135.175 247.727 135.165C247.683 135.239 247.625 135.338 247.582 135.412C247.641 135.489 247.721 135.592 247.78 135.669L262.118 150.268C262.866 150.951 263.789 151.469 264.939 151.854C284.717 157.191 301.461 140.551 299.913 137.366Z" fill="white"/>
<path d="M290.832 140.544L282.11 131.661C281.511 131.144 280.205 132.122 280.298 132.785C280.314 132.904 280.361 132.961 280.411 133.021L289.133 141.903C289.738 142.426 290.963 141.576 290.952 140.854C290.95 140.674 290.861 140.576 290.832 140.544Z" fill="#A2A2A8"/>
<path d="M274.936 133.498C274.224 132.96 272.952 133.757 273.018 134.292C273.027 134.367 273.084 134.454 273.128 134.515C273.715 135.113 274.497 135.91 275.084 136.507C275.671 137.105 276.453 137.902 277.041 138.499C277.333 138.798 277.725 139.197 278.019 139.495C278.312 139.794 278.703 140.193 278.997 140.491C281.217 142.753 283.206 145.243 285.659 147.276C286.305 147.812 287.66 147.117 287.579 146.487C287.569 146.412 287.519 146.316 287.468 146.26L274.936 133.498Z" fill="#A2A2A8"/>
<path d="M282.421 147.37C281.442 146.374 280.464 145.378 279.486 144.382C279.193 144.083 278.802 143.685 278.508 143.386C275.961 140.793 273.659 137.958 270.867 135.605C270.239 135.075 268.835 135.596 268.901 136.145C268.909 136.216 268.967 136.299 269.009 136.357L281.54 149.118C282.276 149.696 283.574 149.111 283.509 148.583C283.499 148.511 283.448 148.42 283.398 148.366C283.106 148.067 282.714 147.669 282.421 147.37Z" fill="#A2A2A8"/>
<path d="M277.262 147.89C276.675 147.292 275.893 146.496 275.306 145.898C272.433 142.972 269.803 139.808 266.687 137.121C266.06 136.581 264.723 136.92 264.687 137.352C264.682 137.412 264.691 137.485 264.795 137.604C265.773 138.6 266.751 139.596 267.729 140.592C268.022 140.89 268.414 141.289 268.707 141.588C271.58 144.513 274.21 147.677 277.326 150.364C277.995 150.942 279.295 150.611 279.327 150.141C279.334 150.054 279.297 149.967 279.218 149.881C278.632 149.284 277.849 148.487 277.262 147.89Z" fill="#A2A2A8"/>
<path d="M262.449 138.03C261.736 137.446 260.386 137.649 260.431 138.046C260.438 138.112 260.497 138.185 260.537 138.237C260.83 138.536 261.222 138.934 261.516 139.233C262.102 139.831 262.884 140.628 263.472 141.225C263.764 141.524 264.156 141.922 264.45 142.221C267.322 145.147 269.976 148.288 273.068 150.998C273.731 151.579 275.14 151.468 275.087 150.987C275.08 150.92 275.026 150.84 274.98 150.79L262.449 138.03Z" fill="#A2A2A8"/>
<path d="M267.783 148.092C264.584 144.834 261.59 141.375 258.186 138.319C257.559 137.756 256.213 137.701 256.175 138.024C256.17 138.068 256.18 138.125 256.284 138.242C256.577 138.541 256.969 138.939 257.262 139.238C257.849 139.836 258.631 140.632 259.218 141.23C262.417 144.487 265.411 147.946 268.815 151.003C269.5 151.618 270.785 151.663 270.825 151.305C270.832 151.24 270.796 151.164 270.717 151.079C269.738 150.084 268.761 149.087 267.783 148.092Z" fill="#A2A2A8"/>
<path d="M264.046 114.831L257.907 111.645L264.455 101.236L244.333 108.189L250.472 111.375L243.924 121.783L264.046 114.831Z" fill="#FFB60A"/>
<path d="M96.7268 117.399L95.3972 124.187L83.5664 120.831L95.8994 138.185L97.229 131.397L109.06 134.753L96.7268 117.399Z" fill="#FFB60A"/>
<path d="M254.158 180.82L255.008 176.201L263.068 178.388L254.558 166.699L253.708 171.319L245.648 169.133L254.158 180.82Z" fill="#FFB60A"/>
<path d="M132.848 181.553L130.707 177.372L138.431 174.195L124.561 170.113L126.701 174.294L118.979 177.471L132.848 181.553Z" fill="#FFB60A"/>
<path d="M217.442 77.3H182.555C181.561 77.3 180.755 78.1058 180.755 79.1V80.0012H179.889C179.235 80.0012 178.705 80.5316 178.705 81.1856V86.3156C178.705 86.969 179.235 87.4994 179.889 87.4994H180.755V88.4C180.755 89.3942 181.561 90.2 182.555 90.2H217.442C218.436 90.2 219.242 89.3942 219.242 88.4V79.1C219.242 78.1058 218.436 77.3 217.442 77.3Z" fill="white"/>
<path d="M182.555 89C182.224 89 181.955 88.7306 181.955 88.4V79.1C181.955 78.7694 182.224 78.5 182.555 78.5H217.443C217.774 78.5 218.043 78.7694 218.043 79.1V88.4C218.043 88.7306 217.774 89 217.443 89H182.555Z" fill="#F2F2F2"/>
<path d="M216.192 89C215.861 89 215.592 88.7306 215.592 88.4V79.1C215.592 78.7694 215.861 78.5 216.192 78.5H217.442C217.773 78.5 218.042 78.7694 218.042 79.1V88.4C218.042 88.7306 217.773 89 217.442 89H216.192Z" fill="#D4313F"/>
<path opacity="0.4" d="M213.442 89C213.111 89 212.842 88.7306 212.842 88.4V79.1C212.842 78.7694 213.111 78.5 213.442 78.5H214.692C215.023 78.5 215.292 78.7694 215.292 79.1V88.4C215.292 88.7306 215.023 89 214.692 89H213.442Z" fill="#D4313F"/>
</svg>
