<svg width="40" height="40" viewBox="0 0 40 40" fill="none" xmlns="http://www.w3.org/2000/svg">
<circle cx="20" cy="8" r="8" fill="#613AD3"/>
<circle cx="20" cy="8" r="8" fill="white"/>
<path d="M2.35545 36.4208C4.01416 28.1942 11.2859 22 20 22C28.7141 22 35.9858 28.1942 37.6446 36.4208C37.7238 36.814 37.6128 37.1621 37.3376 37.4549C37.0438 37.7674 36.5643 38 36 38H4C3.43568 38 2.95625 37.7674 2.66238 37.4549C2.38716 37.1621 2.27618 36.814 2.35545 36.4208Z" fill="#613AD3"/>
<path d="M2.35545 36.4208C4.01416 28.1942 11.2859 22 20 22C28.7141 22 35.9858 28.1942 37.6446 36.4208C37.7238 36.814 37.6128 37.1621 37.3376 37.4549C37.0438 37.7674 36.5643 38 36 38H4C3.43568 38 2.95625 37.7674 2.66238 37.4549C2.38716 37.1621 2.27618 36.814 2.35545 36.4208Z" fill="#613AD3"/>
<path d="M2.35545 36.4208C4.01416 28.1942 11.2859 22 20 22C28.7141 22 35.9858 28.1942 37.6446 36.4208C37.7238 36.814 37.6128 37.1621 37.3376 37.4549C37.0438 37.7674 36.5643 38 36 38H4C3.43568 38 2.95625 37.7674 2.66238 37.4549C2.38716 37.1621 2.27618 36.814 2.35545 36.4208Z" stroke="white" stroke-width="4"/>
</svg>
