<svg width="77" height="14" viewBox="0 0 77 14" fill="none" xmlns="http://www.w3.org/2000/svg">
<path d="M11.7512 5.07725L8.4653 4.5997L6.99643 1.62184C6.95631 1.54031 6.89031 1.47431 6.80878 1.43419C6.6043 1.33325 6.35582 1.41737 6.25359 1.62184L4.78472 4.5997L1.49885 5.07725C1.40826 5.09019 1.32543 5.13289 1.26202 5.1976C1.18536 5.2764 1.14311 5.38241 1.14457 5.49234C1.14602 5.60226 1.19106 5.70712 1.26979 5.78386L3.64715 8.10169L3.08549 11.3746C3.07232 11.4508 3.08074 11.5291 3.10981 11.6006C3.13887 11.6722 3.18742 11.7342 3.24994 11.7797C3.31245 11.8251 3.38644 11.852 3.46351 11.8575C3.54058 11.863 3.61765 11.8468 3.68598 11.8107L6.62501 10.2655L9.56404 11.8107C9.64428 11.8535 9.73746 11.8677 9.82676 11.8522C10.0519 11.8133 10.2034 11.5998 10.1645 11.3746L9.60287 8.10169L11.9802 5.78386C12.0449 5.72044 12.0876 5.63762 12.1006 5.54702C12.1355 5.32055 11.9776 5.11089 11.7512 5.07725V5.07725Z" fill="#FFC416"/>
<path d="M28.3176 5.07725L25.0317 4.5997L23.5628 1.62184C23.5227 1.54031 23.4567 1.47431 23.3752 1.43419C23.1707 1.33325 22.9222 1.41737 22.82 1.62184L21.3511 4.5997L18.0653 5.07725C17.9747 5.09019 17.8918 5.13289 17.8284 5.1976C17.7518 5.2764 17.7095 5.38241 17.711 5.49234C17.7124 5.60226 17.7575 5.70712 17.8362 5.78386L20.2136 8.10169L19.6519 11.3746C19.6387 11.4508 19.6471 11.5291 19.6762 11.6006C19.7053 11.6722 19.7538 11.7342 19.8163 11.7797C19.8789 11.8251 19.9528 11.852 20.0299 11.8575C20.107 11.863 20.1841 11.8468 20.2524 11.8107L23.1914 10.2655L26.1304 11.8107C26.2107 11.8535 26.3039 11.8677 26.3932 11.8522C26.6183 11.8133 26.7698 11.5998 26.7309 11.3746L26.1693 8.10169L28.5466 5.78386C28.6113 5.72044 28.6541 5.63762 28.667 5.54702C28.7019 5.32055 28.5441 5.11089 28.3176 5.07725V5.07725Z" fill="#FFC416"/>
<path d="M43.7785 5.07725L40.4926 4.5997L39.0238 1.62184C38.9837 1.54031 38.9177 1.47431 38.8361 1.43419C38.6316 1.33325 38.3832 1.41737 38.2809 1.62184L36.8121 4.5997L33.5262 5.07725C33.4356 5.09019 33.3528 5.13289 33.2894 5.1976C33.2127 5.2764 33.1705 5.38241 33.1719 5.49234C33.1734 5.60226 33.2184 5.70712 33.2971 5.78386L35.6745 8.10169L35.1128 11.3746C35.0997 11.4508 35.1081 11.5291 35.1372 11.6006C35.1662 11.6722 35.2148 11.7342 35.2773 11.7797C35.3398 11.8251 35.4138 11.852 35.4909 11.8575C35.5679 11.863 35.645 11.8468 35.7133 11.8107L38.6524 10.2655L41.5914 11.8107C41.6716 11.8535 41.7648 11.8677 41.8541 11.8522C42.0793 11.8133 42.2307 11.5998 42.1919 11.3746L41.6302 8.10169L44.0076 5.78386C44.0723 5.72044 44.115 5.63762 44.1279 5.54702C44.1629 5.32055 44.005 5.11089 43.7785 5.07725V5.07725Z" fill="#FFC416"/>
<path d="M59.2394 5.07725L55.9536 4.5997L54.4847 1.62184C54.4446 1.54031 54.3786 1.47431 54.2971 1.43419C54.0926 1.33325 53.8441 1.41737 53.7419 1.62184L52.273 4.5997L48.9871 5.07725C48.8965 5.09019 48.8137 5.13289 48.7503 5.1976C48.6736 5.2764 48.6314 5.38241 48.6328 5.49234C48.6343 5.60226 48.6793 5.70712 48.7581 5.78386L51.1354 8.10169L50.5738 11.3746C50.5606 11.4508 50.569 11.5291 50.5981 11.6006C50.6272 11.6722 50.6757 11.7342 50.7382 11.7797C50.8007 11.8251 50.8747 11.852 50.9518 11.8575C51.0289 11.863 51.1059 11.8468 51.1743 11.8107L54.1133 10.2655L57.0523 11.8107C57.1326 11.8535 57.2257 11.8677 57.315 11.8522C57.5402 11.8133 57.6916 11.5998 57.6528 11.3746L57.0911 8.10169L59.4685 5.78386C59.5332 5.72044 59.5759 5.63762 59.5889 5.54702C59.6238 5.32055 59.4659 5.11089 59.2394 5.07725V5.07725Z" fill="#FFC416"/>
<path d="M74.7004 5.07725L71.4145 4.5997L69.9457 1.62184C69.9055 1.54031 69.8395 1.47431 69.758 1.43419C69.5535 1.33325 69.305 1.41737 69.2028 1.62184L67.7339 4.5997L64.4481 5.07725C64.3575 5.09019 64.2747 5.13289 64.2112 5.1976C64.1346 5.2764 64.0923 5.38241 64.0938 5.49234C64.0952 5.60226 64.1403 5.70712 64.219 5.78386L66.5964 8.10169L66.0347 11.3746C66.0215 11.4508 66.03 11.5291 66.059 11.6006C66.0881 11.6722 66.1366 11.7342 66.1992 11.7797C66.2617 11.8251 66.3357 11.852 66.4127 11.8575C66.4898 11.863 66.5669 11.8468 66.6352 11.8107L69.5742 10.2655L72.5133 11.8107C72.5935 11.8535 72.6867 11.8677 72.776 11.8522C73.0012 11.8133 73.1526 11.5998 73.1137 11.3746L72.5521 8.10169L74.9295 5.78386C74.9942 5.72044 75.0369 5.63762 75.0498 5.54702C75.0848 5.32055 74.9269 5.11089 74.7004 5.07725V5.07725Z" fill="#B2B2B2"/>
<path d="M67.6402 4.71579L69.1091 1.73793C69.1819 1.59218 69.3291 1.50759 69.4817 1.50757L69.4805 10.3816L66.5414 11.9268C66.4731 11.9629 66.3961 11.9791 66.319 11.9736C66.2419 11.9681 66.1679 11.9411 66.1054 11.8957C66.0429 11.8503 65.9943 11.7883 65.9653 11.7167C65.9362 11.6451 65.9278 11.5668 65.941 11.4907L66.5026 8.21778L64.1253 5.89994C64.0465 5.82321 64.0015 5.71835 64 5.60842C63.9986 5.4985 64.0408 5.39249 64.1175 5.31369C64.1809 5.24898 64.2637 5.20628 64.3543 5.19333L67.6402 4.71579Z" fill="#FFB60A"/>
</svg>
