<svg width="52" height="58" viewBox="0 0 52 58" fill="none" xmlns="http://www.w3.org/2000/svg">
<circle cx="18.8954" cy="22.8466" r="16.7079" fill="#2E46CE" fill-opacity="0.16"/>
<circle cx="30.034" cy="33.9853" r="16.7079" fill="#2E46CE" fill-opacity="0.16"/>
<path d="M29.4771 51.8069H29.3632C28.8109 51.8069 28.3632 52.2547 28.3632 52.8069V56.3762C28.3632 56.9285 28.8109 57.3762 29.3632 57.3762H40.7295C41.2818 57.3762 41.7295 56.9285 41.7295 56.3762V52.8069C41.7295 52.2547 41.2818 51.8069 40.7295 51.8069H40.6157M29.4771 51.8069C29.4771 51.8069 28.3632 46.7946 29.4771 44.0099C30.2578 42.0582 31.0385 41.2008 31.4356 40.8625C31.6004 40.7222 31.7587 40.5639 31.899 40.3992C32.2372 40.002 33.0946 39.2213 35.0464 38.4406V38.4406C35.7316 38.1665 38.9149 37.3468 39.529 36.9374L42.2865 35.0991M29.4771 51.8069H40.6157M42.2865 35.0991L45.3965 34.2106C45.7564 34.1077 46.0976 34.4223 46.0242 34.7894L45.6818 36.5008C45.6466 36.6769 45.5647 36.8402 45.4446 36.9737L40.6157 42.3391M42.2865 35.0991L43.8121 33.5734C43.9079 33.4776 43.9832 33.3634 44.0335 33.2377L45.041 30.7189C45.061 30.6687 45.077 30.6171 45.0887 30.5644L46.185 25.6313L46.734 22.8862C46.7393 22.8597 46.7452 22.8348 46.7529 22.8089C46.8709 22.41 47.9203 18.9804 48.9696 19.5051C49.9793 20.0099 50.0737 22.8027 50.0826 23.3208C50.0835 23.3758 50.0867 23.4223 50.0955 23.4766C50.2679 24.5413 52.2148 36.9144 50.0835 40.1114C48.1643 42.9901 42.5251 47.5222 40.9998 48.7225C40.7558 48.9145 40.6157 49.2042 40.6157 49.5147V51.8069" stroke="black" stroke-linecap="round"/>
<path d="M22.6701 51.8614H22.784C23.3363 51.8614 23.784 52.3091 23.784 52.8614V56.4307C23.784 56.983 23.3363 57.4307 22.784 57.4307H11.4177C10.8654 57.4307 10.4177 56.983 10.4177 56.4307V52.8614C10.4177 52.3091 10.8654 51.8614 11.4177 51.8614H11.5315M22.6701 51.8614C22.6701 51.8614 23.784 46.849 22.6701 44.0644C21.8894 42.1126 21.1087 41.2552 20.7116 40.917C20.5468 40.7767 20.3885 40.6183 20.2482 40.4536C19.9099 40.0564 19.0526 39.2757 17.1008 38.495V38.495C16.4156 38.2209 13.2323 37.4012 12.6182 36.9918L9.86072 35.1536M22.6701 51.8614H11.5315M9.86072 35.1536L6.75069 34.265C6.39076 34.1622 6.04962 34.4768 6.12304 34.8438L6.46534 36.5553C6.50056 36.7313 6.58252 36.8947 6.70263 37.0281L11.5315 42.3936M9.86072 35.1536L8.33505 33.6278C8.2393 33.532 8.164 33.4178 8.11371 33.2921L7.10619 30.7733C7.08614 30.7232 7.07019 30.6715 7.05848 30.6188L5.96221 25.6858L5.41322 22.9406C5.40793 22.9142 5.40195 22.8892 5.39429 22.8634C5.27631 22.4645 4.22693 19.0348 3.17755 19.5595C2.16789 20.0644 2.07344 22.8571 2.0646 23.3752C2.06367 23.4303 2.06053 23.4767 2.05172 23.5311C1.87927 24.5957 -0.0676515 36.9689 2.06369 40.1658C3.98286 43.0445 9.62206 47.5767 11.1474 48.7769C11.3914 48.9689 11.5315 49.2587 11.5315 49.5691V51.8614" stroke="black" stroke-linecap="round"/>
<circle cx="25.5785" cy="17.2773" r="15.7079" stroke="#4831D4" stroke-width="2"/>
<path d="M20.1699 28.5229C20.3996 28.1783 20.3065 27.7126 19.9619 27.4829C19.6172 27.2531 19.1516 27.3462 18.9218 27.6909L20.1699 28.5229ZM17.9422 31.8645L20.1699 28.5229L18.9218 27.6909L16.6941 31.0325L17.9422 31.8645Z" fill="#4831D4"/>
<path d="M31.7719 27.9999C31.5421 27.6552 31.0765 27.5621 30.7318 27.7919C30.3872 28.0216 30.294 28.4873 30.5238 28.8319L31.7719 27.9999ZM30.5238 28.8319L32.7515 32.1735L33.9996 31.3415L31.7719 27.9999L30.5238 28.8319Z" fill="#4831D4"/>
<path d="M36.0486 23.357C35.7153 23.111 35.2457 23.1818 34.9998 23.5151C34.7539 23.8484 34.8247 24.318 35.158 24.5639L36.0486 23.357ZM35.158 24.5639L38.3896 26.9485L39.2802 25.7415L36.0486 23.357L35.158 24.5639Z" fill="#4831D4"/>
<path d="M14.9985 12.4682C15.3318 12.7142 15.8013 12.6433 16.0473 12.31C16.2932 11.9767 16.2224 11.5072 15.8891 11.2612L14.9985 12.4682ZM11.7669 10.0837L14.9985 12.4682L15.8891 11.2612L12.6575 8.87673L11.7669 10.0837Z" fill="#4831D4"/>
<path d="M18.841 6.74274C19.02 7.11627 19.468 7.27394 19.8415 7.0949C20.215 6.91587 20.3727 6.46794 20.1937 6.09441L18.841 6.74274ZM17.1052 3.12116L18.841 6.74274L20.1937 6.09441L18.4578 2.47283L17.1052 3.12116Z" fill="#4831D4"/>
<path d="M26.3285 29.5297C26.3285 29.1155 25.9928 28.7797 25.5785 28.7797C25.1643 28.7797 24.8285 29.1155 24.8285 29.5297H26.3285ZM26.3285 33.5458V29.5297H24.8285V33.5458H26.3285Z" fill="#4831D4"/>
<path d="M25.5785 5.69934V1.68326" stroke="#4831D4" stroke-width="1.5" stroke-linecap="round"/>
<path d="M30.5238 6.83642C30.294 7.18106 30.3872 7.64671 30.7318 7.87648C31.0765 8.10624 31.5421 8.01311 31.7719 7.66847L30.5238 6.83642ZM31.7719 7.66847L33.9996 4.32688L32.7515 3.49483L30.5238 6.83642L31.7719 7.66847Z" fill="#4831D4"/>
<path d="M35.208 10.9597C34.856 11.178 34.7476 11.6403 34.9659 11.9923C35.1842 12.3444 35.6466 12.4527 35.9986 12.2344L35.208 10.9597ZM35.9986 12.2344L39.4116 10.1177L38.621 8.84296L35.208 10.9597L35.9986 12.2344Z" fill="#4831D4"/>
<path d="M16.0205 24.5978C16.3725 24.3795 16.4809 23.9171 16.2626 23.5651C16.0442 23.2131 15.5819 23.1047 15.2299 23.3231L16.0205 24.5978ZM12.6075 26.7145L16.0205 24.5978L15.2299 23.3231L11.8169 25.4398L12.6075 26.7145Z" fill="#4831D4"/>
<path d="M36.7172 16.5273C36.3029 16.5273 35.9672 16.8631 35.9672 17.2773C35.9672 17.6916 36.3029 18.0273 36.7172 18.0273V16.5273ZM36.7172 18.0273H40.7332V16.5273H36.7172V18.0273Z" fill="#4831D4"/>
<path d="M14.0006 18.0273C14.4148 18.0273 14.7506 17.6916 14.7506 17.2773C14.7506 16.8631 14.4148 16.5273 14.0006 16.5273V18.0273ZM9.98449 18.0273H14.0006V16.5273H9.98449V18.0273Z" fill="#4831D4"/>
<path d="M26.0216 9.48022C26.0216 8.92794 25.5739 8.48022 25.0216 8.48022C24.4693 8.48022 24.0216 8.92794 24.0216 9.48022H26.0216ZM24.0216 9.48022V18.3911H26.0216V9.48022H24.0216Z" fill="#4831D4"/>
<path d="M31.171 18.2773C31.7233 18.2773 32.171 17.8296 32.171 17.2773C32.171 16.7251 31.7233 16.2773 31.171 16.2773V18.2773ZM24.4647 18.2773H31.171V16.2773H24.4647V18.2773Z" fill="#4831D4"/>
</svg>
