<svg width="15" height="15" viewBox="0 0 15 15" fill="none" xmlns="http://www.w3.org/2000/svg">
<circle cx="7.50203" cy="7.50008" r="7.50008" fill="#151875"/>
<g clip-path="url(#clip0_140_1040)">
<path d="M11.8598 4.37472C11.5258 4.52272 11.167 4.62272 10.7898 4.66792C11.179 4.43503 11.4702 4.0685 11.609 3.63671C11.2434 3.85391 10.8432 4.00679 10.4258 4.08871C10.1452 3.78906 9.77344 3.59044 9.36834 3.5237C8.96324 3.45696 8.54744 3.52583 8.18549 3.71961C7.82355 3.9134 7.5357 4.22126 7.36665 4.5954C7.1976 4.96954 7.1568 5.38903 7.25059 5.78873C6.50966 5.75153 5.78483 5.55895 5.12314 5.22349C4.46145 4.88803 3.87769 4.41718 3.40975 3.84151C3.24975 4.11751 3.15775 4.43752 3.15775 4.77832C3.15757 5.08512 3.23312 5.38722 3.3777 5.65782C3.52228 5.92842 3.73142 6.15915 3.98656 6.32954C3.69066 6.32012 3.4013 6.24017 3.14255 6.09633V6.12033C3.14252 6.55064 3.29136 6.96769 3.56382 7.30075C3.83629 7.6338 4.21559 7.86232 4.63736 7.94755C4.36287 8.02184 4.07509 8.03278 3.79575 7.97955C3.91475 8.3498 4.14656 8.67357 4.45871 8.90553C4.77086 9.13749 5.14773 9.26604 5.53657 9.27317C4.8765 9.79134 4.06131 10.0724 3.22215 10.0712C3.0735 10.0712 2.92498 10.0625 2.77734 10.0452C3.62914 10.5928 4.6207 10.8835 5.63337 10.8824C9.06141 10.8824 10.9354 8.04315 10.9354 5.58073C10.9354 5.50073 10.9334 5.41993 10.9298 5.33993C11.2943 5.07631 11.609 4.74988 11.859 4.37592L11.8598 4.37472Z" fill="white"/>
</g>
<defs>
<clipPath id="clip0_140_1040">
<rect width="9.6001" height="9.6001" fill="white" transform="translate(2.40234 2.40002)"/>
</clipPath>
</defs>
</svg>
