<svg width="62" height="50" viewBox="0 0 62 50" fill="none" xmlns="http://www.w3.org/2000/svg">
<circle cx="40.2522" cy="29.5193" r="18.75" fill="#613AD3" fill-opacity="0.16"/>
<circle cx="19.9388" cy="27.5163" r="16.0714" fill="#613AD3" fill-opacity="0.16"/>
<path d="M14.4308 18.409C14.4308 14.1182 16.1353 10.0031 19.1694 6.96906C22.2034 3.93499 26.3185 2.23047 30.6093 2.23047C34.9002 2.23047 39.0152 3.93499 42.0493 6.96906C45.0834 10.0031 46.7879 14.1182 46.7879 18.409" stroke="#613AD3" stroke-width="3"/>
<path d="M16.145 46.3733C12.2805 46.3733 8.57415 44.8381 5.84148 42.1054C3.10881 39.3727 1.57361 35.6664 1.57361 31.8019C1.57361 27.9373 3.10881 24.231 5.84148 21.4983C8.57415 18.7656 12.2805 17.2304 16.145 17.2304" stroke="#613AD3" stroke-width="3"/>
<path d="M45.0736 17.8733C49.0519 17.8733 52.8672 19.4536 55.6802 22.2667C58.4933 25.0797 60.0736 28.895 60.0736 32.8733C60.0736 36.8515 58.4933 40.6668 55.6802 43.4799C52.8672 46.2929 49.0519 47.8733 45.0736 47.8733H32.0736C30.969 47.8733 30.0736 46.9779 30.0736 45.8733V26.4447" stroke="black" stroke-width="3"/>
<path d="M33.0452 29.6591L30.0389 24.452C30.0004 24.3853 29.9042 24.3853 29.8657 24.452L26.8593 29.6591" stroke="black" stroke-width="2" stroke-linecap="round"/>
</svg>
