<svg width="681" height="534" viewBox="0 0 681 534" fill="none" xmlns="http://www.w3.org/2000/svg">
<rect x="1.23071" y="1" width="678.769" height="531.89" rx="9" fill="#2E46CE" fill-opacity="0.06" stroke="#4831D4" stroke-width="2"/>
<g clip-path="url(#clip0_29_1158)">
<path fill-rule="evenodd" clip-rule="evenodd" d="M466.502 106.723C465.697 107.446 464.379 107.812 462.57 107.812C460.487 107.812 459.158 108.273 456.891 109.785C455.263 110.87 453.496 111.78 452.964 111.806C451.996 111.855 453.7 112.347 457.453 113.104C459.083 113.433 459.371 113.347 459.034 112.632C458.747 112.024 459.038 111.758 459.985 111.758C460.735 111.758 461.349 111.477 461.349 111.134C461.349 110.79 460.865 110.661 460.274 110.846C459.682 111.03 459.367 110.959 459.573 110.689C459.778 110.418 460.844 110.089 461.942 109.958C463.665 109.752 464.047 109.963 464.731 111.503C465.533 113.307 468.277 115.806 468.277 114.732C468.277 114.413 467.844 113.858 467.314 113.501C465.8 112.478 465.472 109.921 466.71 108.798C468.239 107.413 476.264 107.397 478.136 108.775C479.205 109.562 479.552 109.6 480.023 108.98C480.499 108.353 481.222 108.401 484.138 109.254C486.083 109.823 487.674 110.599 487.674 110.979C487.674 112.01 490.906 112.351 496.307 111.888L501.128 111.476L494.575 109.924C490.97 109.071 485.839 107.855 483.171 107.224C480.504 106.591 475.935 105.975 473.017 105.854C468.446 105.664 467.545 105.784 466.502 106.723ZM481.138 110.402C480.768 111.603 480.513 111.738 479.675 111.172C479.038 110.741 477.665 110.617 475.978 110.836C474.501 111.028 471.88 110.971 470.153 110.708C467.793 110.349 467.091 110.4 467.332 110.91C467.609 111.497 471.8 111.906 483.64 112.505C484.279 112.537 484.65 112.762 484.465 113.006C484.28 113.249 484.459 113.449 484.862 113.449C485.266 113.449 485.596 113.79 485.596 114.207C485.596 114.624 486.258 115.448 487.068 116.039L488.54 117.113L488.026 115.14C487.384 112.679 487.057 112.217 486.241 112.627C485.886 112.806 485.596 112.683 485.596 112.355C485.596 112.027 484.65 111.758 483.494 111.758C481.627 111.758 481.471 111.635 482.11 110.665C482.522 110.037 482.564 109.438 482.208 109.259C481.867 109.087 481.385 109.601 481.138 110.402ZM495.392 113.072C494.602 113.846 494.929 113.971 498.132 114.122C500.131 114.217 501.876 114.563 502.008 114.89C502.14 115.218 498.999 117.818 495.026 120.668C487.846 125.82 487.783 125.851 484.102 125.854C482.066 125.855 478.997 125.486 477.283 125.033C475.568 124.581 471.827 123.67 468.969 123.01C466.112 122.349 461.903 121.32 459.617 120.724C457.331 120.127 454.93 119.641 454.282 119.644C453.635 119.647 452.836 119.26 452.508 118.783C452.162 118.279 451.958 122.361 452.021 128.536C452.149 141.123 452.307 141.479 458.412 143.03C460.599 143.586 464.103 144.484 466.198 145.025C476.302 147.638 478.034 147.935 479.068 147.236C479.622 146.863 482.33 146.427 485.087 146.268L490.099 145.98L495.944 141.626L501.79 137.271L501.919 130.856C502.003 126.621 502.427 123.58 503.164 121.905C504.399 119.101 504.684 113.708 503.625 113.175C503.253 112.988 501.45 112.691 499.619 112.514C497.091 112.271 496.072 112.405 495.392 113.072ZM489.204 118.804C489.378 120.509 489.388 121.905 489.226 121.905C489.065 121.905 488.132 121.392 487.153 120.766C485.169 119.496 481.16 119.411 479.935 120.613C479.069 121.462 476.166 121.587 475.57 120.802C475.344 120.506 474.741 120.394 474.228 120.553C473.639 120.738 473.119 120.267 472.811 119.269C472.393 117.915 472.232 117.828 471.664 118.654C470.852 119.834 468.629 119.599 461.514 117.578C458.413 116.696 455.823 116.283 454.76 116.5C452.091 117.046 452.724 117.959 455.772 117.959C457.277 117.959 458.758 118.276 459.063 118.663C459.6 119.347 464.173 120.655 474.165 122.983C479.974 124.336 488.696 125.095 489.3 124.3C489.736 123.726 485.179 123.032 480.972 123.032C478.887 123.032 478.698 122.912 479.315 121.975C480.073 120.822 482.873 119.944 482.628 120.936C482.465 121.594 488.168 122.635 489.58 122.205C490.7 121.862 490.783 115.704 489.667 115.704C489.147 115.704 488.994 116.733 489.204 118.804ZM199.402 120.077C194.982 122.657 186.138 128.061 184.46 129.208C184.011 129.514 181.699 130.851 179.323 132.177C172.82 135.806 172.305 136.741 172.866 143.89C173.408 150.797 173.887 152.112 176.057 152.636C176.936 152.849 178.776 153.639 180.146 154.391C182.877 155.892 184.292 155.756 185.577 153.866C186.42 152.624 192.547 148.453 194.582 147.735C195.407 147.444 195.302 147.342 194.146 147.312C192.464 147.269 183.922 143.395 184.489 142.933C184.863 142.629 190.991 144.332 192.231 145.085C192.627 145.325 194.186 145.779 195.695 146.092C201.637 147.326 207.11 148.727 214.719 150.96C220.358 152.615 234.758 156.392 241.391 157.956C242.534 158.225 246.119 159.19 249.358 160.1C252.597 161.011 262.729 163.717 271.873 166.115C281.018 168.513 291.618 171.315 295.428 172.34C299.238 173.366 309.37 176.034 317.943 178.271C326.516 180.508 335.054 182.819 336.914 183.408C338.775 183.997 340.717 184.479 341.23 184.479C343.026 184.479 347.72 186.294 347.312 186.832C347.085 187.13 346.505 187.251 346.023 187.1C345.337 186.886 345.314 187.122 345.92 188.185C346.895 189.895 347.733 189.938 347.733 188.277C347.733 187.408 348.946 186.215 351.55 184.525C355.639 181.87 356.307 180.504 352.301 182.991C350.983 183.809 349.364 184.479 348.706 184.479C348.047 184.479 344.363 183.621 340.52 182.572C336.676 181.523 327.919 179.207 321.061 177.423C314.202 175.639 307.032 173.729 305.127 173.177C303.222 172.626 297.922 171.225 293.35 170.063C288.777 168.902 282.386 167.208 279.148 166.299C275.909 165.39 272.324 164.449 271.181 164.206C270.038 163.964 264.328 162.465 258.494 160.875C252.659 159.284 247.562 157.983 247.167 157.983C246.773 157.983 245.467 157.641 244.267 157.223C242.141 156.483 231.477 153.627 206.059 146.992C189.137 142.574 185.431 141.45 185.098 140.637C184.463 139.087 192.264 140.185 200.171 142.76C205.578 144.521 210.652 145.952 219.222 148.135C229.98 150.875 234.952 152.192 238.128 153.142C239.542 153.565 249.583 156.245 260.443 159.098C271.302 161.952 281.278 164.617 282.611 165.021C283.945 165.426 290.648 167.209 297.506 168.985C311.136 172.515 328.983 177.222 341.602 180.616C350.195 182.928 351.197 183.098 351.197 182.246C351.197 181.949 349.871 181.412 348.252 181.053C346.633 180.695 344.061 180.018 342.537 179.549C341.013 179.08 338.831 178.498 337.688 178.256C336.544 178.013 332.959 177.064 329.721 176.147C326.482 175.23 314.947 172.124 304.088 169.246C293.228 166.368 276.55 161.881 267.024 159.276C257.498 156.67 248.525 154.296 247.083 153.999C245.641 153.702 243.927 153.237 243.273 152.964C242.159 152.502 227.348 148.52 211.601 144.451C202.425 142.08 198.092 140.533 198.092 139.626C198.092 138.542 199.399 138.061 200.438 138.763C200.933 139.097 201.486 139.249 201.668 139.102C202.448 138.467 212.033 140.637 225.457 144.488C226.6 144.816 235.797 147.342 245.894 150.102C255.991 152.861 265.188 155.383 266.331 155.707C274.534 158.027 295.811 163.805 297.506 164.172C298.649 164.421 305.196 166.183 312.055 168.089C349.231 178.424 355.694 180.066 356.739 179.448C357.311 179.11 358.558 178.528 359.51 178.155C361.805 177.256 369.209 172.114 369.209 171.419C369.209 170.754 365.841 172.653 363.58 174.592C361.04 176.771 358.875 176.591 346.694 173.186C335.698 170.112 329.829 168.524 327.989 168.125C326.846 167.878 321.234 166.384 315.519 164.806C309.803 163.228 303.568 161.532 301.663 161.037C299.758 160.542 296.64 159.68 294.735 159.121C292.83 158.562 289.245 157.586 286.768 156.954C284.291 156.321 280.862 155.405 279.148 154.917C277.433 154.43 269.327 152.261 261.135 150.098C252.943 147.935 244.838 145.763 243.123 145.272C241.408 144.78 237.979 143.869 235.502 143.246C233.026 142.623 229.441 141.641 227.535 141.065C225.63 140.487 221.578 139.384 218.529 138.611C215.481 137.84 210.659 136.527 207.813 135.695C202.689 134.197 202.618 134.192 200.285 135.214C198.99 135.782 196.953 136.956 195.76 137.822C194.251 138.917 193.167 139.287 192.204 139.035C191.442 138.835 189.28 138.55 187.4 138.401C183.346 138.08 182.158 138.957 182.158 142.274C182.158 144.558 183.97 146.129 186.643 146.163C188.203 146.183 190.472 147.391 190.472 148.201C190.472 148.672 185.728 152.141 183.82 153.067C183.054 153.438 176.113 151.624 175.176 150.808C174.901 150.569 174.459 147.568 174.194 144.139C173.72 138.021 173.744 137.873 175.467 136.206C176.433 135.272 178.568 133.765 180.211 132.857C184.147 130.681 196.958 122.993 197.399 122.541C198.267 121.654 204.304 118.523 205.133 118.531C206.23 118.541 210.541 119.749 211.775 120.392C213.241 121.157 212.762 122.468 211.016 122.468C208.185 122.468 205.701 125.975 206.706 128.552C207.04 129.408 207.983 129.71 211.099 129.955C215.259 130.283 216.513 130.569 232.731 134.881C254.697 140.721 267.061 143.9 267.798 143.895C268.223 143.892 270.094 144.359 271.954 144.932C273.815 145.506 276.896 146.361 278.801 146.832C283.582 148.014 297.237 151.483 307.205 154.047C311.778 155.223 319.727 157.242 324.871 158.533C330.015 159.824 334.847 161.085 335.609 161.336C336.371 161.586 339.801 162.487 343.23 163.339C349.341 164.857 358.683 167.281 365.235 169.05C367.092 169.551 369.316 169.78 370.322 169.575C371.305 169.375 375.073 167.147 378.697 164.625C384.441 160.627 385.453 160.124 386.59 160.703C388.311 161.577 389.302 161.539 390.648 160.547C391.608 159.841 392.327 159.834 395.899 160.498C401.071 161.46 403.861 162.131 408.698 163.574C410.793 164.2 413.755 164.72 415.279 164.731C416.803 164.742 421.635 165.671 426.017 166.796C441.328 170.726 450.004 172.846 455.547 174.013C461.592 175.286 461.781 175.508 458.773 177.812C454.324 181.22 448.69 188.46 449.79 189.355C449.956 189.489 450.609 188.546 451.241 187.261C452.406 184.89 458.535 178.618 459.176 179.14C459.367 179.296 459.155 179.724 458.704 180.091C457.491 181.078 457.709 181.917 458.959 181.072C459.843 180.475 460.222 180.501 461.102 181.218C462.022 181.965 462.071 182.832 461.456 187.37C459.982 198.23 459.458 199.165 453.382 201.78C452.239 202.273 451.087 202.95 450.821 203.286C450.519 203.668 450.155 203.505 449.845 202.846C449.367 201.835 450.745 197.604 453.533 191.525C455.281 187.714 458.407 183.845 460.015 183.503C460.74 183.349 461.194 183.04 461.024 182.816C460.475 182.092 457.976 182.546 456.493 183.638C454.638 185.004 451.489 190.089 451.926 191.014C452.11 191.405 451.832 192.014 451.309 192.367C450.785 192.72 450.354 193.437 450.349 193.959C450.344 194.481 450.025 196.049 449.639 197.444C448.751 200.662 448.677 205.9 449.521 205.9C449.874 205.9 450.264 205.509 450.387 205.031C450.51 204.552 452.949 203.221 455.807 202.071C460.423 200.214 461.02 199.793 461.162 198.29C461.251 197.36 461.715 194.062 462.195 190.961C462.937 186.164 463.127 185.66 463.469 187.579C463.738 189.088 463.868 188.342 463.861 185.324C463.85 180.281 465.151 176.586 466.938 176.586C468.227 176.586 475.072 178.743 476.417 179.572C478.34 180.758 477.201 182.595 471.679 187.21C468.597 189.787 466.18 191.979 466.31 192.082C466.439 192.186 467.697 192.445 469.105 192.659C471.562 193.033 471.874 192.887 476.862 189.045C479.721 186.843 482.434 185.042 482.891 185.042C484.419 185.042 491.831 187.441 491.831 187.936C491.831 188.205 491.452 188.425 490.989 188.425C490.526 188.425 488.733 189.535 487.005 190.893C484.558 192.816 483.176 193.438 480.747 193.711L477.629 194.061L479.538 192.885C480.587 192.238 481.273 191.48 481.061 191.2C480.849 190.921 481.11 190.828 481.642 190.995C482.215 191.173 483.362 190.495 484.45 189.334C486.675 186.96 486.705 186.733 484.795 186.733C483.845 186.733 481.574 188.205 478.56 190.771C474.047 194.615 473.022 195.657 474.466 194.931C474.822 194.751 476.303 194.975 477.757 195.427C479.211 195.879 481.024 196.352 481.786 196.477C483.079 196.691 483.088 196.736 481.919 197.148C480.54 197.635 466.891 194.244 466.891 193.415C466.891 193.15 466.607 192.934 466.259 192.934C465.911 192.934 465.444 193.949 465.22 195.189C464.996 196.43 464.617 198.516 464.379 199.827C463.986 201.983 464.053 202.138 465.072 201.45C465.691 201.031 466.209 200.403 466.223 200.053C466.258 199.161 469.515 196.01 469.997 196.401C470.215 196.579 470.073 197.41 469.682 198.248C469.29 199.086 468.969 200.332 468.969 201.017C468.969 201.701 468.011 203.207 466.841 204.362C465.67 205.518 465.046 206.464 465.455 206.464C465.864 206.464 466.198 206.943 466.198 207.528C466.198 208.41 467.413 208.834 473.299 210.005C477.205 210.782 480.634 211.303 480.92 211.163C481.206 211.022 481.439 208.679 481.439 205.955C481.439 199.606 482.362 198.192 491.485 190.558C497.853 185.228 498.436 184.874 498.703 186.17C498.863 186.945 499.354 184.722 499.795 181.23C500.494 175.685 500.821 174.685 502.369 173.338C506.657 169.608 507.349 165.605 504.118 163.223C502.319 161.897 496.6 160.238 493.827 160.238C491.266 160.238 490.5 159.13 493.003 159.044C494.073 159.007 495.206 159.014 495.52 159.058C495.834 159.102 495.878 158.859 495.618 158.517C495.317 158.12 493.981 158.023 491.93 158.251C489.699 158.497 488.318 158.369 487.422 157.833C486.222 157.113 486.67 156.629 493.824 150.928C501.546 144.775 502.905 142.989 502.031 140.141C501.797 139.379 501.57 139.592 501.187 140.933C500.67 142.745 495.892 146.924 489.167 151.449C484.612 154.514 482.772 154.404 465.479 150.032C460.701 148.824 456.337 147.831 455.78 147.824C455.223 147.817 453.988 147.315 453.035 146.709C451.632 145.815 451.534 145.604 452.516 145.594C453.994 145.578 454.156 143.454 452.796 141.941C451.93 140.977 451.835 141.024 451.443 142.617C450.792 145.266 446.957 146.948 442.539 146.522C437.784 146.064 434.412 144.988 433.94 143.779C433.724 143.222 432.772 142.608 431.827 142.414C429.438 141.927 428.889 142.608 431.117 143.296C432.123 143.608 432.945 143.973 432.945 144.108C432.945 144.56 429.835 144.084 428.236 143.388C426.113 142.463 424.758 142.904 421.217 145.672C418.257 147.987 418.229 148.045 418.615 151.087C418.829 152.778 419.551 155.397 420.218 156.908C421.427 159.642 421.425 159.66 419.831 161.042C418.949 161.805 417.211 162.822 415.968 163.303C413.886 164.106 413.438 164.092 410.336 163.121C408.482 162.541 404.627 161.498 401.77 160.803C398.912 160.108 395.238 159.189 393.605 158.761C388.199 157.345 386.831 157.649 381.574 161.441L376.782 164.899L373.104 164.547C371.081 164.353 367.896 163.716 366.027 163.131C364.157 162.546 360.289 161.502 357.432 160.811C354.574 160.121 350.989 159.218 349.465 158.805C347.941 158.392 342.953 157.125 338.38 155.989C333.808 154.854 328.82 153.59 327.296 153.18C323.125 152.06 301.396 146.514 291.964 144.164C287.392 143.024 282.092 141.644 280.187 141.097C278.282 140.551 275.008 139.689 272.913 139.182C270.817 138.676 265.361 137.27 260.789 136.058C256.217 134.847 248.735 132.909 244.162 131.753C213.304 123.95 214.437 124.312 214.141 122.171C213.823 119.866 212.393 118.747 208.828 118.017C204.482 117.127 204.442 117.136 199.402 120.077ZM495.982 127.083C492.791 129.54 489.265 131.718 487.871 132.092C484.873 132.897 480.289 132.509 474.415 130.952C471.991 130.31 466.375 128.898 461.934 127.815C454.396 125.977 453.885 125.761 454.24 124.58C454.898 122.394 455.852 121.824 458.168 122.232C459.346 122.44 460.466 122.791 460.656 123.013C460.847 123.235 463.964 123.974 467.584 124.656C476.662 126.367 482.132 128.124 482.132 129.331C482.132 129.861 482.444 130.451 482.825 130.642C483.218 130.84 483.518 130.366 483.518 129.548C483.518 128.013 485.324 127.546 486.755 128.711C487.284 129.141 487.94 128.735 489.031 127.299C489.873 126.19 492.952 123.583 495.873 121.508L501.184 117.734L501.405 120.235C501.623 122.707 501.56 122.786 495.982 127.083ZM219.222 126.808C222.27 127.578 226.011 128.535 227.535 128.937C229.06 129.339 234.048 130.611 238.62 131.764C243.192 132.918 248.648 134.319 250.744 134.879C252.839 135.438 258.295 136.824 262.867 137.957C267.44 139.091 272.739 140.472 274.645 141.028C276.55 141.584 279.979 142.491 282.265 143.045C284.551 143.599 288.136 144.503 290.232 145.054C292.328 145.606 295.601 146.428 297.506 146.882C305.129 148.698 317.792 151.915 321.061 152.866C324.302 153.808 330.265 155.333 338.38 157.293C340.285 157.753 343.559 158.578 345.655 159.125C347.75 159.672 353.206 161.057 357.778 162.202C362.351 163.347 367.349 164.642 368.885 165.08C370.423 165.518 372.215 165.875 372.869 165.875C374.469 165.875 374.376 166.825 372.705 167.553C371.722 167.98 370.631 167.927 368.721 167.357C367.275 166.925 362.039 165.549 357.085 164.299C352.132 163.05 342.935 160.702 336.648 159.083C330.361 157.465 321.788 155.266 317.597 154.198C313.406 153.13 308.262 151.788 306.166 151.218C302.564 150.237 296.191 148.633 277.762 144.07C273.38 142.985 268.08 141.641 265.985 141.083C263.889 140.525 260.304 139.624 258.018 139.081C255.732 138.538 252.302 137.644 250.397 137.095C248.492 136.546 243.66 135.298 239.659 134.32C235.658 133.342 228.55 131.544 223.862 130.324C219.175 129.104 214.81 128.1 214.163 128.093C213.516 128.087 212.241 127.614 211.329 127.043C209.378 125.823 209.942 124.497 212.179 125.044C213.004 125.245 216.174 126.039 219.222 126.808ZM465.159 131.227L467.237 131.96L465.159 132.015C463.643 132.054 463.348 132.206 464.067 132.577C464.831 132.97 464.673 133.128 463.375 133.273C461.862 133.443 461.737 133.657 462.123 135.434L462.552 137.407L462.643 135.575C462.73 133.821 462.854 133.743 465.546 133.743C467.244 133.743 468.189 133.52 467.93 133.179C467.088 132.07 470.428 132.48 479.826 134.64C481.796 135.093 483.667 135.427 483.983 135.382C485.573 135.156 485.956 135.67 486.108 138.236C486.291 141.322 485.292 144.152 484.212 143.609C483.83 143.417 483.518 142.641 483.518 141.884C483.518 141.127 483.206 140.508 482.825 140.508C482.444 140.508 482.127 141.078 482.122 141.776C482.093 145.136 479.143 145.484 468.8 143.348C460.477 141.628 456.499 140.341 456.499 139.366C456.499 139.063 456.771 138.817 457.103 138.817C457.435 138.817 457.925 136.771 458.193 134.271L458.68 129.726L460.88 130.11C462.091 130.321 464.016 130.823 465.159 131.227ZM493.714 135.923C493.529 138.762 493.08 140.189 492.027 141.278C491.238 142.095 490.369 142.763 490.097 142.763C489.824 142.763 489.721 140.832 489.868 138.473C490.095 134.805 490.368 134.03 491.752 133.118C492.642 132.532 493.504 132.052 493.668 132.052C493.832 132.052 493.853 133.794 493.714 135.923ZM313.393 143.265C313.655 143.609 314.396 143.892 315.04 143.893C315.684 143.896 317.147 144.303 318.29 144.799C319.433 145.295 322.862 146.267 325.91 146.96C328.958 147.653 332.392 148.616 333.54 149.101C336.241 150.241 342.58 151.06 341.913 150.182C341.653 149.839 340.128 149.268 338.524 148.913C336.921 148.558 333.021 147.537 329.858 146.643C326.694 145.749 323.202 145.018 322.098 145.018C320.994 145.018 319.842 144.667 319.537 144.238C319.232 143.811 317.618 143.275 315.95 143.05C313.798 142.758 313.056 142.821 313.393 143.265ZM433.586 147.066C436.472 147.883 440.945 148.678 443.526 148.834C447.917 149.099 448.189 149.194 447.756 150.304C447.347 151.354 447.425 151.403 448.433 150.722C449.059 150.299 449.572 149.46 449.572 148.857C449.572 147.67 450.283 147.717 455.114 149.22C456.447 149.634 459.409 150.361 461.695 150.835C463.981 151.308 467.722 152.119 470.009 152.637C472.295 153.154 476.088 153.872 478.438 154.231C482.988 154.927 484.356 155.502 482.693 156.021C482.132 156.197 479.29 155.809 476.381 155.16C472.417 154.275 470.75 154.127 469.729 154.572C468.98 154.898 467.067 155.165 465.477 155.165C463.267 155.165 462.675 154.976 462.963 154.366C463.444 153.345 461.584 152.746 460.077 153.436C459.063 153.9 459.118 154.023 460.534 154.452C461.419 154.719 462.131 155.18 462.114 155.475C462.098 155.769 463.957 156.286 466.245 156.622C468.533 156.959 470.768 157.53 471.211 157.891C472.746 159.14 473.362 158.541 471.87 157.25L470.372 155.952L474 156.342C478.614 156.837 482.474 157.806 483.386 158.698C483.938 159.237 483.142 159.372 479.824 159.301L475.551 159.211L480.054 159.77C482.531 160.078 485.212 160.585 486.011 160.898C486.811 161.21 488.058 161.392 488.782 161.301C490.246 161.119 493.24 161.641 496.207 162.597C498.546 163.349 497.493 164.182 494.256 164.14C492.321 164.115 492.285 164.078 493.736 163.603C494.593 163.322 495.292 163.021 495.288 162.934C495.274 162.594 483.701 162.496 480.836 162.812C477.52 163.178 477.71 164.126 481.124 164.255C482.25 164.297 483.795 164.47 484.557 164.639C485.823 164.921 485.794 164.982 484.211 165.355C482.698 165.711 482.803 165.77 485.037 165.819C488.969 165.906 492.153 167.719 493.156 170.444C494.107 173.025 493.824 173.751 492.421 172.332C488.985 168.862 487.915 168.266 485.054 168.234C483.462 168.216 481.978 168.441 481.756 168.734C481.082 169.621 483.595 170.045 485.698 169.399C486.785 169.065 487.674 168.92 487.674 169.076C487.674 169.587 484.603 171.499 482.268 172.439C480.893 172.993 480.121 173.661 480.335 174.113C481.004 175.534 478.662 175.899 476.004 174.788C474.611 174.206 472.787 173.866 471.95 174.034C469.786 174.466 468.666 172.72 470.214 171.328C471.417 170.246 471.771 166.314 470.812 164.68C469.843 163.029 472.259 161.757 475.647 162.135C477.276 162.316 478.777 162.242 478.984 161.97C479.427 161.387 475.704 160.238 473.369 160.238C472.474 160.238 471.156 159.762 470.441 159.181C469.671 158.554 467.205 157.849 464.379 157.449C461.76 157.078 459.149 156.451 458.578 156.055C458.006 155.66 455.98 155.029 454.075 154.653C452.169 154.277 448.896 153.608 446.8 153.165C444.705 152.723 441.727 152.107 440.182 151.798C438.637 151.488 436.321 150.47 435.034 149.535C433.748 148.601 431.951 147.836 431.042 147.836C429.091 147.836 426.71 146.896 426.71 146.125C426.71 145.293 427.887 145.454 433.586 147.066ZM426.236 149.64C427.068 150.012 428.455 150.295 429.318 150.269C430.717 150.227 430.732 150.25 429.457 150.481C428.481 150.658 428.092 151.109 428.234 151.898C428.348 152.535 427.974 153.238 427.403 153.459C426.831 153.681 425.637 154.17 424.748 154.547C423.19 155.208 423.14 155.161 423.342 153.255C423.457 152.168 423.326 151.096 423.052 150.873C422.778 150.65 422.553 150.932 422.553 151.5C422.553 152.069 422.36 152.376 422.124 152.184C421.887 151.992 421.893 151.189 422.137 150.399C422.62 148.831 423.896 148.594 426.236 149.64ZM438.879 153.521C440.428 154.115 442.358 154.601 443.168 154.601C443.978 154.601 444.839 154.863 445.082 155.182C445.333 155.513 446.508 155.613 447.814 155.413C450.571 154.993 451.258 155.66 451.334 158.829C451.364 160.069 451.525 161.428 451.692 161.849C451.865 162.286 450.212 163.783 447.84 165.337C444.708 167.387 443.085 168.067 441.258 168.093L438.833 168.126L441.009 167.046C444.027 165.549 444.261 165.015 442.227 164.26C440.632 163.67 440.507 163.711 440.896 164.707C441.784 166.984 435.924 167.594 434.343 165.39C433.978 164.882 433.67 164.759 433.658 165.118C433.647 165.483 433.047 165.644 432.294 165.484C431.049 165.219 431.086 165.101 432.814 163.864C434.98 162.312 433.656 161.967 430.555 163.277C428.549 164.123 425.135 163.858 426.824 162.988C427.333 162.725 428.451 162.507 429.308 162.502C430.165 162.497 430.866 162.219 430.866 161.883C430.866 161.514 431.804 161.376 433.246 161.535C435.371 161.768 435.544 161.69 434.869 160.811C434.427 160.234 433.585 159.939 432.836 160.098C431.344 160.415 431.229 159.794 432.524 158.406C433.665 157.183 435.617 157.144 437.651 158.303C438.504 158.789 439.898 159.077 440.749 158.944C442.099 158.732 442.06 158.691 440.443 158.624C439.37 158.579 438.013 157.952 437.226 157.138C436.476 156.363 435.556 155.728 435.181 155.728C434.806 155.728 434.01 155.158 433.412 154.46L432.325 153.192L432.288 154.475C432.253 155.745 432.23 155.748 430.001 154.785C428.275 154.039 428.032 153.763 428.961 153.601C429.628 153.485 430.174 153.007 430.174 152.537C430.174 151.434 434.796 151.957 438.879 153.521ZM523.699 155.446C523.318 156.262 523.003 157.61 522.998 158.443C522.993 159.275 522.175 161.098 521.179 162.493C519.609 164.692 519.295 165.972 518.818 172.112C518.516 176.007 518.078 180.066 517.845 181.132C517.4 183.171 516.59 198.777 516.778 201.672C517.014 205.287 516.951 206.879 516.426 210.537C515.803 214.875 516.245 215.632 519.989 216.638C523.533 217.59 526.774 216.866 529.939 214.417C533.152 211.93 533.395 210.846 530.941 209.937C528.517 209.038 528.548 209.019 528.548 211.425C528.548 213.43 527.604 214.92 526.332 214.92C526.027 214.92 525.777 212.317 525.777 209.137C525.777 203.963 525.924 203.278 527.163 202.649C528.263 202.089 528.548 201.334 528.548 198.982C528.548 197.319 529.191 194.662 530.011 192.927C532.664 187.317 533.398 184.296 533.398 178.982C533.398 174.494 533.145 173.325 531.662 170.942C529.48 167.439 528.441 163.544 528.307 158.364C528.204 154.395 528.167 154.316 526.297 154.141C524.778 153.998 524.253 154.262 523.699 155.446ZM393.762 156.573C394.502 157.038 394.814 157.432 394.455 157.447C393.288 157.496 402.392 160.177 405.062 160.57C406.49 160.781 408.438 161.267 409.39 161.651C412.648 162.966 414.267 163.208 413.848 162.319C413.514 161.61 411.183 160.623 406.273 159.114C405.511 158.879 403.989 158.393 402.893 158.032C401.795 157.672 400.731 157.514 400.525 157.681C400.321 157.847 400.458 157.983 400.829 157.983C401.201 157.983 402.11 158.381 402.85 158.867C404.133 159.711 404.106 159.736 402.232 159.408C401.152 159.22 399.126 158.487 397.729 157.779C396.331 157.071 394.565 156.319 393.803 156.108C392.439 155.732 392.438 155.739 393.762 156.573ZM540.385 160.379C537.514 162.822 536.426 164.627 538.94 162.775C540.283 161.786 540.326 161.79 540.326 162.901C540.326 163.53 540.828 164.386 541.443 164.8C542.056 165.215 542.758 165.979 543.001 166.498C543.379 167.305 543.708 167.205 545.269 165.813C546.724 164.515 546.861 164.184 545.942 164.184C544.363 164.184 541.711 162.6 541.711 161.656C541.711 160.429 543.732 159.111 545.612 159.111C546.584 159.111 547.149 158.865 546.907 158.547C545.93 157.261 543.124 158.049 540.385 160.379ZM468.454 160.721C468.773 160.98 467.932 161.876 466.585 162.712C464.625 163.928 463.868 164.114 462.788 163.644C461.069 162.896 458.361 162.879 458.924 163.621C459.16 163.931 460.323 164.184 461.51 164.184H463.669L462.053 165.584C459.891 167.456 458.718 167.679 455.619 166.806L453.007 166.069L457.219 162.8C461.388 159.564 461.465 159.534 464.653 159.89C466.425 160.087 468.135 160.461 468.454 160.721ZM497.806 167.744C499.331 167.305 499.339 170.527 497.82 172.878C496.884 174.326 496.3 176.325 496.24 178.278C496.074 183.707 495.844 184.38 495.175 181.378C494.83 179.828 494.482 175.99 494.401 172.851C494.261 167.358 494.308 167.158 495.641 167.555C496.404 167.783 497.378 167.868 497.806 167.744ZM525.637 169.456C528.704 168.815 529.765 175.768 528.53 188.425C528.122 192.609 526.129 200.557 525.845 199.135C525.814 198.98 526.253 195.819 526.822 192.11C527.391 188.401 527.835 182.06 527.81 178.017C527.766 170.859 527.741 170.74 526.853 173.486C525.976 176.202 524.122 193.162 524.451 195.471C524.786 197.825 524.364 200.827 523.699 200.827C523.318 200.827 522.992 199.622 522.976 198.149L522.945 195.471L521.947 197.726C521.398 198.966 520.944 200.026 520.938 200.082C520.933 200.137 521.446 200.604 522.079 201.119C522.991 201.861 523.044 202.15 522.334 202.508C521.7 202.827 521.534 203.915 521.769 206.22C522.084 209.315 521.222 212.665 520.11 212.665C519.828 212.665 519.711 209.558 519.85 205.759C519.989 201.961 520.133 196.746 520.169 194.17C520.211 191.203 520.489 189.614 520.928 189.834C521.309 190.026 521.621 190.928 521.621 191.84C521.621 192.752 521.932 193.498 522.313 193.498C523.345 193.498 523.151 189.464 521.991 186.789C521.358 185.329 521.186 183.977 521.535 183.195C521.843 182.505 522.031 180.124 521.953 177.902C521.84 174.69 522.004 173.923 522.755 174.157C523.838 174.495 524.051 173.447 523.006 172.922C522.013 172.423 522.15 169.398 523.179 169.107C523.656 168.973 524.138 169.052 524.252 169.283C524.365 169.513 524.989 169.591 525.637 169.456ZM486.852 176.68C482.937 180.7 479.574 183.351 478.388 183.351C477.354 183.351 477.362 183.21 478.472 181.801C481.639 177.781 483.135 176.101 485.817 173.555L488.714 170.806L488.93 172.565C489.091 173.872 488.558 174.928 486.852 176.68ZM512.495 173.909C512.022 174.607 511.309 177.714 510.912 180.814L510.19 186.452L507.78 186.291C506.454 186.203 504.691 185.768 503.861 185.326C501.996 184.331 501.53 185.016 501.53 188.753C501.53 191.537 499.908 192.258 498.78 189.975C498.157 188.713 498.154 188.714 498.121 190.116C498.069 192.292 499.013 193.128 500.924 192.603C501.829 192.354 504.285 192.22 506.382 192.305C509.656 192.437 510.416 192.266 511.77 191.093C512.763 190.233 513.179 189.373 512.895 188.77C512.294 187.495 511.086 187.887 509.992 189.713C509.237 190.972 508.85 191.123 507.465 190.694C506.565 190.416 505.686 190.305 505.51 190.447C504.862 190.974 503.468 188.972 503.877 188.103C504.202 187.415 505.072 187.248 507.591 187.392L510.881 187.579L511.404 183.069C511.999 177.93 513.652 173.768 515.097 173.768C515.636 173.768 516.078 173.514 516.078 173.204C516.078 172.117 513.347 172.653 512.495 173.909ZM542.404 184.479C540.453 185.879 539.705 186.719 540.405 186.724C541.019 186.729 542.37 187.423 543.407 188.267C544.868 189.456 545.231 190.216 545.026 191.649C544.767 193.452 544.827 193.498 547.391 193.498C551.087 193.498 555.567 190.243 555.567 187.557C555.567 184.731 552.194 182.221 548.413 182.233C546.037 182.239 544.965 182.64 542.404 184.479ZM348.863 189.552C349.501 191.213 349.438 202.52 348.766 207.176C348.502 209 348.602 211.138 348.994 212.052C349.761 213.845 352.487 211.658 315.323 239.07C309.715 243.207 301.542 249.328 297.16 252.673C292.778 256.018 285.088 261.766 280.07 265.446C260.808 279.577 249.427 287.994 242.084 293.539C237.893 296.704 231.346 301.522 227.535 304.244C223.725 306.967 218.425 310.885 215.758 312.95C211.497 316.249 202.104 323.097 197.574 326.205C195.891 327.36 195.896 327.362 188.047 324.515C184.693 323.299 179.232 321.464 178.964 321.464C178.828 321.464 179.237 322.352 179.873 323.437C180.549 324.591 181.537 325.411 182.251 325.411C182.922 325.411 186.032 326.068 189.16 326.872C192.834 327.817 195.59 328.213 196.946 327.993C198.246 327.782 201.037 326.112 204.284 323.604C207.166 321.378 212.017 317.624 215.065 315.264C218.114 312.904 226.063 307.024 232.731 302.198C239.399 297.372 245.442 292.89 246.16 292.237C246.878 291.584 247.735 291.185 248.065 291.352C248.395 291.517 248.665 291.273 248.665 290.808C248.665 290.343 249.025 289.781 249.465 289.56C249.994 289.294 250.075 289.407 249.704 289.896C249.331 290.388 249.414 290.498 249.955 290.225C250.401 290.001 250.613 289.615 250.425 289.369C249.968 288.767 252.378 287.036 253.973 286.819C254.674 286.724 255.176 286.38 255.089 286.055C254.855 285.174 259.048 282.501 259.982 282.936C260.426 283.142 260.548 283.096 260.253 282.833C259.559 282.21 265.307 277.434 266.206 277.887C266.583 278.077 266.69 277.967 266.444 277.642C266.008 277.069 269.318 274.874 270.274 275.102C270.538 275.165 271.354 274.597 272.088 273.838C272.821 273.079 273.574 272.582 273.761 272.735C273.948 272.887 274.535 272.561 275.065 272.011C275.943 271.102 275.92 271.081 274.818 271.784C274.151 272.21 273.607 272.337 273.609 272.066C273.611 271.796 275.55 270.179 277.917 268.474C281.871 265.626 294.746 256.095 309.352 245.203C312.587 242.79 315.54 240.97 315.913 241.157C316.287 241.345 316.506 241.241 316.402 240.927C316.146 240.158 327.553 231.72 328.325 232.108C328.659 232.276 329.157 232.117 329.433 231.754C329.746 231.342 329.635 231.245 329.135 231.496C327.666 232.235 328.312 231.248 330.311 229.699C331.398 228.856 336.248 225.25 341.088 221.685C349.441 215.53 352.092 213.848 350.84 215.498C350.469 215.986 350.565 216.083 351.136 215.796C351.601 215.562 351.796 215.219 351.569 215.034C350.904 214.493 361.085 206.464 362.437 206.464C363.113 206.464 363.667 206.661 363.667 206.901C363.667 207.704 350.03 218.201 326.801 235.277C309.632 247.897 296.242 257.827 288.5 263.678C284.309 266.846 277.606 271.79 273.605 274.666C269.605 277.542 263.37 282.227 259.75 285.077C256.13 287.928 249.895 292.564 245.894 295.381C241.893 298.198 236.905 301.945 234.81 303.709C232.714 305.473 226.791 309.984 221.647 313.735C216.503 317.484 210.267 322.116 207.791 324.027C205.313 325.937 202.544 327.692 201.637 327.926C200.362 328.256 200.205 328.464 200.945 328.846C202.677 329.739 204.752 329.38 206.458 327.892C207.382 327.086 209.073 325.914 210.216 325.286C211.777 324.428 211.554 324.739 209.317 326.536C207.68 327.851 206.519 329.073 206.737 329.25C207.294 329.704 214.731 323.629 214.305 323.068C213.853 322.471 218.87 318.884 219.899 319.068C220.331 319.145 221.758 318.284 223.07 317.153L225.457 315.098L223.214 316.409C221.981 317.13 220.82 317.597 220.636 317.448C220.452 317.298 224.735 313.978 230.153 310.071C235.572 306.164 241.763 301.612 243.911 299.955C249.907 295.331 252.128 293.793 252.14 294.26C252.146 294.495 252.379 294.405 252.659 294.062C252.939 293.717 254.104 293.037 255.247 292.55C257.985 291.383 265.153 285.967 266.199 284.274C266.653 283.539 267.492 282.814 268.063 282.661C268.98 282.416 268.982 282.51 268.084 283.462C267.456 284.127 267.788 284.017 268.95 283.174C271.066 281.639 271.472 280.932 269.622 282.004C268.955 282.39 270.213 281.283 272.417 279.543C274.621 277.803 276.789 276.439 277.235 276.513C277.981 276.637 278.119 276.405 278.368 274.615C278.416 274.271 278.885 274.125 279.41 274.289C279.937 274.453 281.395 273.723 282.663 272.658C283.928 271.597 284.706 270.729 284.395 270.729C284.082 270.729 284.212 270.351 284.684 269.889C285.155 269.428 285.845 269.204 286.219 269.392C286.973 269.771 293.112 265.128 292.654 264.524C292.495 264.314 293.521 263.278 294.934 262.221C297.213 260.517 297.288 260.494 295.6 262.022C292.076 265.21 293.659 264.805 297.82 261.454C300.088 259.627 301.797 257.941 301.619 257.705C301.44 257.47 301.659 257.094 302.105 256.87C302.611 256.615 302.731 256.706 302.422 257.112C302.15 257.47 302.194 257.763 302.521 257.763C303.368 257.763 308.244 253.606 308.244 252.884C308.244 252.03 314.917 247.052 316.061 247.052C316.583 247.052 317.765 246.377 318.689 245.552C319.612 244.727 319.9 244.26 319.329 244.515C318.712 244.79 318.525 244.77 318.867 244.465C319.185 244.183 319.675 243.952 319.958 243.952C320.241 243.952 324.034 241.256 328.387 237.962C332.74 234.667 338.212 230.608 340.546 228.942C342.88 227.276 347.939 223.566 351.789 220.698C355.64 217.83 358.944 215.484 359.134 215.484C359.323 215.484 361.577 216.126 364.141 216.911C366.706 217.697 369.285 218.248 369.873 218.134C370.46 218.021 368.516 217.337 365.552 216.614C362.562 215.886 360.271 215.028 360.408 214.687C360.543 214.35 361.721 213.789 363.026 213.44C364.593 213.021 365.474 212.398 365.62 211.604C365.743 210.943 366.651 209.961 367.638 209.42C368.625 208.879 371.454 206.852 373.925 204.914C378.699 201.169 380.043 200.607 379.308 202.659C379.058 203.357 378.67 204.751 378.444 205.759C377.997 207.757 377.592 207.958 376.174 206.887C375.427 206.323 375.339 206.323 375.729 206.887C375.998 207.275 375.875 207.591 375.454 207.591C375.035 207.591 374.782 207.968 374.894 208.428C375.006 208.888 373.896 210.139 372.426 211.208C370.133 212.878 369.839 213.351 370.348 214.557C370.913 215.895 371.007 215.917 372.333 215.018C373.098 214.499 374.408 213.358 375.244 212.482C376.079 211.607 378.048 210.133 379.618 209.208C381.936 207.841 382.81 207.616 384.268 208.012C385.996 208.48 385.58 208.883 372.96 218.927C365.753 224.663 350.66 236.57 339.419 245.388C328.179 254.204 311.968 267.003 303.395 273.828C294.822 280.654 281.105 291.422 272.913 297.757C264.72 304.091 247.227 317.85 234.039 328.331C213 345.051 210.1 347.561 210.392 348.801C210.586 349.627 210.402 350.215 209.951 350.215C208.677 350.215 209.071 346.112 210.575 343.71C211.76 341.819 211.905 340.853 211.52 337.395C211.259 335.051 210.663 333.041 210.121 332.675C209.348 332.153 209.254 332.348 209.599 333.754C210.118 335.865 208.975 336.902 194.282 347.647L183.89 355.247L179.963 355.268C177.803 355.279 175.153 354.926 174.074 354.483C172.996 354.04 170.087 353.007 167.61 352.188C157.365 348.801 148.682 345.731 145.183 344.259C143.248 343.446 143.204 343.459 143.614 344.705C143.847 345.41 144.041 346.823 144.046 347.846C144.052 349.07 144.617 350.129 145.697 350.946C147.616 352.396 149.013 358.033 148.801 363.462C148.728 365.322 149.032 367.396 149.476 368.07C150.18 369.139 154.333 371.04 159.989 372.882C160.942 373.192 162.657 373.785 163.8 374.198C175.37 378.385 176.295 378.6 179.691 377.905C181.386 377.558 184.61 377.273 186.856 377.273H190.941L196.768 372.723C199.973 370.219 204.699 366.642 207.272 364.772C211.647 361.592 211.948 361.465 211.948 362.806C211.948 363.854 210.533 365.346 206.679 368.36C203.781 370.627 199.066 374.317 196.202 376.559C193.338 378.802 190.72 380.499 190.385 380.331C190.05 380.162 189.47 380.68 189.095 381.482C188.129 383.55 186.597 383.811 183.566 382.425C182.117 381.762 179.707 381.22 178.213 381.22C176.718 381.22 174.89 380.847 174.15 380.392C173.411 379.937 172.182 379.548 171.42 379.527C170.658 379.507 168.788 379 167.264 378.401C165.739 377.802 164.178 377.303 163.794 377.293C163.41 377.282 161.696 376.676 159.984 375.946C158.272 375.216 155.428 374.179 153.664 373.64C151.588 373.007 150.135 372.133 149.548 371.163L148.64 369.663L148.371 370.973C148.223 371.693 148.273 372.644 148.482 373.086C148.838 373.843 153.887 375.924 159.297 377.543C160.63 377.942 163.436 378.9 165.532 379.673C180.738 385.275 180.873 385.313 184.165 384.993C185.919 384.822 187.978 384.5 188.74 384.277C189.866 383.948 189.966 384.012 189.276 384.618C188.809 385.029 186.627 385.679 184.426 386.063C181.123 386.64 180.849 386.768 182.851 386.797C185.876 386.84 190.5 385.173 192.258 383.405C192.99 382.668 195.898 380.416 198.719 378.401C201.54 376.386 206.151 372.601 208.966 369.991C213.585 365.708 214.041 365.075 213.636 363.508C213.39 362.552 212.909 361.53 212.568 361.235C212.227 360.941 211.943 359.926 211.937 358.98C211.932 358.035 211.477 356.246 210.929 355.006C209.779 352.41 209.583 350.567 210.503 351.031C211.586 351.575 218.465 346.394 249.012 322.024C257.775 315.032 274.61 301.724 286.422 292.45C298.234 283.177 320.056 265.91 334.916 254.079C385.085 214.139 396.549 205.347 396.808 206.61C396.957 207.334 396.324 208.23 395.076 209.06L393.11 210.369L394.908 210.39C397.087 210.415 398.836 208.959 399.404 206.648C399.775 205.136 399.54 204.789 397.425 203.725C396.105 203.061 394.33 202.518 393.481 202.518C391.195 202.518 384.407 200.846 382.025 199.696C379.116 198.292 375.402 197.715 374.754 198.568C374.351 199.099 373.375 199.092 370.329 198.537C366.608 197.86 366.34 197.887 364.748 199.103C363.762 199.857 362.727 200.205 362.226 199.953C361.68 199.679 361.552 199.758 361.869 200.176C362.306 200.752 361.5 201.075 360.058 200.901C359.787 200.868 358.767 201.694 357.791 202.737C356.266 204.363 356.119 204.854 356.751 206.209C357.433 207.667 357.247 207.981 354.301 210.345C351.777 212.37 350.985 212.735 350.501 212.098C350.165 211.655 350.061 206.591 350.271 200.845C350.609 191.593 350.519 190.269 349.488 189.27C348.346 188.165 348.333 188.171 348.863 189.552ZM535.476 189.584C532.36 190.992 530.627 193.635 530.627 196.981C530.627 199.085 530.946 199.817 532.167 200.513C534.103 201.616 537.042 201.635 539.599 200.559C541.251 199.864 541.632 199.287 541.923 197.036C542.115 195.555 542.49 193.661 542.757 192.827C543.139 191.633 542.866 191.004 541.47 189.868C539.376 188.164 538.692 188.132 535.476 189.584ZM343.156 191.571C343.387 192.062 343.605 193.266 343.639 194.249L343.701 196.035L344.504 194.062C345.243 192.248 345.323 192.522 345.493 197.444C345.718 203.95 346.04 204.94 347.436 203.397C348.148 202.61 348.39 200.867 348.301 197.196L348.176 192.089L347.733 196.317L347.289 200.545L347.165 196.379C347.068 193.154 346.766 192.044 345.828 191.464C344.13 190.416 342.639 190.475 343.156 191.571ZM291.828 192.403C291.356 192.8 291.17 193.79 291.395 194.708C291.697 195.932 291.53 196.317 290.7 196.317C290.099 196.317 289.309 195.881 288.942 195.348C288.342 194.476 287.807 194.445 283.565 195.036C280.165 195.51 278.601 195.522 277.946 195.079C277.245 194.606 277.137 194.677 277.474 195.392C277.769 196.017 278.735 196.317 280.453 196.317C281.852 196.317 283.611 196.663 284.362 197.087C285.114 197.51 287.503 197.974 289.671 198.117L293.614 198.377L293.211 196.642C292.989 195.688 292.529 194.463 292.188 193.921C291.519 192.854 292.572 192.622 296.813 192.902C300.302 193.132 300.951 194.004 298.919 195.73C295.773 198.403 297.191 201.576 301.585 201.695C304.427 201.771 304.297 201.411 301.176 200.564C297.765 199.639 297.281 198.441 299.466 196.329C300.489 195.339 301.15 194.298 300.934 194.014C300.719 193.73 300.95 193.49 301.449 193.481C303.624 193.44 299.84 192.373 296.385 192.053C293.84 191.817 292.394 191.928 291.828 192.403ZM356.219 192.766C355.301 193.044 355.019 198.344 355.796 200.704C356.198 201.925 356.305 201.946 357.884 201.103C358.8 200.615 359.9 200.393 360.33 200.608C360.788 200.839 360.919 200.749 360.645 200.389C360.161 199.752 361.243 198.97 362.892 198.767C364.42 198.58 365.422 197.52 364.66 196.899C364.227 196.547 362.822 197.165 360.711 198.634L357.432 200.915V197.991C357.432 194.855 357.637 194.771 361.965 196.122C362.808 196.386 363.068 196.26 362.844 195.702C362.434 194.677 357.351 192.425 356.219 192.766ZM488.748 197.721C487.65 199.487 486.751 201.659 486.751 202.546C486.751 203.433 486.513 204.04 486.222 203.893C485.931 203.747 485.749 205.217 485.817 207.16C485.929 210.292 486.109 210.711 487.413 210.863C488.281 210.964 489.062 210.655 489.318 210.111C489.882 208.916 491.339 195.959 491.002 195.137C490.86 194.792 489.846 195.954 488.748 197.721ZM496.099 197.753C494.974 199.763 495.097 200.691 496.316 199.384C497.233 198.401 497.293 198.732 496.908 202.645C496.541 206.384 496.642 207.051 497.628 207.359C499.808 208.04 500.842 206.556 500.76 202.872L500.682 199.417L500.025 202.236C499.242 205.599 498.066 206.907 498.066 204.416C498.066 203.475 498.289 202.525 498.562 202.302C498.834 202.081 499.406 200.781 499.833 199.414C500.47 197.37 500.434 196.875 499.627 196.623C497.768 196.043 496.901 196.321 496.099 197.753ZM457.192 203.126C450.126 206.117 449.576 206.532 449.574 208.86C449.572 210.362 449.271 210.974 448.532 210.974C447.961 210.974 447.493 210.593 447.493 210.128C447.493 209.01 446.368 209.044 445.833 210.179C444.784 212.405 448.07 212.81 450.584 210.765C451.487 210.03 452.954 209.28 453.843 209.097C454.733 208.915 456.785 207.972 458.405 207.002C460.87 205.526 461.349 204.926 461.349 203.314C461.349 202.256 461.271 201.418 461.176 201.451C461.08 201.485 459.288 202.238 457.192 203.126ZM388.896 203.216C390.807 203.428 390.992 204.523 389.343 205.865C387.376 207.466 384.734 207.335 382.685 205.536C380.771 203.856 380.602 203.312 381.852 202.868C382.62 202.595 383.813 202.654 388.896 203.216ZM527.825 205.024C529.077 206.253 533.645 208.155 535.341 208.155C536.06 208.155 537.182 208.636 537.836 209.224C538.854 210.139 538.955 210.991 538.54 215.152C538.091 219.653 537.934 220.036 536.401 220.349C533.512 220.939 532.402 224.503 535.108 224.503C536.901 224.503 536.336 225.246 531.711 228.976C526.542 233.146 523.646 234.231 520.556 233.159C517.836 232.214 515.046 232.215 514.083 233.16C513.654 233.58 512.971 236.614 512.564 239.903C511.958 244.799 512.024 246.973 512.927 251.92C514.105 258.375 514.787 259.606 517.037 259.34C519.694 259.027 523.021 249.851 523.741 240.851C524.025 237.286 524.289 234.332 524.325 234.289C524.362 234.245 525.577 233.823 527.025 233.351C528.618 232.833 531.226 231.041 533.631 228.812C535.816 226.787 538.216 224.972 538.963 224.779C540.656 224.342 541.47 221.961 540.314 220.828C539.693 220.219 539.589 218.737 539.938 215.481C540.203 213.004 540.236 210.505 540.011 209.928C539.786 209.351 538.284 208.445 536.673 207.917C535.062 207.387 532.193 206.304 530.296 205.51C527.798 204.464 527.117 204.33 527.825 205.024ZM530.627 204.476C530.627 204.985 534.72 206.464 536.13 206.464C536.908 206.464 538.326 207.017 539.281 207.693C540.877 208.822 541.028 209.339 541.135 214.035C541.247 218.96 541.269 219.024 541.711 215.765C541.964 213.905 542.223 212.954 542.288 213.651C542.351 214.349 542.752 214.92 543.178 214.92C543.61 214.92 543.792 214.423 543.589 213.792C543.389 213.171 543.509 212.805 543.854 212.979C544.2 213.153 544.482 213.66 544.482 214.107C544.482 214.555 544.758 214.92 545.094 214.92C545.43 214.92 545.723 213.876 545.744 212.601C545.772 210.922 546.178 210.058 547.211 209.469C548.727 208.604 549.12 206.772 547.919 206.168C547.458 205.936 547.348 206.293 547.615 207.156C547.948 208.239 547.664 208.642 546.18 209.193C544.75 209.723 544.4 210.184 544.644 211.221C544.869 212.178 544.692 212.479 544.028 212.271C543.516 212.111 543.097 211.426 543.097 210.748C543.097 209.193 538.671 205.747 535.546 204.87C533.145 204.196 530.627 203.994 530.627 204.476ZM493.05 208.719C492.065 214.666 492.298 215.923 494.568 216.878C496.914 217.866 499.176 217.994 499.798 217.175C500.034 216.865 500.613 216.611 501.085 216.611C501.76 216.611 501.777 217.366 501.166 220.134C500.052 225.18 499.653 225.757 497.824 224.964C496.49 224.386 496.432 224.415 497.265 225.237C498.396 226.353 497.755 230.308 496.282 231.303C495.445 231.869 495.363 231.466 495.734 228.583C496.16 225.268 496.128 225.183 494.173 224.424C491.929 223.553 491.23 221.396 492.545 219.397C493.078 218.587 493.114 217.993 492.653 217.618C492.192 217.243 491.479 217.943 490.516 219.713C489.105 222.309 489.127 223.757 490.568 223.032C491.432 222.598 490.631 226.19 489.68 227.012C489.339 227.307 489.06 228.275 489.06 229.163C489.06 230.051 488.782 231.205 488.443 231.728C488.103 232.25 488.067 233.692 488.363 234.932C488.659 236.172 488.937 236.774 488.98 236.269C489.024 235.765 489.558 235.016 490.167 234.605C490.964 234.066 491.164 233.298 490.879 231.858C490.617 230.529 490.698 230.137 491.12 230.688C491.916 231.725 492.078 231.57 493.45 228.449L494.567 225.913L494.152 229.195L493.737 232.477L495.948 232.296C497.965 232.129 498.334 231.772 500.178 228.207C501.29 226.058 502.476 224.155 502.814 223.979C503.414 223.666 504.221 217.016 504.506 210.037C504.659 206.289 503.901 206.096 501.831 209.355C500.481 211.479 500.58 212.101 502.273 212.101H503.709L502.265 213.595C501.47 214.416 500.101 215.393 499.221 215.764C497.866 216.336 497.341 216.258 495.799 215.257C494.166 214.197 493.955 213.635 493.77 209.846L493.563 205.618L493.05 208.719ZM395.803 214.555C390.425 218.941 378.423 228.484 369.131 235.761C349.295 251.295 332.006 265.026 302.011 289.067C290.008 298.688 267.717 316.304 252.476 328.214C237.234 340.124 223.736 350.707 222.48 351.733C219.902 353.836 219.004 353.971 216.005 352.71C214.846 352.222 213.741 351.95 213.551 352.105C213.006 352.548 217.252 354.161 218.965 354.161C219.814 354.161 221.523 354.459 222.763 354.824L225.016 355.487L242.556 341.741C252.203 334.181 265.084 324.048 271.181 319.223C290.264 304.12 340.937 263.842 345.312 260.3C370.545 239.869 409.25 209.846 410.357 209.846C411.848 209.846 411.766 208.549 410.202 207.397C407.574 205.462 405.979 206.254 395.803 214.555ZM460.656 208.687C458.941 209.577 456.863 210.806 456.037 211.418C454.21 212.771 448.109 214.04 445.749 213.558C444.31 213.264 444.024 212.864 444.002 211.104L443.974 209.001L441.923 212.296C439.56 216.095 439.368 216.866 441.244 215.035L442.57 213.741L443.691 215.133C444.392 216.003 444.716 217.334 444.557 218.682L444.301 220.839L443.73 218.443C443.416 217.126 442.933 216.047 442.658 216.047C442.381 216.047 441.947 218.255 441.692 220.954C441.437 223.653 440.901 226.026 440.5 226.227C439.704 226.628 440.245 229.967 441.325 231.305C442.376 232.608 444.029 230.341 444.029 227.594C444.029 225.8 444.448 224.949 445.851 223.897C446.852 223.145 448.132 221.65 448.695 220.573L449.718 218.616L450.754 220.225C451.57 221.492 451.622 222.13 451.001 223.24C449.843 225.309 450.666 225.469 451.963 223.428C452.573 222.469 453.531 221.685 454.093 221.685C455.507 221.685 455.371 222.394 453.608 224.217C452.253 225.619 452.235 225.715 453.435 225.175C454.868 224.529 458.578 221.438 458.578 220.89C458.578 220.706 457.511 220.557 456.206 220.557C453.369 220.557 450.026 218.483 448.999 216.085C448.436 214.772 448.504 214.378 449.337 214.118C451.215 213.531 453.658 213.774 457.908 214.971C460.973 215.834 462.336 215.986 462.998 215.54C463.494 215.204 464.106 215.096 464.357 215.3C464.926 215.763 464.863 212.597 464.242 209.444L463.774 207.069L460.656 208.687ZM415.138 210.692C416.635 211.875 418.326 212.665 419.36 212.665C420.309 212.665 421.27 212.908 421.496 213.204C421.942 213.792 418.119 215.634 417.5 215.13C417.291 214.96 416.083 214.619 414.814 214.372C413.546 214.124 411.962 213.739 411.295 213.515C410.429 213.224 410.083 213.373 410.083 214.036C410.083 215.5 412.675 219.253 413.963 219.655C416.029 220.301 415.977 219.42 413.866 218.016L411.815 216.652L413.547 216.623C414.5 216.606 415.715 216.369 416.247 216.095C416.895 215.761 417.684 215.95 418.624 216.662C419.878 217.613 420.156 217.638 421.174 216.888C422.582 215.852 424.631 215.789 424.631 216.782C424.631 217.187 423.54 218.378 422.207 219.43C420.181 221.027 419.782 221.738 419.782 223.748C419.782 225.463 419.434 226.307 418.57 226.684C417.903 226.976 411.59 231.959 404.541 237.759C397.492 243.558 367.875 267.26 338.727 290.43C309.578 313.6 277.312 339.317 267.024 347.579C251.827 359.784 247.966 362.603 246.434 362.609C245.397 362.613 242.747 361.962 240.545 361.161C234.179 358.846 229.205 357.406 228.777 357.754C228.56 357.931 229.127 358.306 230.037 358.588C234.763 360.051 240.81 362.244 241.643 362.797C242.162 363.142 244.288 363.404 246.368 363.379L250.149 363.335L268.285 348.718C278.26 340.679 300.295 323.166 317.251 309.8C334.206 296.434 365.054 271.775 385.802 255.001C406.635 238.158 424.064 224.503 424.73 224.503C425.393 224.503 426.128 224.757 426.363 225.067C426.599 225.377 426.198 225.631 425.473 225.631C423.993 225.631 421.38 227.683 422.107 228.274C422.365 228.484 422.945 228.356 423.396 227.989C424.387 227.183 426.71 227.103 426.71 227.875C426.71 228.179 425.853 228.595 424.805 228.8C421.001 229.545 417.961 231.309 413.547 235.335C411.07 237.594 400.814 245.911 390.757 253.817C380.698 261.723 345.301 290.184 312.097 317.063L251.725 365.934L251.754 370.054C251.777 373.306 251.484 374.529 250.363 375.864C248.317 378.302 247.28 380.475 247.28 382.323C247.28 383.668 247.772 384.128 250.224 385.078C255.188 387.002 261.276 389.138 265.663 390.495C271.981 392.45 276.94 394.627 277.698 395.779C278.2 396.542 278.009 397.302 276.963 398.702C275.572 400.563 245.039 425.754 244.173 425.754C243.93 425.754 241.489 424.887 238.75 423.827C236.012 422.767 229.795 420.374 224.938 418.51C214.628 414.554 214.316 414.102 219.222 410.222C221.995 408.03 222.34 407.48 222.34 405.252C222.34 403.216 222.793 402.307 224.764 400.386C226.098 399.087 227.189 397.839 227.189 397.613C227.189 396.511 218.279 391.548 210.216 388.159C205.139 386.024 196.722 383.274 196.305 383.614C196.137 383.75 197.328 384.296 198.951 384.827C207.397 387.588 218.697 392.79 223.199 395.99L226.135 398.076L223.891 399.862C222.179 401.225 221.645 402.133 221.642 403.695C221.637 405.928 220.437 407.695 216.971 410.571C212.97 413.89 214.206 416.275 221.3 418.923C223.206 419.634 225.7 420.564 226.843 420.991C227.986 421.417 230.87 422.462 233.251 423.313C235.632 424.164 237.581 425.053 237.581 425.287C237.581 425.647 230.401 425.564 228.228 425.18C226.729 424.914 225.111 425.22 225.111 425.768C225.111 426.085 226.28 426.332 227.709 426.316C232.895 426.258 239.579 426.773 241.969 427.414C244.095 427.985 244.805 427.91 247.406 426.839C249.051 426.162 251.021 424.964 251.783 424.178C252.545 423.392 253.766 422.347 254.497 421.856C258.473 419.183 261.815 416.536 261.518 416.294C261.187 416.025 250.536 423.512 248.861 425.19C248.396 425.655 248.006 425.816 247.995 425.548C247.982 425.279 254.419 419.825 262.298 413.428C270.177 407.03 275.93 402.612 275.082 403.611C274.234 404.609 273.258 405.568 272.913 405.742C272.567 405.915 271.599 406.874 270.761 407.873C269.873 408.93 271.292 408.058 274.159 405.784C280.509 400.747 281.154 399.531 279.21 396.264C277.621 393.591 278.623 394.043 259.923 387.581C251.551 384.688 248.665 383.098 248.665 381.377C248.665 380.616 249.756 378.406 251.09 376.465C252.424 374.525 253.515 372.35 253.515 371.632C253.515 370.914 254.343 369.162 255.355 367.74C257.007 365.419 257.042 365.264 255.698 366.231C254.873 366.823 254.052 367.188 253.874 367.043C253.49 366.73 282.564 343.174 341.844 295.769C400.672 248.724 403.577 246.468 398.393 251.844C397.795 252.464 398.778 251.841 400.577 250.458C402.376 249.076 403.848 247.672 403.848 247.339C403.848 247.006 408.247 243.063 413.623 238.578C418.999 234.092 422.974 230.925 422.456 231.54C421.54 232.628 421.562 232.633 423.308 231.727C424.295 231.216 426.009 230.712 427.119 230.61C428.783 230.455 429.174 230.127 429.362 228.731C429.487 227.801 430.323 226.533 431.219 225.913C432.609 224.951 432.871 224.204 432.996 220.839C433.077 218.669 433.099 216.481 433.044 215.977C432.954 215.141 430.478 214.34 421.228 212.154C420.309 211.936 419.472 211.29 419.369 210.718C419.117 209.322 417.835 208.738 415 208.727L412.642 208.719L415.138 210.692ZM467.01 211.561C467.221 213.368 467.474 213.558 470.467 214.159C472.243 214.516 474.219 215.046 474.858 215.337C475.91 215.816 475.918 215.95 474.943 216.743C473.993 217.516 473.514 217.526 470.898 216.829C469.266 216.395 467.384 215.785 466.718 215.475C465.739 215.019 465.506 215.124 465.506 216.02C465.506 216.842 466.268 217.307 468.45 217.815C471.611 218.55 473.126 219.276 473.126 220.054C473.126 220.321 471.525 220.027 469.569 219.4C467.612 218.772 465.664 218.353 465.239 218.47C464.814 218.585 466.181 219.2 468.277 219.836L472.087 220.992L472.578 224.016C472.849 225.679 472.897 227.843 472.685 228.824C472.365 230.31 472.606 230.77 474.121 231.578C476.136 232.652 477.258 232.32 475.949 231.037C475.367 230.466 475.207 228.521 475.425 224.681C475.833 217.542 476.369 215.731 478.396 214.65C480.459 213.551 480.587 212.541 478.587 213.143C476.468 213.781 469.56 212.256 468.049 210.818C466.783 209.613 466.782 209.613 467.01 211.561ZM488.183 212.862C487.765 213.703 487.073 213.867 484.611 213.708C482.335 213.56 481.375 213.747 480.842 214.441C480.12 215.381 480.576 215.636 485.156 216.847C486.337 217.16 486.357 217.295 485.397 218.45C484.338 219.722 484.033 219.763 480.573 219.1C479.124 218.822 478.668 218.943 478.668 219.606C478.668 221.056 480.733 222.395 481.829 221.655C483.243 220.7 484.211 221.527 484.211 223.691C484.211 224.758 484.484 225.631 484.817 225.631C485.5 225.631 486.289 222.904 486.289 220.546C486.289 219.584 487.099 218.279 488.402 217.144C489.564 216.132 490.22 215.154 489.857 214.971C489.496 214.788 489.088 214.004 488.951 213.229C488.733 212.001 488.635 211.953 488.183 212.862ZM451.293 216.03C452.705 218.253 454.732 219.056 458.019 218.697C460.292 218.449 460.594 218.529 459.912 219.198C459.461 219.64 459.401 219.993 459.778 219.993C460.795 219.993 464.12 217.331 464.12 216.517C464.12 216.022 463.784 216.079 463.016 216.703C461.796 217.697 459.931 217.406 454.767 215.419C450.733 213.867 450 213.995 451.293 216.03ZM401.73 218.725C397.424 221.7 395.517 223.582 396.373 224.013C396.796 224.226 396.56 224.62 395.791 224.984C395.078 225.321 394.886 225.604 395.362 225.614C395.838 225.623 396.227 225.896 396.227 226.219C396.227 226.543 395.828 226.733 395.341 226.642C394.854 226.551 394.386 226.666 394.302 226.899C393.862 228.118 394.385 228.449 396.753 228.449C398.2 228.449 400.801 229.075 402.609 229.859C406.604 231.589 407.551 231.641 406.949 230.098C406.541 229.051 406.738 228.947 408.807 229.111C410.08 229.212 411.286 229.472 411.487 229.688C411.688 229.904 412.28 229.866 412.803 229.603C413.589 229.208 413.525 228.806 412.439 227.296C410.389 224.449 409.073 224.02 407.076 225.547C405.797 226.524 404.747 226.791 402.715 226.655C400.054 226.477 400.036 226.46 399.829 223.834C399.662 221.727 399.88 221.079 400.905 220.632C403.004 219.718 404.288 220.732 403.289 222.516C402.232 224.404 402.245 224.503 403.548 224.503C404.145 224.503 405.703 223.839 407.012 223.027C408.774 221.933 409.39 221.12 409.39 219.886C409.39 218.505 409.125 218.239 407.832 218.324C404.741 218.528 404.294 218.378 405.234 217.457C406.86 215.862 404.79 216.612 401.73 218.725ZM459.954 225.617C460.584 226.574 460.604 227.247 460.035 228.266C459.036 230.049 459.07 230.324 460.246 229.957C461.564 229.545 462.24 231.898 461.35 233.802C460.492 235.639 460.49 235.778 461.331 235.778C462.865 235.778 464.245 232.282 463.861 229.368C463.334 225.378 463.293 225.258 462.445 225.228C462.033 225.214 461.113 225.005 460.402 224.766C459.239 224.376 459.194 224.461 459.954 225.617ZM452.566 227.363C451.872 228.065 449.978 229.715 448.359 231.031C446.74 232.346 445.415 233.726 445.415 234.097C445.415 234.488 444.942 234.623 444.288 234.419C443.668 234.225 442.714 234.369 442.169 234.737C441.005 235.524 435.692 235.639 429.827 235.005C424.113 234.388 423.074 233.978 426.017 233.501C428.411 233.112 428.401 233.107 425.281 233.034C422.567 232.97 421.831 233.211 420.085 234.735L418.05 236.512L420.244 235.228L422.439 233.943L424.508 235.142C425.664 235.812 427.64 236.341 428.983 236.341C430.307 236.341 432.519 236.725 433.899 237.194C438.651 238.81 449.918 238.21 449.918 236.341C449.918 235.8 450.726 235.432 452.169 235.319C454.684 235.122 454.69 235.129 453.738 237.166C453.119 238.49 453.177 238.574 454.351 238.063C455.064 237.753 455.859 236.813 456.117 235.976C456.553 234.564 456.217 233.691 453.586 229.392C453.173 228.715 453.241 228.081 453.787 227.546C454.244 227.097 454.44 226.586 454.223 226.409C454.005 226.232 453.259 226.661 452.566 227.363ZM539.091 227.638C538.288 228.095 537.342 228.402 536.989 228.319C536.226 228.139 527.856 234.495 527.856 235.254C527.856 235.542 528.142 235.778 528.492 235.778C528.842 235.778 530.426 236.792 532.012 238.033C533.599 239.273 535.395 240.288 536.004 240.288C536.748 240.288 536.346 239.732 534.784 238.596C533.503 237.666 532.181 236.905 531.847 236.905C531.512 236.905 531.419 236.667 531.64 236.376C531.861 236.085 531.575 235.635 531.006 235.375C530.128 234.976 530.179 234.797 531.338 234.208C532.09 233.826 532.705 233.74 532.705 234.017C532.705 235.219 535.933 236.238 538.3 235.785L540.672 235.33L537.774 235.272C535.526 235.227 534.779 234.963 534.439 234.092C533.883 232.665 534.512 231.832 536.145 231.832C537.115 231.832 537.33 231.537 537.034 230.616C536.743 229.71 536.876 229.517 537.553 229.857C538.148 230.157 538.295 230.095 537.977 229.676C537.681 229.287 538.374 228.744 539.749 228.288C540.992 227.875 541.68 227.373 541.28 227.171C540.879 226.97 539.894 227.18 539.091 227.638ZM479.499 231.817C474.139 238.582 473.819 239.449 473.819 247.193V253.96L476.69 258.258C479.597 262.609 488.125 270.024 489.208 269.143C489.494 268.91 489.917 267.947 490.149 267.002C490.517 265.506 490.194 264.998 487.651 263.073C482.883 259.466 482.263 258.854 479.446 254.982C477.274 251.999 476.656 250.498 476.262 247.25C475.842 243.803 475.985 242.824 477.252 240.485C478.068 238.981 480.025 236.679 481.602 235.368C484.11 233.282 484.473 232.656 484.513 230.35C484.537 228.901 484.224 227.621 483.818 227.506C483.413 227.391 481.469 229.331 479.499 231.817ZM500.077 236.969C497.534 239.372 497.027 240.239 497.027 242.183C497.027 244.271 496.84 244.533 495.238 244.685C494.171 244.786 492.281 244.233 490.561 243.316C487.839 241.867 487.674 241.624 487.674 239.08C487.674 236.854 487.402 236.264 486.116 235.716C484.603 235.07 484.593 235.083 485.769 236.163C486.436 236.775 486.962 237.763 486.938 238.359C486.899 239.305 486.815 239.282 486.267 238.174C485.526 236.672 484.937 236.601 483.13 237.793C482.391 238.281 482.178 238.518 482.657 238.321C483.135 238.123 483.7 238.327 483.911 238.774C484.538 240.105 483.181 243.371 481.917 243.569C481.063 243.703 480.861 243.477 481.161 242.725C481.463 241.967 481.396 241.895 480.908 242.449C480.544 242.864 480.046 243.181 479.803 243.154C478.645 243.028 478.56 243.166 479.327 243.919C479.872 244.453 480.644 244.583 481.586 244.3C482.625 243.987 483.498 244.232 484.773 245.193C485.739 245.921 486.862 246.427 487.268 246.317C487.674 246.207 488.555 246.684 489.226 247.378C490.338 248.528 493.217 248.745 493.217 247.679C493.217 247.475 494.302 246.834 495.627 246.252C498.309 245.077 499.058 243.833 498.462 241.544C498.129 240.264 498.597 239.555 501.241 237.328C502.99 235.855 504.512 234.65 504.623 234.65C504.734 234.65 505.944 235.031 507.312 235.496C510.166 236.467 510.536 236.512 510.536 235.891C510.536 235.326 506.41 234.087 504.531 234.087C503.703 234.087 501.879 235.267 500.077 236.969ZM519.136 239.126C518.866 240.784 518.243 242.204 517.713 242.369C517.161 242.541 516.771 243.5 516.771 244.684C516.771 246.52 516.857 246.609 517.708 245.662C518.59 244.68 518.672 244.708 519.113 246.139C519.52 247.455 519.146 249.402 517.722 253.394C517.529 253.937 517.08 254.381 516.725 254.381C515.862 254.381 515.894 252.285 516.764 251.848C517.191 251.633 517.08 251.037 516.47 250.264C514.983 248.382 514.648 240.414 516.086 241.137C516.525 241.358 516.741 240.511 516.664 238.865C516.583 237.13 516.872 236.075 517.517 235.751C519.129 234.941 519.643 236.013 519.136 239.126ZM501.219 238.227C499.991 239.537 499.452 240.815 499.452 242.415C499.452 243.756 498.997 245.087 498.363 245.603C497.409 246.379 497.405 246.489 498.322 246.489C498.898 246.489 499.592 246.782 499.864 247.14C500.136 247.497 500.077 247.648 499.732 247.474C499.377 247.295 499.209 248.495 499.346 250.245C499.62 253.776 500.21 253.941 500.269 250.502C500.29 249.233 500.586 248.335 500.926 248.506C501.267 248.678 501.464 249.879 501.364 251.177C501.184 253.526 501.195 253.536 503.782 253.71C505.286 253.811 506.38 253.633 506.38 253.287C506.38 252.958 505.523 252.69 504.474 252.691C502.577 252.692 502.57 252.678 502.809 249.227C503.017 246.22 502.9 245.809 501.927 246.113C500.995 246.404 500.929 246.275 501.538 245.348C501.942 244.735 502.729 244.234 503.286 244.234C504.614 244.234 504.596 243.163 503.262 242.747C502.69 242.568 502.223 241.977 502.223 241.433C502.223 240.713 502.648 240.508 503.782 240.679C504.815 240.836 505.629 240.532 506.196 239.777C506.9 238.839 506.882 238.691 506.093 238.937C505.565 239.102 504.928 238.966 504.677 238.635C504.168 237.965 505.236 237.874 507.592 238.388C509.441 238.791 509.659 240.097 507.938 240.463C507.026 240.657 507.112 240.737 508.285 240.786C509.575 240.84 509.843 240.558 509.843 239.146C509.843 237.835 509.433 237.314 508.066 236.891C504.845 235.895 503.083 236.238 501.219 238.227ZM544.163 247.757C544.42 248.455 545.294 249.452 546.106 249.974L547.582 250.923L546.032 252.266C545.121 253.055 544.482 254.322 544.482 255.342C544.482 257.643 543.048 257.921 531.839 257.794C526.605 257.734 523.006 257.913 523.006 258.232C523.006 258.878 524.684 259.454 526.568 259.454C527.321 259.454 527.743 259.71 527.506 260.023C527.225 260.393 529.326 260.539 533.534 260.441C539.307 260.308 540.335 260.117 543.183 258.651C545.369 257.525 546.275 256.712 546.065 256.062C545.898 255.541 546.408 254.252 547.197 253.198C549.027 250.755 548.983 249.948 546.918 248.039C544.861 246.137 543.516 245.999 544.163 247.757ZM444.11 253.958C444.062 254.547 443.471 254.945 442.644 254.945C441.882 254.945 441.258 255.19 441.258 255.491C441.258 255.791 441.726 255.89 442.297 255.712C442.869 255.534 443.337 255.668 443.337 256.012C443.337 256.355 443.945 256.636 444.69 256.636C447.59 256.636 449.57 257.865 449.602 259.686C449.619 260.644 450.009 262.581 450.468 263.99C451.229 266.326 451.457 266.523 453.035 266.216L454.767 265.878L452.862 264.434C451.236 263.2 450.957 262.542 450.957 259.925C450.957 258.24 451.331 256.557 451.788 256.185C452.435 255.659 452.281 255.508 451.096 255.508C450.257 255.508 449.572 255.739 449.572 256.022C449.572 256.305 449.026 256.451 448.359 256.347C447.693 256.243 446.895 256.139 446.586 256.115C446.278 256.091 446.219 255.818 446.454 255.508C446.69 255.198 446.419 254.945 445.853 254.945C445.287 254.945 444.681 254.5 444.507 253.958C444.205 253.018 444.186 253.018 444.11 253.958ZM384.104 276.93C383.342 277.197 381.412 277.432 379.816 277.454C377.464 277.486 376.308 277.92 373.712 279.749C371.951 280.989 370.218 282.003 369.86 282.003C369.502 282.003 369.209 282.511 369.209 283.131C369.209 283.751 367.954 285.279 366.421 286.527C363.672 288.764 363.661 288.791 365.555 288.518C366.613 288.365 367.905 287.725 368.428 287.095C369.638 285.636 370.595 285.628 370.595 287.077C370.595 287.697 370.871 288.204 371.21 288.204C371.548 288.204 371.781 286.872 371.729 285.245C371.644 282.607 371.797 282.266 373.139 282.111C373.967 282.015 375.782 281.064 377.172 279.997C379.668 278.082 381.25 277.6 381.964 278.539C382.36 279.061 389.197 278.352 389.907 277.715C390.144 277.502 389.661 277.463 388.832 277.628C387.74 277.847 387.426 277.714 387.694 277.148C388.111 276.264 386.319 276.155 384.104 276.93ZM512.615 278.067C512.615 278.247 513.729 278.723 515.09 279.123C517.046 279.698 517.988 279.709 519.58 279.172C522.362 278.234 523.845 278.809 523.572 280.719C523.434 281.686 522.708 282.523 521.621 282.969L519.889 283.678L521.794 283.686C523.197 283.692 523.699 283.975 523.699 284.762C523.699 285.349 524.245 286.018 524.911 286.249C525.957 286.611 525.885 286.727 524.392 287.098L522.66 287.529L524.565 287.584C526.504 287.642 527.103 286.898 525.69 286.187C525.189 285.935 525.046 284.73 525.288 282.817C525.856 278.34 525.072 277.779 518.213 277.757C515.134 277.747 512.615 277.887 512.615 278.067ZM399.009 278.904C399.003 279.214 396.522 281.215 393.495 283.35C388.096 287.159 387.994 287.279 388.126 289.688C388.2 291.038 388.484 292.144 388.756 292.147C389.469 292.152 390.874 289.861 390.395 289.472C390.173 289.291 389.988 289.503 389.982 289.942C389.973 290.6 389.853 290.592 389.3 289.896C388.256 288.581 388.463 287.475 389.682 287.856C390.299 288.048 390.576 287.954 390.334 287.635C390.101 287.328 390.573 287.077 391.383 287.077C393.681 287.077 395.535 286.025 395.535 284.721C395.535 284.067 396.629 282.744 397.968 281.781C399.83 280.441 400.239 279.832 399.71 279.185C399.33 278.72 399.015 278.593 399.009 278.904ZM354.264 295.722L351.443 298.07L352.704 300.043C354.393 302.684 354.296 304.352 352.394 305.366C350.743 306.246 347.733 305.98 347.733 304.954C347.733 304.627 348.229 303.913 348.836 303.368C349.858 302.448 349.833 302.399 348.489 302.684C346.538 303.1 346.484 305.667 348.418 306.079C349.176 306.24 349.608 306.619 349.38 306.92C349.131 307.247 347.313 307.311 344.867 307.08C340.297 306.649 338.727 307.23 338.727 309.353C338.727 310.057 338.259 310.779 337.688 310.958C335.622 311.603 336.722 312.163 340.055 312.163C344.058 312.163 345.206 311.61 342.215 311.124C340.704 310.878 340.112 310.46 340.112 309.64C340.112 308.636 340.559 308.499 343.838 308.499C348.407 308.499 350.016 309.575 348.067 311.328C347.384 311.942 347.137 312.445 347.518 312.445C348.612 312.445 350.352 310.617 350.871 308.921C351.387 307.243 353.003 306.911 355.458 307.981C357.407 308.829 358.078 308.039 356.375 306.9C354.557 305.684 354.924 304.347 357.286 303.586C358.931 303.056 358.982 302.974 357.689 302.921C356.879 302.888 355.849 302.501 355.4 302.061C354.756 301.43 354.846 301.137 355.835 300.669C356.976 300.129 356.981 300.075 355.897 300.06C354.643 300.042 352.904 298.024 353.793 297.618C354.079 297.487 355.172 297.213 356.219 297.009C358.134 296.637 358.427 296.047 357.556 294.313C357.166 293.535 356.606 293.775 354.264 295.722ZM387.983 295.956C387.93 296.928 387.498 297.224 386.129 297.224C385.117 297.224 383.497 297.896 382.39 298.774C381.315 299.627 380.107 300.384 379.707 300.456C379.306 300.529 377.881 301.48 376.541 302.57C375.201 303.661 373.645 304.553 373.083 304.553C371.571 304.553 371.024 305.633 372.33 306.041C373.109 306.284 374.361 305.583 376.365 303.782C377.963 302.346 379.89 301.161 380.648 301.15C381.405 301.139 382.805 300.768 383.757 300.325C384.71 299.882 386.347 299.51 387.395 299.499C389.427 299.478 389.67 298.797 388.607 296.097C388.075 294.745 388.049 294.739 387.983 295.956ZM354.759 314.056C354.002 314.672 353.49 315.64 353.622 316.207C353.754 316.773 353.885 317.394 353.915 317.587C353.944 317.78 355.254 318.105 356.826 318.31C359.525 318.661 359.622 318.739 358.558 319.695C357.939 320.252 357.432 321.005 357.432 321.368C357.432 321.731 357.198 321.986 356.912 321.936C356.075 321.787 350.007 324.132 349.5 324.8C349.245 325.136 348.442 325.411 347.716 325.411C346.437 325.411 346.441 325.342 347.835 323.297L349.275 321.183L346.379 323.597C343.59 325.922 342.957 327.695 344.806 327.999C345.291 328.079 345.387 328.021 345.018 327.868C343.435 327.217 345.12 326.216 347.429 326.435C349.232 326.606 350.529 326.287 352.469 325.192C353.906 324.382 355.459 323.719 355.919 323.719C357.483 323.719 359.325 322.42 359.041 321.517C358.855 320.925 359.833 320.094 361.905 319.083C363.866 318.125 365.022 317.169 364.972 316.546C364.9 315.647 364.858 315.653 364.558 316.604C364.267 317.524 363.764 317.618 360.708 317.323C356.623 316.93 355.299 316.192 357.197 315.365C359.515 314.356 363.775 313.93 364.324 314.652C364.705 315.153 365.011 315.137 365.574 314.585C366.164 314.007 365.645 313.823 363.088 313.704C361.311 313.621 359.02 313.414 357.996 313.244C356.696 313.028 355.722 313.272 354.759 314.056ZM332.294 315.262C331.59 316.08 331.466 317.12 331.841 319.067C332.125 320.54 332.086 321.979 331.755 322.264C331.389 322.576 329.694 322.496 327.465 322.061C324.349 321.453 323.303 321.472 320.714 322.184C316.832 323.252 316.141 324.368 319.774 323.701C323.065 323.097 323.604 323.387 322.726 325.289C322.049 326.756 322.072 326.779 323.259 325.824C324.324 324.968 324.37 324.661 323.58 323.634C322.677 322.457 322.719 322.444 326.365 322.835C333.552 323.604 334.253 323.555 333.947 322.31C332.886 317.999 334.141 313.561 335.994 315.069C336.455 315.444 337.8 315.503 339.631 315.228C341.23 314.988 343.357 314.923 344.358 315.085C345.36 315.245 346.392 315.098 346.651 314.757C346.981 314.321 345.059 314.136 340.193 314.136C334.052 314.136 333.153 314.264 332.294 315.262ZM164.553 324.657C163.015 325.74 162.052 326 160.512 325.749C159.4 325.568 157.858 325.696 157.084 326.033C154.489 327.163 147.474 332.762 148.373 332.985C150.841 333.597 152.33 333.707 151.984 333.253C151.49 332.601 154.518 330.311 157.408 329.151C158.857 328.57 159.202 328.251 158.39 328.242C157.7 328.235 157.324 327.982 157.554 327.68C157.784 327.377 159.279 327.274 160.886 327.451C163.383 327.726 164.032 327.57 165.421 326.36C166.313 325.583 166.937 324.562 166.807 324.091C166.619 323.41 166.159 323.525 164.553 324.657ZM329.73 332.387C329.757 334.188 330.612 335.41 331.685 335.182C332.67 334.972 332.836 335.447 332.824 338.446C332.81 341.713 332.686 341.987 331.019 342.44C329.234 342.924 326.979 345.705 328.372 345.705C328.756 345.705 329.255 345.315 329.48 344.838C329.705 344.361 330.942 343.613 332.229 343.176C334.519 342.397 334.57 342.307 334.57 339.002C334.57 337.144 334.243 335.46 333.843 335.259C333.385 335.028 333.356 334.652 333.765 334.239C334.214 333.786 333.692 333.303 332.067 332.669C330.54 332.074 329.724 331.975 329.73 332.387ZM172.626 336.211C171.421 337.192 171.554 339.473 172.841 339.875C173.449 340.065 174.596 339.69 175.483 339.012C177.353 337.583 181.502 337.263 180.08 338.658C179.605 339.123 178.71 339.512 178.09 339.521C177.129 339.535 177.149 339.626 178.225 340.135C179.986 340.969 182.297 339.229 182.018 337.278C181.826 335.935 181.534 335.829 177.649 335.675C175.009 335.571 173.172 335.767 172.626 336.211ZM311.649 338.141C310.245 339.322 308.916 339.88 307.507 339.88C304.673 339.88 300.624 343.062 300.624 345.289C300.624 346.178 300.301 347.397 299.907 347.997C299.512 348.597 299.447 349.087 299.763 349.087C300.42 349.087 305.22 345.074 307.425 342.681C310.988 338.816 319.329 335.634 319.329 338.141C319.329 339.481 314.524 343.982 312.695 344.356C311.61 344.578 311.027 345.165 310.882 346.18C310.708 347.403 310.351 347.652 308.937 347.535C307.537 347.42 307.405 347.509 308.244 348.001C309.097 348.5 309.114 348.664 308.339 348.916C307.82 349.085 306.893 349.7 306.28 350.283C305.667 350.866 304.845 351.343 304.453 351.344C304.061 351.345 302.668 351.879 301.356 352.529C299.255 353.572 299.115 353.778 300.182 354.264C302.089 355.132 300.246 356.416 297.093 356.416C294.509 356.416 294.437 356.469 294.83 358.071C295.185 359.514 295.062 359.688 293.863 359.433C291.719 358.977 287.811 362.12 286.774 365.135C286.295 366.529 285.675 367.555 285.397 367.416C284.591 367.01 279.051 370.153 276.03 372.73C273.378 374.992 273.316 375.128 274.58 375.888C275.771 376.603 276.18 376.478 278.737 374.616C281.461 372.631 282.945 371.053 281.316 371.873C280.885 372.089 280.533 372.159 280.533 372.028C280.533 371.897 281.858 371.07 283.477 370.191C287.554 367.978 289.539 366.492 289.539 365.656C289.539 365.264 289.886 364.23 290.308 363.358C290.973 361.986 291.142 361.911 291.549 362.803C291.999 363.786 292.1 363.78 293.724 362.68C295.194 361.685 295.254 361.524 294.158 361.508C293.456 361.498 293.017 361.174 293.177 360.784C293.345 360.374 294.329 360.152 295.53 360.252C297.163 360.389 297.758 360.133 298.374 359.033C298.803 358.267 299.718 357.493 300.408 357.314C301.098 357.134 302.725 355.717 304.023 354.165C305.321 352.612 306.603 351.342 306.872 351.342C307.141 351.342 308.493 350.61 309.877 349.716C311.305 348.792 313.666 347.932 315.341 347.726C319.95 347.159 321.156 346.111 316.784 346.473C314.154 346.69 312.977 346.552 312.368 345.955C311.682 345.282 311.843 345.141 313.299 345.141C315.679 345.141 317.251 344.599 317.251 343.777C317.251 343.404 318.222 342.513 319.411 341.798C320.714 341.014 321.274 340.349 320.822 340.122C319.763 339.589 320.63 337.353 321.998 337.09C322.626 336.97 321.019 336.766 318.428 336.637C313.909 336.413 313.634 336.474 311.649 338.141ZM156.541 342.181C156.526 344.502 156.454 344.578 154.274 344.599L152.022 344.621L154.447 345.51C155.781 345.998 159.833 347.397 163.453 348.618C167.073 349.84 170.502 351.003 171.074 351.204C171.645 351.406 170.588 350.118 168.724 348.342C166.86 346.566 165.17 345.248 164.968 345.412C164.767 345.575 165.357 346.369 166.279 347.175L167.956 348.641L165.185 347.678C163.661 347.148 161.412 346.479 160.187 346.189C157.563 345.569 156.693 344.706 158.214 344.231C159.646 343.784 159.559 342.909 157.911 341.195L156.556 339.786L156.541 342.181ZM208.97 342.596C209.033 344.387 208.325 345.127 200.968 350.965C187.71 361.485 186.889 362.015 182.751 362.717C179.478 363.272 178.674 363.211 175.923 362.198C174.209 361.567 170.312 360.228 167.264 359.222C159.425 356.637 155.416 355.216 151.379 353.597C148.356 352.384 147.835 351.932 147.649 350.355C147.4 348.26 148.276 348.03 151.424 349.366C152.515 349.828 154.031 350.213 154.794 350.22C155.556 350.226 156.647 350.505 157.218 350.84C158.082 351.346 158.043 351.392 156.987 351.113C156.152 350.892 155.815 351.019 156.004 351.482C156.163 351.87 157.826 352.355 159.7 352.56C161.574 352.764 164.417 353.462 166.018 354.11C167.619 354.758 169.411 355.288 170.001 355.288C170.591 355.288 171.074 355.522 171.074 355.808C171.074 356.094 172.165 356.621 173.499 356.979C174.832 357.337 175.923 357.982 175.923 358.412C175.923 359.351 178.435 360.546 179.598 360.161C180.076 360.003 179.944 359.868 179.288 359.842C178.662 359.818 177.975 359.426 177.76 358.971C177.454 358.322 177.801 358.215 179.389 358.474C180.991 358.734 182.016 358.411 184.347 356.908C186.116 355.768 187.111 355.383 186.848 355.942C186.607 356.452 186.594 357.019 186.819 357.201C187.377 357.656 189.154 356.397 188.734 355.845C188.132 355.051 206.548 340.631 208.164 340.631C208.57 340.631 208.933 341.515 208.97 342.596ZM295.72 347.17C294.797 347.973 293.185 348.993 292.137 349.437C291.09 349.881 290.232 350.575 290.232 350.98C290.232 351.384 289.468 352.048 288.534 352.455C287.162 353.052 286.863 353.584 286.975 355.228C287.052 356.346 287.315 357.261 287.56 357.261C287.805 357.261 290.089 355.657 292.637 353.697C295.663 351.367 297.131 349.839 296.87 349.287C296.651 348.822 296.808 347.931 297.219 347.307C298.345 345.595 297.605 345.528 295.72 347.17ZM207.108 352.329C207.113 352.871 207.301 353.874 207.527 354.556C207.822 355.454 207.409 356.194 206.03 357.234C204.818 358.148 204.489 358.67 205.127 358.67C205.678 358.67 206.503 358.366 206.96 357.994C207.606 357.468 207.791 357.593 207.791 358.558C207.791 360.074 205.408 360.258 203.546 358.887C202.372 358.022 202.35 358.064 203.12 359.725C203.653 360.874 204.165 361.283 204.614 360.917C205.57 360.14 206.406 360.225 206.406 361.102C206.406 361.509 205.491 362.555 204.374 363.426C202.803 364.65 201.858 364.953 200.217 364.756C197.974 364.489 197.739 364.672 198.719 365.93C199.053 366.361 199.744 366.531 200.266 366.311C200.785 366.094 200.586 366.321 199.824 366.816C199.062 367.312 196.568 369.189 194.282 370.987C190.868 373.672 189.466 374.374 186.436 374.919C181.008 375.895 178.326 375.79 178.169 374.596C178.097 374.053 177.882 371.819 177.692 369.632L177.346 365.654L182.697 365.069C185.64 364.746 188.343 364.697 188.705 364.959C189.112 365.254 189.069 365.435 188.591 365.435C188.126 365.435 187.726 366.895 187.586 369.101C187.353 372.777 187.993 373.977 188.797 371.371C189.473 369.179 189.568 365.214 188.962 364.541C188.637 364.179 189.155 363.368 190.22 362.568C191.98 361.244 192.017 361.241 191.569 362.428C191.315 363.1 191.433 363.812 191.829 364.012C192.266 364.231 192.55 363.725 192.55 362.727C192.55 361.408 193.584 360.285 197.748 357.088C205.269 351.31 207.089 350.385 207.108 352.329ZM236.522 354.601L236.862 356.452L233.411 356.079C229.689 355.677 228.499 356.567 231.865 357.235C232.913 357.443 236.043 358.486 238.819 359.552C241.597 360.617 244.324 361.489 244.881 361.489C246.622 361.489 245.995 360.521 243.469 359.309C241.492 358.36 241.041 357.803 241.024 356.294C241.006 354.723 240.892 354.598 240.273 355.463C239.872 356.025 239.733 356.885 239.963 357.375C240.321 358.134 240.22 358.155 239.273 357.516C238.621 357.076 238.288 356.228 238.468 355.463C238.659 354.652 238.441 354.161 237.889 354.161C237.402 354.161 236.819 353.844 236.593 353.456C236.366 353.069 236.334 353.584 236.522 354.601ZM275.887 358.484C271.957 362.686 267.718 366.101 265.497 366.856C264.241 367.283 263.214 367.903 263.214 368.234C263.214 368.564 262.256 369.308 261.086 369.887C259.915 370.466 259.036 371.16 259.131 371.429C259.227 371.698 258.134 372.565 256.703 373.356C253.717 375.006 250.024 379.487 250.107 381.359C250.16 382.557 250.209 382.544 250.987 381.121C251.439 380.292 253.752 377.967 256.126 375.955C259.922 372.738 260.443 372.463 260.443 373.666C260.443 374.557 259.237 376.009 256.979 377.837C255.073 379.38 253.515 380.787 253.515 380.965C253.515 381.143 254.948 380.452 256.701 379.428C260.335 377.304 262.04 375.056 261.455 373.158C260.897 371.351 265.049 367.597 267.119 368.037C268.493 368.329 269.122 367.992 271.588 365.639C272.193 365.062 273.517 364.02 274.532 363.325C275.688 362.533 276.376 361.494 276.376 360.543C276.376 359.708 277.054 358.438 277.883 357.72C278.711 357.003 279.036 356.416 278.605 356.416C278.174 356.416 276.951 357.346 275.887 358.484ZM156.655 358.389C158.551 359.164 160.507 359.798 161.001 359.798C161.494 359.798 162.309 360.201 162.812 360.694C163.576 361.443 163.561 361.57 162.723 361.472C159.732 361.123 159.294 361.442 159.413 363.885L159.529 366.281L159.801 364.167L160.073 362.053L164.014 362.086C166.827 362.109 169.047 362.553 171.767 363.636L175.577 365.153L175.991 369.663C176.22 372.144 176.651 374.635 176.95 375.198C177.47 376.179 177.377 376.183 174.804 375.288C173.324 374.773 171.724 374.221 171.247 374.061C170.771 373.901 170.381 373.388 170.381 372.919C170.381 372.3 169.875 372.147 168.524 372.357C165.272 372.863 160.737 370.703 160.613 368.589C160.546 367.454 160.527 367.457 160.093 368.665L159.643 369.921L155.99 368.496L152.337 367.07L152.795 363.434C153.118 360.874 153.02 359.798 152.464 359.798C151.618 359.798 151.374 357.977 152.138 357.355C152.796 356.82 152.845 356.831 156.655 358.389ZM279.305 364.449C277.75 365.766 274.574 368.24 272.247 369.945C267.771 373.225 265.228 376.14 266.833 376.153C267.319 376.156 269.593 374.571 271.886 372.629C274.179 370.688 277.062 368.465 278.294 367.69C280.094 366.558 283.36 362.053 282.381 362.053C282.244 362.053 280.859 363.131 279.305 364.449ZM142.242 370.767C139.205 373.135 139.045 373.407 139.457 375.507C139.875 377.636 139.74 377.848 136.433 380.268C134.529 381.662 132.971 383.237 132.971 383.77C132.971 384.568 132.787 384.615 131.932 384.038C131.36 383.652 130.893 382.86 130.893 382.278C130.893 381.696 130.648 381.22 130.349 381.22C130.05 381.22 129.253 380.459 128.578 379.528C126.475 376.633 125.854 377.679 127.908 380.655C128.978 382.205 130.088 383.473 130.373 383.474C130.658 383.474 130.893 383.845 130.893 384.298C130.893 384.751 131.59 385.65 132.441 386.295C134.078 387.537 143.381 391.367 144.758 391.367C145.204 391.367 146.362 391.874 147.33 392.494C148.299 393.114 149.604 393.622 150.229 393.622C150.856 393.622 151.983 393.956 152.734 394.365C154.488 395.318 160.077 397.009 161.398 396.986C161.957 396.977 165.212 394.947 168.63 392.477C172.049 390.006 175.226 387.984 175.69 387.984C177.066 387.984 177.497 389.093 176.502 390.076C175.676 390.892 175.787 390.947 177.534 390.593C178.617 390.374 180.491 390.491 181.731 390.856C183.541 391.389 184.857 391.334 188.588 390.573C192.695 389.735 193.423 389.722 195.179 390.461C196.265 390.919 197.559 391.69 198.054 392.175C199.337 393.433 205.596 393.399 206.194 392.131C206.46 391.565 206.135 390.908 205.356 390.446C202.717 388.875 205.039 389.098 208.593 390.756L212.294 392.483L209.523 392.556L206.752 392.628L210.216 393.353C212.121 393.751 213.29 394.101 212.814 394.131C211.775 394.196 211.626 397.903 212.641 398.413C213.055 398.622 213.333 397.92 213.333 396.668C213.333 394.675 213.394 394.619 214.601 395.507C215.297 396.02 216.682 396.44 217.677 396.44C218.672 396.44 219.705 396.728 219.972 397.079C220.309 397.523 219.789 397.639 218.281 397.459C216.861 397.29 216.105 397.437 216.105 397.883C216.105 398.259 217.023 398.677 218.146 398.811C219.269 398.945 220.031 398.847 219.837 398.593C219.645 398.339 220.146 398.131 220.953 398.131C222.329 398.131 222.352 398.208 221.34 399.385C219.567 401.443 220.116 401.838 222.34 400.104C223.483 399.213 224.418 398.326 224.418 398.134C224.418 397.598 208.553 389.265 205.02 387.946C204.068 387.59 202.753 387.076 202.099 386.803C201.445 386.53 199.673 386.081 198.161 385.805C195.296 385.281 195.471 385.225 189.151 388.686C186.024 390.398 180.207 389.558 174.538 386.575C173.165 385.852 166.866 384.038 165.731 384.038C165.241 384.038 164.839 384.292 164.839 384.602C164.839 384.912 165.073 385.136 165.358 385.099C166.89 384.902 167.61 385.284 167.61 386.293C167.61 387.581 167.871 387.648 169.734 386.837C172.123 385.797 171.255 387.34 167.449 390.9C162.508 395.524 161.022 396.101 157.515 394.759C153.405 393.186 148.265 391.367 147.929 391.367C147.766 391.367 144.645 390.216 140.994 388.808C134.95 386.479 134.356 386.111 134.356 384.682C134.356 383.537 135.198 382.499 137.474 380.834C140.279 378.783 140.592 378.304 140.592 376.055C140.592 373.903 140.958 373.265 143.233 371.457C144.686 370.303 146.037 369.49 146.235 369.652C146.434 369.813 146.596 369.564 146.596 369.099C146.596 367.74 145.67 368.095 142.242 370.767ZM231.473 375.348C230.641 375.822 229.96 376.624 229.96 377.13C229.96 377.878 230.224 377.819 231.373 376.816C232.997 375.397 233.062 375.385 234.855 376.166C235.745 376.554 236.195 377.347 236.195 378.526V380.303L234.252 378.788C231.945 376.99 231.346 376.901 231.346 378.36C231.346 379.72 234.483 381.783 236.55 381.783C239.83 381.783 240.447 379.011 237.756 376.357C236.099 374.723 233.346 374.28 231.473 375.348ZM270.742 378.617C273.056 379.661 271.382 380.034 266.678 379.523C262.916 379.114 259.808 379.775 258.713 381.216C258.476 381.528 257.443 381.818 256.418 381.86C254.953 381.92 254.864 381.987 256.004 382.169C257.286 382.375 260.131 381.746 264.16 380.364C265.336 379.961 265.374 380.044 264.576 381.275C263.406 383.08 262.603 383.456 259.882 383.466C258.533 383.471 257.766 383.706 258.018 384.038C258.253 384.348 259.051 384.602 259.791 384.602C260.53 384.602 261.135 384.856 261.135 385.166C261.135 386.089 259.033 385.809 256.541 384.556C255.258 383.911 254.207 383.604 254.207 383.875C254.207 384.389 261.344 387.421 262.555 387.421C262.939 387.421 265.46 388.308 268.158 389.394C273.014 391.346 275.723 392.103 272.047 390.48C269.109 389.184 269.749 388.736 274.471 388.785C276.853 388.81 278.878 388.576 278.972 388.266C279.073 387.928 276.996 387.697 273.776 387.689C268.019 387.675 263.29 386.569 264.56 385.535C264.963 385.208 265.292 384.407 265.292 383.756C265.292 382.561 266.473 381.22 267.527 381.22C267.841 381.22 267.584 382.044 266.953 383.052L265.809 384.884L267.754 383.474C271.619 380.674 272.835 379.287 272.076 378.542C271.681 378.155 270.85 377.846 270.23 377.857C269.433 377.871 269.584 378.094 270.742 378.617ZM245.201 387.074C245.201 387.818 245.654 388.569 246.208 388.741C247.316 389.088 250.045 393.317 250.061 394.714C250.069 395.312 250.237 395.384 250.586 394.938C250.976 394.438 251.36 394.438 252.194 394.938C253.512 395.729 254.416 399.774 253.533 400.931C253.137 401.448 253.18 402.031 253.646 402.488C254.672 403.495 260.453 405.521 261.211 405.14C262.576 404.454 261.725 403.16 259.69 402.829C257.279 402.437 256.866 401.823 255.23 396.224C254.228 392.792 254.215 392.246 255.125 391.506C256.307 390.544 257.948 391.095 257.394 392.269C256.919 393.276 257.258 393.26 259.887 392.155L262.034 391.251L259.333 390.27C256.879 389.378 256.428 389.367 254.396 390.145C252.333 390.934 252.049 390.918 250.735 389.951C249.95 389.373 249.471 388.558 249.668 388.139C249.866 387.72 249.487 387.242 248.827 387.076C248.166 386.91 247.08 386.537 246.414 386.247C245.415 385.813 245.201 385.959 245.201 387.074ZM229.998 392.808C232.108 394.579 232.181 394.749 230.83 394.749C230.016 394.749 229.157 394.496 228.923 394.188C228.689 393.88 227.898 393.367 227.166 393.048C226.042 392.558 225.908 392.624 226.305 393.468C226.564 394.017 227.459 395.287 228.293 396.289C229.593 397.848 229.935 397.99 230.663 397.276C231.628 396.329 235.197 396.146 235.852 397.008C236.09 397.321 235.563 397.813 234.681 398.1C233.376 398.526 233.747 398.63 236.674 398.66C238.652 398.679 240.463 398.949 240.698 399.259C240.934 399.569 242.062 399.823 243.205 399.823C244.348 399.823 245.107 399.59 244.892 399.307C244.676 399.023 244.892 398.671 245.37 398.524C245.849 398.377 244.994 397.842 243.469 397.334C241.945 396.827 240.1 396.136 239.369 395.798C238.638 395.46 237.079 395.074 235.905 394.94C232.604 394.562 232.065 394.315 231.389 392.867C231.042 392.127 230.068 391.373 229.223 391.194C227.889 390.91 227.992 391.124 229.998 392.808ZM208.484 401.155L210.909 401.937L208.151 402.376C206.635 402.618 204.453 403.308 203.302 403.908L201.21 405.002L204.597 404.667C206.46 404.483 209.344 404.332 211.006 404.332C213.229 404.332 214.026 404.109 214.026 403.487C214.026 403.012 214.645 402.641 215.436 402.641C216.626 402.641 216.732 402.815 216.113 403.756C215.71 404.368 214.763 405.139 214.01 405.467C213.092 405.867 212.641 406.647 212.641 407.835C212.641 408.81 212.272 410.438 211.821 411.452C211.17 412.917 210.565 413.331 208.877 413.465C206.814 413.629 206.796 413.655 208.261 414.336C210.584 415.419 211.493 414.763 212.959 410.949C213.703 409.015 215.027 406.874 215.901 406.192C216.774 405.509 217.495 404.494 217.501 403.937C217.51 403.074 217.613 403.049 218.197 403.769C218.712 404.404 218.845 404.159 218.732 402.782C218.583 400.975 218.534 400.95 215.091 400.944C213.172 400.94 210.354 400.811 208.83 400.655L206.059 400.373L208.484 401.155ZM189.359 405.131C188.991 405.911 188.771 405.96 188.307 405.366C187.919 404.869 187.718 405.246 187.711 406.484C187.705 407.511 187.391 408.824 187.013 409.399C186.463 410.235 186.733 410.758 188.357 412.006C189.475 412.865 190.24 413.765 190.056 414.007C189.687 414.492 191.451 414.874 195.668 415.223C198.917 415.493 204.642 417.171 207.08 418.57C208.021 419.111 209.668 419.553 210.738 419.553C213.32 419.553 214.109 421.157 212.069 422.259C210.395 423.164 209.893 426.663 211.428 426.733C211.905 426.754 213.385 426.926 214.719 427.114L217.144 427.455L214.892 426.603C211.047 425.147 212.083 424.436 217.427 424.865C220.06 425.076 222.374 425.036 222.571 424.778C222.768 424.519 222.251 424.301 221.422 424.293C215.372 424.238 213.881 424.036 214.501 423.358C215.897 421.832 214.352 418.426 212.262 418.426C211.767 418.426 210.408 417.773 209.243 416.975C207.765 415.963 205.814 415.374 202.791 415.026C200.408 414.752 198.35 414.263 198.218 413.94C198.085 413.616 196.462 413.352 194.612 413.352C191.415 413.352 189.969 412.822 190.963 412.013C191.617 411.48 191.179 405.274 190.444 404.661C190.072 404.35 189.638 404.539 189.359 405.131ZM196.187 404.737C195.711 404.876 195.321 405.843 195.321 406.884C195.321 408.202 194.853 409.045 193.781 409.656C192.245 410.532 192.246 410.533 194.368 410.533C195.538 410.533 197.242 411.061 198.155 411.705C199.24 412.471 200.475 412.797 201.725 412.648C202.775 412.522 203.635 412.602 203.635 412.826C203.635 413.049 204.036 413.357 204.525 413.509C205.174 413.712 205.342 413.265 205.141 411.868L204.866 409.948L201.479 410.313L198.092 410.679V407.821C198.092 404.901 197.715 404.291 196.187 404.737Z" fill="#4831D4"/>
</g>
<defs>
<clipPath id="clip0_29_1158">
<rect width="428.831" height="322.452" fill="white" transform="translate(126.736 105.557)"/>
</clipPath>
</defs>
</svg>
